<svg width="484" height="307" viewBox="0 0 484 307" fill="none" xmlns="http://www.w3.org/2000/svg">
<path d="M483.024 28.8889L483.153 276.866C483.168 292.81 470.222 305.755 454.264 305.769L29.0473 306C26.3949 306 23.8145 305.64 21.3782 304.962C9.13938 301.618 0.144046 290.431 0.129631 277.126L-0.000110029 29.1484C-0.0145256 13.2047 12.9163 0.245069 28.8888 0.245069L454.12 0.0144196C459.814 0.0144196 465.163 1.67221 469.631 4.55533C477.69 9.65845 483.024 18.6394 483.024 28.8889Z" fill="url(#paint0_linear_38_62)"/>
<path opacity="0.53" d="M365.525 306.209L59.6691 306.368C57.0166 306.368 54.4362 306.007 52 305.33L187.68 169.506C191.73 165.441 196.675 162.817 201.879 161.707C211.192 159.602 221.383 162.197 228.649 169.491L365.525 306.209Z" fill="url(#paint1_linear_38_62)"/>
<path opacity="0.53" d="M132.551 110.697L0.115212 243.278L-0.000110042 29.1628C-0.0145256 13.2047 12.9307 0.259486 28.8743 0.245071L62.9672 0.230652L132.537 69.7283C143.868 81.0157 143.882 99.3812 132.551 110.697Z" fill="url(#paint2_linear_38_62)"/>
<path opacity="0.53" d="M250.399 0.115341L208.81 41.762C197.508 53.0927 179.143 53.1071 167.841 41.7908L126.194 0.187418L250.399 0.115341Z" fill="url(#paint3_linear_38_62)"/>
<path opacity="0.53" d="M483.024 28.8889L483.139 250.356C475.369 250.659 467.484 247.862 461.544 241.908L285.602 66.1532C274.271 54.8514 274.257 36.4715 285.573 25.1552L310.627 0.0720769L454.106 0C459.8 0 465.148 1.6578 469.617 4.54092C477.69 9.65846 483.024 18.6394 483.024 28.8889Z" fill="url(#paint4_linear_38_62)"/>
<path d="M49.0562 129.524V131.96L45.582 131.816L47.6002 134.599L45.4235 135.896L43.708 132.768L41.9926 135.896L39.8591 134.599L41.834 131.816L38.4031 131.975V129.539L41.834 129.726L39.8446 126.901L41.9781 125.603L43.6936 128.731L45.4091 125.603L47.5858 126.901L45.5676 129.726L49.0562 129.524Z" fill="white"/>
<path d="M66.9173 129.51V131.946L63.4431 131.802L65.4613 134.584L63.2846 135.881L61.5691 132.753L59.8536 135.881L57.7201 134.584L59.6951 131.802L56.2642 131.96V129.524L59.6951 129.712L57.7057 126.886L59.8392 125.589L61.5547 128.717L63.2701 125.589L65.4469 126.886L63.4287 129.712L66.9173 129.51Z" fill="white"/>
<path d="M84.7924 129.51V131.946L81.3326 131.802L83.3508 134.584L81.1741 135.881L79.4586 132.753L77.7432 135.881L75.6097 134.584L77.5846 131.802L74.1537 131.96V129.524L77.5846 129.712L75.5952 126.886L77.7287 125.589L79.4442 128.717L81.1597 125.589L83.3364 126.886L81.3182 129.712L84.7924 129.51Z" fill="white"/>
<path d="M102.653 129.495V131.932L99.1792 131.787L101.197 134.57L99.0206 135.867L97.3052 132.739L95.5897 135.867L93.4562 134.57L95.4312 131.787L92.0002 131.946V129.51L95.4312 129.697L93.4418 126.872L95.5753 125.574L97.2908 128.703L99.0062 125.574L101.183 126.872L99.1648 129.697L102.653 129.495Z" fill="white"/>
<path d="M132.912 129.481V131.917L129.438 131.773L131.456 134.555L129.279 135.853L127.564 132.724L125.848 135.853L123.715 134.555L125.69 131.773L122.259 131.932V129.495L125.69 129.683L123.7 126.857L125.834 125.56L127.549 128.688L129.265 125.56L131.441 126.857L129.423 129.683L132.912 129.481Z" fill="white"/>
<path d="M150.787 129.467V131.903L147.313 131.759L149.331 134.541L147.155 135.838L145.439 132.71L143.724 135.838L141.59 134.541L143.565 131.759L140.134 131.917V129.481L143.565 129.668L141.576 126.843L143.709 125.545L145.425 128.674L147.14 125.545L149.317 126.843L147.299 129.668L150.787 129.467Z" fill="white"/>
<path d="M168.648 129.467V131.903L165.174 131.759L167.192 134.541L165.015 135.838L163.3 132.71L161.584 135.838L159.451 134.541L161.426 131.759L157.995 131.917V129.481L161.426 129.668L159.436 126.843L161.57 125.545L163.285 128.674L165.001 125.545L167.178 126.843L165.159 129.668L168.648 129.467Z" fill="white"/>
<path d="M186.524 129.452V131.888L183.064 131.744L185.082 134.526L182.905 135.824L181.19 132.696L179.474 135.824L177.341 134.526L179.316 131.744L175.885 131.903V129.467L179.316 129.654L177.326 126.829L179.46 125.531L181.175 128.659L182.891 125.531L185.068 126.829L183.049 129.654L186.524 129.452Z" fill="white"/>
<path d="M216.767 129.438V131.874L213.293 131.73L215.311 134.512L213.135 135.809L211.419 132.681L209.704 135.809L207.57 134.512L209.545 131.73L206.114 131.888V129.452L209.545 129.64L207.556 126.814L209.689 125.517L211.405 128.645L213.12 125.517L215.297 126.814L213.279 129.64L216.767 129.438Z" fill="white"/>
<path d="M234.643 129.423V131.86L231.169 131.715L233.187 134.498L231.01 135.795L229.295 132.667L227.579 135.795L225.446 134.498L227.421 131.715L223.99 131.874V129.438L227.421 129.625L225.431 126.8L227.565 125.502L229.28 128.63L230.996 125.502L233.172 126.8L231.154 129.625L234.643 129.423Z" fill="white"/>
<path d="M252.518 129.409V131.845L249.044 131.701L251.062 134.483L248.885 135.781L247.17 132.652L245.454 135.781L243.321 134.483L245.296 131.701L241.865 131.86V129.423L245.296 129.611L243.306 126.785L245.44 125.488L247.155 128.616L248.871 125.488L251.048 126.785L249.029 129.611L252.518 129.409Z" fill="white"/>
<path d="M270.379 129.409V131.845L266.919 131.701L268.938 134.483L266.761 135.781L265.045 132.652L263.33 135.781L261.196 134.483L263.171 131.701L259.74 131.86V129.423L263.171 129.611L261.182 126.785L263.315 125.488L265.031 128.616L266.746 125.488L268.923 126.785L266.905 129.611L270.379 129.409Z" fill="white"/>
<path d="M289.177 152.632V149.735L298.576 140.134C301.084 137.611 302.353 135.463 302.353 133.661C302.353 132.162 301.891 130.995 300.983 130.158C300.075 129.322 298.951 128.904 297.624 128.904C295.102 128.904 293.285 130.101 292.146 132.494L289.177 130.75C290.013 129.02 291.181 127.708 292.665 126.828C294.15 125.935 295.794 125.488 297.596 125.488C299.83 125.488 301.776 126.223 303.419 127.693C305.077 129.164 305.899 131.153 305.899 133.633C305.899 136.328 304.313 139.269 301.142 142.441L294.338 149.23H306.389V152.661L289.177 152.632Z" fill="white"/>
<path d="M322.391 136.876C324.423 137.251 326.095 138.13 327.393 139.5C328.69 140.869 329.339 142.614 329.339 144.718C329.339 147.313 328.445 149.36 326.672 150.859C324.899 152.359 322.737 153.108 320.2 153.108C318.167 153.108 316.365 152.647 314.794 151.724C313.222 150.802 312.098 149.461 311.435 147.702L314.404 145.944C315.197 148.409 317.129 149.634 320.2 149.634C321.843 149.634 323.198 149.202 324.236 148.337C325.274 147.472 325.793 146.261 325.793 144.718C325.793 143.176 325.274 141.95 324.236 141.086C323.198 140.206 321.843 139.774 320.2 139.774H319.291L317.879 137.597L324.048 129.25H312.199V125.935L328.2 125.92L328.186 129.034L322.391 136.876Z" fill="white"/>
<path d="M355.662 144.214V147.529H352.418V152.604H348.872V147.529H335.264V144.214L344.821 125.92H348.627L339.069 144.214H348.857V136.674H352.404V144.214H355.662Z" fill="white"/>
<path d="M369.587 136.328C372.11 136.328 374.229 137.064 375.973 138.548C377.718 140.033 378.583 142.08 378.583 144.704C378.583 147.299 377.689 149.346 375.916 150.845C374.142 152.344 371.98 153.094 369.443 153.094C367.41 153.094 365.594 152.604 363.994 151.623C362.394 150.643 361.269 149.23 360.635 147.371L363.648 145.655C364.008 146.953 364.686 147.933 365.709 148.61C366.733 149.288 367.973 149.62 369.443 149.62C371.115 149.62 372.485 149.187 373.523 148.322C374.561 147.457 375.08 146.246 375.08 144.704C375.08 143.161 374.561 141.936 373.508 141.071C372.47 140.192 371.13 139.759 369.501 139.759H361.961L362.913 125.92L377.545 125.906V129.221H366.156L365.695 136.314L369.587 136.328Z" fill="white"/>
<path d="M40.724 225.633C39.1671 225.633 37.8841 225.114 36.8606 224.091C35.8371 223.067 35.3325 221.798 35.3325 220.299C35.3325 218.8 35.8371 217.531 36.8462 216.508C37.8553 215.484 39.1527 214.965 40.7095 214.965C41.6466 214.965 42.5115 215.196 43.3044 215.643C44.0972 216.09 44.7027 216.695 45.1496 217.459L43.9531 218.151C43.6647 217.589 43.2179 217.128 42.6412 216.796C42.0646 216.465 41.4159 216.292 40.7095 216.292C39.5275 216.292 38.5616 216.681 37.812 217.445C37.0624 218.209 36.6876 219.16 36.6876 220.314C36.6876 221.453 37.0624 222.404 37.812 223.168C38.5616 223.932 39.5275 224.321 40.7095 224.307C41.4159 224.307 42.0646 224.134 42.6412 223.802C43.2323 223.471 43.6647 223.024 43.9531 222.462L45.1496 223.139C44.7171 223.903 44.1116 224.523 43.3188 224.97C42.5259 225.402 41.661 225.633 40.724 225.633Z" fill="white"/>
<path d="M52.6313 218.079H53.9143V225.431H52.6313V224.163C51.997 225.128 51.0744 225.619 49.8491 225.619C48.8256 225.619 47.9462 225.244 47.2111 224.494C46.4903 223.745 46.1299 222.836 46.1299 221.755C46.1299 220.674 46.4903 219.766 47.2111 219.016C47.9318 218.267 48.8112 217.892 49.8491 217.892C51.06 217.892 51.9826 218.368 52.6313 219.348V218.079ZM50.0077 224.379C50.7573 224.379 51.3772 224.134 51.8673 223.615C52.3718 223.11 52.6169 222.49 52.6169 221.741C52.6169 220.991 52.3718 220.371 51.8673 219.867C51.3627 219.362 50.7429 219.117 49.9933 219.117C49.2581 219.117 48.6382 219.377 48.1481 219.881C47.6435 220.386 47.3985 221.006 47.3985 221.755C47.3985 222.505 47.6435 223.125 48.1481 223.629C48.667 224.134 49.2725 224.393 50.0077 224.379Z" fill="white"/>
<path d="M57.1288 219.305C57.5469 218.396 58.3109 217.935 59.4209 217.935V219.276C58.801 219.247 58.2532 219.406 57.8064 219.78C57.3595 220.141 57.1288 220.732 57.1288 221.525V225.417H55.8458V218.065H57.1288V219.305Z" fill="white"/>
<path d="M66.3551 215.124H67.6381V225.417H66.3551V224.148C65.7208 225.114 64.7982 225.604 63.5729 225.604C62.5494 225.604 61.67 225.229 60.9348 224.48C60.214 223.73 59.8536 222.822 59.8536 221.741C59.8536 220.66 60.214 219.751 60.9348 219.002C61.6556 218.252 62.5349 217.877 63.5729 217.877C64.7838 217.877 65.7208 218.353 66.3551 219.333V215.124ZM63.7459 224.379C64.4955 224.379 65.1153 224.134 65.6055 223.615C66.11 223.11 66.3551 222.49 66.3551 221.741C66.3551 220.991 66.11 220.371 65.6055 219.867C65.1009 219.362 64.4811 219.117 63.7459 219.117C63.0107 219.117 62.3908 219.377 61.9007 219.881C61.3961 220.386 61.151 221.006 61.151 221.755C61.151 222.505 61.3961 223.125 61.9007 223.629C62.3908 224.134 63.0107 224.379 63.7459 224.379Z" fill="white"/>
<path d="M79.7469 215.124H81.102V225.417H79.7469V220.789H74.7447V225.417H73.3752V215.124H74.7447V219.492H79.7469V215.124Z" fill="white"/>
<path d="M89.3767 224.48C88.627 225.229 87.7044 225.604 86.6233 225.604C85.5421 225.604 84.6339 225.229 83.8843 224.494C83.1347 223.745 82.7599 222.836 82.7599 221.741C82.7599 220.66 83.1347 219.737 83.8843 218.987C84.6339 218.238 85.5421 217.877 86.6233 217.863C87.7044 217.863 88.6126 218.238 89.3767 218.973C90.1407 219.708 90.5155 220.631 90.5155 221.726C90.5011 222.822 90.1263 223.73 89.3767 224.48ZM86.6233 224.35C87.3585 224.35 87.9783 224.105 88.4685 223.6C88.973 223.096 89.2181 222.476 89.2181 221.741C89.2181 220.991 88.973 220.371 88.4685 219.881C87.9639 219.377 87.3441 219.132 86.6089 219.132C85.8881 219.132 85.2682 219.377 84.7637 219.881C84.2591 220.386 84.014 221.006 84.014 221.741C84.014 222.49 84.2591 223.11 84.7637 223.6C85.297 224.105 85.9025 224.35 86.6233 224.35Z" fill="white"/>
<path d="M92.0292 225.402V214.677H93.3122V225.402H92.0292Z" fill="white"/>
<path d="M101.342 215.11H102.625V225.402H101.342V224.134C100.707 225.1 99.7846 225.59 98.5593 225.59C97.5358 225.59 96.6565 225.215 95.9213 224.465C95.2005 223.716 94.8401 222.808 94.8257 221.726C94.8257 220.645 95.1861 219.737 95.9069 218.987C96.6276 218.238 97.507 217.863 98.5305 217.863C99.7414 217.863 100.678 218.353 101.313 219.319L101.342 215.11ZM98.7323 224.364C99.4819 224.364 100.102 224.119 100.592 223.6C101.096 223.096 101.342 222.476 101.342 221.726C101.342 220.977 101.096 220.357 100.592 219.852C100.087 219.348 99.4675 219.103 98.7323 219.103C97.9971 219.103 97.3772 219.362 96.8727 219.867C96.3682 220.371 96.1231 220.991 96.1231 221.741C96.1231 222.49 96.3682 223.11 96.8727 223.615C97.3772 224.105 97.9971 224.364 98.7323 224.364Z" fill="white"/>
<path d="M105.464 222.317C105.594 222.981 105.897 223.485 106.373 223.846C106.848 224.206 107.439 224.393 108.131 224.393C109.097 224.393 109.803 224.033 110.25 223.312L111.332 223.932C110.611 225.042 109.544 225.59 108.102 225.59C106.935 225.59 105.983 225.229 105.263 224.494C104.527 223.759 104.167 222.836 104.167 221.726C104.167 220.616 104.527 219.694 105.234 218.959C105.955 218.223 106.877 217.849 108.016 217.849C109.097 217.849 109.976 218.223 110.654 218.987C111.332 219.751 111.678 220.66 111.678 221.726C111.678 221.914 111.663 222.101 111.634 222.303L105.464 222.317ZM108.002 219.06C107.31 219.06 106.747 219.247 106.3 219.636C105.854 220.025 105.565 220.544 105.464 221.193H110.38C110.265 220.501 109.991 219.968 109.558 219.607C109.097 219.247 108.578 219.06 108.002 219.06Z" fill="white"/>
<path d="M114.402 219.276C114.82 218.368 115.584 217.906 116.694 217.906V219.247C116.06 219.218 115.527 219.391 115.08 219.751C114.633 220.112 114.402 220.703 114.402 221.496V225.388H113.119V218.036H114.402V219.276Z" fill="white"/>
<path d="M125.286 217.849C126.151 217.849 126.843 218.123 127.362 218.656C127.881 219.204 128.14 219.939 128.14 220.876V225.388H126.857V220.948C126.857 220.343 126.699 219.881 126.367 219.564C126.05 219.233 125.589 219.074 125.026 219.074C124.392 219.074 123.873 219.276 123.484 219.665C123.095 220.069 122.893 220.674 122.893 221.496V225.388H121.61V218.036H122.893L122.893 219.088C123.426 218.267 124.219 217.849 125.286 217.849Z" fill="white"/>
<path d="M135.997 218.036H137.28V225.388H135.997V224.119C135.362 225.085 134.44 225.575 133.214 225.575C132.191 225.575 131.312 225.201 130.576 224.451C129.856 223.701 129.495 222.793 129.481 221.712C129.481 220.631 129.841 219.723 130.562 218.973C131.283 218.223 132.162 217.849 133.186 217.849C134.396 217.849 135.333 218.324 135.968 219.305V218.036H135.997ZM133.387 224.336C134.137 224.336 134.757 224.076 135.247 223.572C135.751 223.067 135.997 222.447 135.997 221.698C135.997 220.948 135.751 220.328 135.247 219.824C134.742 219.319 134.123 219.074 133.387 219.074C132.652 219.074 132.032 219.319 131.528 219.838C131.023 220.343 130.778 220.962 130.778 221.712C130.778 222.462 131.023 223.081 131.528 223.586C132.032 224.091 132.652 224.336 133.387 224.336Z" fill="white"/>
<path d="M147.154 217.834C147.976 217.834 148.639 218.094 149.158 218.641C149.663 219.175 149.922 219.896 149.922 220.804V225.374H148.639V220.847C148.639 220.285 148.495 219.838 148.192 219.521C147.904 219.204 147.5 219.045 147.01 219.045C146.462 219.045 146.03 219.233 145.698 219.593C145.367 219.953 145.208 220.515 145.208 221.28V225.359H143.925V220.833C143.925 220.27 143.781 219.824 143.507 219.506C143.233 219.189 142.844 219.031 142.368 219.031C141.821 219.031 141.374 219.218 141.028 219.593C140.667 219.968 140.494 220.53 140.494 221.265V225.345H139.211V217.993H140.494L140.494 218.973C140.999 218.195 141.72 217.791 142.686 217.791C143.68 217.791 144.401 218.209 144.848 219.045C145.352 218.252 146.131 217.834 147.154 217.834Z" fill="white"/>
<path d="M152.589 222.289C152.719 222.952 153.022 223.456 153.497 223.817C153.973 224.177 154.564 224.364 155.256 224.364C156.222 224.364 156.928 224.004 157.375 223.283L158.456 223.903C157.736 225.013 156.669 225.561 155.227 225.561C154.06 225.561 153.108 225.201 152.387 224.465C151.652 223.73 151.292 222.808 151.292 221.698C151.292 220.588 151.652 219.665 152.359 218.93C153.079 218.195 154.002 217.834 155.141 217.82C156.222 217.82 157.101 218.195 157.779 218.959C158.456 219.723 158.802 220.631 158.802 221.698C158.802 221.885 158.788 222.072 158.759 222.274L152.589 222.289ZM155.141 219.031C154.449 219.031 153.887 219.218 153.44 219.607C152.993 219.997 152.704 220.515 152.604 221.164H157.519C157.404 220.472 157.13 219.939 156.698 219.578C156.236 219.218 155.717 219.031 155.141 219.031Z" fill="white"/>
<path d="M353.081 223.975H357.853V225.273H351.712V214.98H357.781V216.277H353.081V219.434H357.42V220.717H353.081V223.975Z" fill="white"/>
<path d="M365.753 225.258H364.253L362.192 222.476L360.131 225.258H358.631L361.442 221.467L358.79 217.906H360.303L362.192 220.458L364.095 217.906H365.594L362.942 221.467L365.753 225.258Z" fill="white"/>
<path d="M371 217.719C372.023 217.719 372.903 218.094 373.638 218.843C374.359 219.593 374.733 220.501 374.733 221.582C374.733 222.663 374.373 223.572 373.652 224.321C372.931 225.071 372.052 225.446 371.029 225.446C369.818 225.446 368.881 224.955 368.246 223.99V228.199H366.963V217.906H368.246V219.175C368.852 218.195 369.789 217.719 371 217.719ZM370.841 224.206C371.576 224.206 372.196 223.961 372.701 223.442C373.205 222.937 373.45 222.317 373.45 221.568C373.45 220.818 373.205 220.198 372.701 219.694C372.196 219.189 371.576 218.944 370.841 218.944C370.092 218.944 369.472 219.204 368.982 219.708C368.477 220.213 368.232 220.833 368.232 221.582C368.232 222.332 368.477 222.952 368.982 223.456C369.472 223.961 370.092 224.206 370.841 224.206Z" fill="white"/>
<path d="M376.896 216.566C376.651 216.566 376.449 216.479 376.276 216.321C376.103 216.148 376.031 215.96 376.031 215.715C376.031 215.47 376.117 215.283 376.276 215.11C376.449 214.937 376.651 214.85 376.896 214.85C377.126 214.85 377.328 214.937 377.501 215.11C377.674 215.283 377.746 215.484 377.746 215.715C377.746 215.946 377.66 216.148 377.501 216.321C377.328 216.479 377.126 216.566 376.896 216.566ZM376.247 225.244V217.892H377.53V225.244H376.247Z" fill="white"/>
<path d="M380.759 219.132C381.177 218.223 381.941 217.762 383.051 217.762V219.103C382.431 219.074 381.884 219.247 381.437 219.607C380.99 219.968 380.759 220.559 380.759 221.352V225.244H379.476V217.892H380.759V219.132Z" fill="white"/>
<path d="M389.596 217.892H390.965L387.967 225.705C387.65 226.541 387.217 227.175 386.655 227.608C386.093 228.04 385.444 228.242 384.709 228.185V226.988C385.603 227.06 386.266 226.556 386.684 225.489L386.828 225.215L383.613 217.892H384.983L387.434 223.528L389.596 217.892Z" fill="white"/>
<path d="M399.845 214.951C401.244 214.951 402.411 215.441 403.334 216.436C404.257 217.431 404.718 218.641 404.718 220.083C404.718 221.525 404.257 222.735 403.334 223.73C402.411 224.725 401.244 225.229 399.845 225.229H395.838V214.937L399.845 214.951ZM399.86 223.946C400.912 223.946 401.763 223.572 402.426 222.836C403.089 222.101 403.421 221.179 403.421 220.083C403.421 218.987 403.089 218.065 402.426 217.33C401.763 216.594 400.898 216.234 399.86 216.234H397.207V223.932L399.86 223.946Z" fill="white"/>
<path d="M412.344 217.877H413.627V225.229H412.344V223.961C411.71 224.927 410.787 225.417 409.562 225.417C408.538 225.417 407.659 225.042 406.924 224.292C406.203 223.543 405.842 222.635 405.842 221.553C405.842 220.472 406.203 219.564 406.924 218.814C407.644 218.065 408.524 217.69 409.562 217.69C410.773 217.69 411.695 218.166 412.344 219.146V217.877ZM409.735 224.191C410.484 224.191 411.104 223.932 411.594 223.427C412.099 222.923 412.344 222.303 412.344 221.553C412.344 220.804 412.099 220.184 411.594 219.679C411.09 219.175 410.47 218.93 409.72 218.93C408.985 218.93 408.365 219.175 407.875 219.694C407.37 220.198 407.125 220.818 407.125 221.568C407.125 222.317 407.37 222.937 407.875 223.442C408.38 223.946 408.999 224.191 409.735 224.191Z" fill="white"/>
<path d="M419.566 219.117H417.606V223.096C417.606 223.456 417.678 223.716 417.822 223.874C417.966 224.033 418.182 224.105 418.47 224.105C418.759 224.105 419.134 224.105 419.552 224.091V225.229C418.442 225.374 417.62 225.287 417.101 224.956C416.582 224.624 416.323 224.004 416.323 223.096V219.117H414.867V217.877H416.323V216.205L417.606 215.83L417.606 217.892H419.566V219.117Z" fill="white"/>
<path d="M421.613 222.144C421.743 222.808 422.046 223.312 422.521 223.673C422.997 224.033 423.588 224.22 424.28 224.22C425.246 224.22 425.952 223.86 426.399 223.139L427.48 223.759C426.759 224.869 425.693 225.417 424.251 225.417C423.083 225.417 422.132 225.056 421.411 224.321C420.676 223.586 420.316 222.663 420.316 221.553C420.316 220.443 420.676 219.521 421.382 218.786C422.103 218.05 423.026 217.69 424.165 217.676C425.246 217.676 426.125 218.05 426.803 218.814C427.48 219.578 427.826 220.487 427.826 221.553C427.826 221.741 427.812 221.928 427.783 222.13L421.613 222.144ZM424.15 218.887C423.458 218.887 422.896 219.074 422.449 219.463C422.002 219.852 421.714 220.371 421.613 221.02H426.529C426.413 220.328 426.14 219.795 425.707 219.434C425.246 219.074 424.741 218.887 424.15 218.887Z" fill="white"/>
<path d="M362.192 253.844C361.125 255.329 359.64 256.079 357.723 256.079C355.806 256.079 354.307 255.344 353.24 253.859C352.173 252.374 351.64 250.399 351.64 247.92C351.64 245.44 352.173 243.465 353.24 241.98C354.307 240.496 355.791 239.76 357.709 239.746C359.626 239.746 361.125 240.481 362.178 241.966C363.244 243.451 363.778 245.426 363.778 247.905C363.792 250.385 363.259 252.36 362.192 253.844ZM354.768 252.432C355.46 253.498 356.44 254.032 357.709 254.032C358.977 254.032 359.972 253.498 360.664 252.432C361.356 251.365 361.702 249.866 361.702 247.92C361.702 245.973 361.356 244.46 360.65 243.393C359.958 242.326 358.963 241.793 357.694 241.793C356.426 241.793 355.446 242.326 354.754 243.393C354.062 244.46 353.716 245.973 353.716 247.934C353.73 249.866 354.076 251.365 354.768 252.432Z" fill="white"/>
<path d="M365.32 255.776V254.061L370.87 248.395C372.355 246.91 373.09 245.642 373.09 244.575C373.09 243.696 372.816 243.004 372.283 242.514C371.749 242.024 371.086 241.778 370.308 241.778C368.823 241.778 367.742 242.485 367.079 243.898L365.32 242.86C365.81 241.836 366.502 241.072 367.381 240.539C368.261 240.02 369.227 239.746 370.293 239.746C371.605 239.746 372.758 240.178 373.739 241.043C374.719 241.908 375.195 243.076 375.209 244.546C375.209 246.132 374.272 247.876 372.398 249.75L368.391 253.758H375.512V255.776H365.32Z" fill="white"/>
<path d="M378.381 257.996L377.213 258.025L386.194 237.814L387.362 237.785L378.381 257.996Z" fill="white"/>
<path d="M395.319 246.478C396.516 246.709 397.51 247.213 398.274 248.035C399.038 248.842 399.428 249.866 399.428 251.12C399.428 252.648 398.909 253.859 397.856 254.738C396.804 255.617 395.535 256.064 394.036 256.064C392.84 256.064 391.773 255.79 390.85 255.243C389.928 254.695 389.265 253.902 388.875 252.879L390.634 251.841C391.095 253.297 392.234 254.017 394.051 254.017C395.031 254.017 395.824 253.758 396.429 253.253C397.035 252.749 397.352 252.028 397.352 251.12C397.352 250.212 397.049 249.491 396.429 248.972C395.809 248.453 395.016 248.193 394.051 248.193H393.517L392.681 246.91L396.328 241.98H389.337V240.02H398.779L398.764 241.851L395.319 246.478Z" fill="white"/>
<path d="M411.811 253.816C410.744 255.3 409.259 256.05 407.342 256.05C405.424 256.05 403.925 255.315 402.873 253.83C401.806 252.345 401.273 250.37 401.273 247.891C401.273 245.411 401.806 243.436 402.858 241.951C403.911 240.467 405.41 239.731 407.327 239.717C409.245 239.717 410.744 240.452 411.811 241.937C412.877 243.422 413.411 245.397 413.411 247.876C413.411 250.356 412.877 252.331 411.811 253.816ZM404.401 252.403C405.093 253.47 406.073 254.003 407.342 254.003C408.61 254.003 409.605 253.47 410.297 252.403C410.989 251.336 411.335 249.837 411.335 247.876C411.335 245.916 410.989 244.417 410.282 243.35C409.591 242.283 408.596 241.735 407.327 241.75C406.059 241.75 405.064 242.283 404.387 243.35C403.695 244.417 403.349 245.93 403.349 247.891C403.363 249.837 403.709 251.336 404.401 252.403Z" fill="white"/>
<path d="M405.785 82.3125C416.175 82.3125 424.597 73.8899 424.597 63.5001C424.597 53.1103 416.175 44.6877 405.785 44.6877C395.395 44.6877 386.972 53.1103 386.972 63.5001C386.972 73.8899 395.395 82.3125 405.785 82.3125Z" fill="white"/>
<path d="M430.882 82.2987C420.503 82.2987 412.07 73.8656 412.055 63.5007C412.041 53.1359 420.489 44.6884 430.853 44.674C441.233 44.674 449.666 53.1071 449.68 63.4719C449.695 73.8367 441.261 82.2843 430.882 82.2987ZM430.868 50.9448C423.948 50.9448 418.326 56.5812 418.326 63.4863C418.326 70.3914 423.963 76.0279 430.868 76.0279C437.787 76.0279 443.409 70.3914 443.409 63.4863C443.409 56.5524 437.787 50.9303 430.868 50.9448Z" fill="white"/>
<path d="M45.9507 253L41.7505 246.902V253H38.606V237.67H43.3228C45.2469 237.67 46.6956 238.075 47.6689 238.883C48.0508 239.183 48.354 239.55 48.5786 239.984C48.9829 240.74 49.1851 241.575 49.1851 242.488C49.1851 243.948 48.7209 245.109 47.7925 245.97C47.216 246.501 46.4673 246.883 45.5464 247.115L49.769 253H45.9507ZM41.7505 240.276V245.06H43.188C44.0041 245.06 44.6517 244.888 45.1309 244.543C45.7074 244.117 45.9956 243.488 45.9956 242.657C45.9956 241.96 45.786 241.395 45.3667 240.961C44.9325 240.504 44.2923 240.276 43.4463 240.276H41.7505ZM60.0225 243.712V242.365H62.9536V253H60.0225V251.54C59.0566 252.76 57.825 253.371 56.3276 253.371C54.703 253.371 53.3965 252.768 52.4082 251.562C51.5921 250.567 51.1841 249.316 51.1841 247.812C51.1841 246.688 51.4424 245.648 51.959 244.689C52.3932 243.881 53.0109 243.233 53.812 242.747C54.6206 242.252 55.5303 242.005 56.541 242.005C57.3721 242.005 58.1208 242.204 58.7871 242.601C59.1914 242.84 59.6032 243.211 60.0225 243.712ZM57.1475 244.476C56.2266 244.476 55.5078 244.832 54.9912 245.543C54.5345 246.179 54.3062 246.921 54.3062 247.767C54.3062 248.777 54.6169 249.593 55.2383 250.215C55.7699 250.746 56.3988 251.012 57.125 251.012C58.0085 251.012 58.7384 250.645 59.3149 249.912C59.8166 249.275 60.0674 248.53 60.0674 247.677C60.0674 246.831 59.8428 246.116 59.3936 245.532C58.847 244.828 58.0983 244.476 57.1475 244.476ZM69.7593 248.71L72.1064 242.365H75.105L71.2305 253H68.2095L64.3687 242.365H67.4009L69.7593 248.71ZM76.52 242.365H79.4512V253H76.52V242.365ZM78.0024 237.693C78.4891 237.693 78.8822 237.861 79.1816 238.198C79.4661 238.52 79.6084 238.902 79.6084 239.344C79.6084 239.838 79.425 240.246 79.0581 240.568C78.7811 240.815 78.4255 240.938 77.9912 240.938C77.4971 240.938 77.0965 240.774 76.7896 240.444C76.505 240.122 76.3628 239.748 76.3628 239.321C76.3628 238.805 76.5462 238.385 76.9131 238.063C77.1901 237.816 77.5532 237.693 78.0024 237.693ZM88.5254 248.519H91.5913C91.5913 248.923 91.64 249.227 91.7373 249.429C91.9095 249.766 92.1828 250.035 92.5571 250.237C92.909 250.417 93.2871 250.507 93.6914 250.507C94.2904 250.507 94.7957 250.331 95.2075 249.979C95.5444 249.672 95.7129 249.301 95.7129 248.867C95.7129 248.373 95.5033 247.969 95.084 247.654C94.777 247.43 94.1556 247.149 93.2197 246.812C91.7298 246.288 90.6405 245.723 89.9517 245.116C89.0907 244.368 88.6602 243.334 88.6602 242.017C88.6602 240.557 89.158 239.407 90.1538 238.569C91.0822 237.775 92.2764 237.378 93.7363 237.378C95.1439 237.378 96.3044 237.76 97.2178 238.524C98.2061 239.37 98.7676 240.549 98.9023 242.062H95.7129C95.6156 240.796 94.9492 240.164 93.7139 240.164C93.0775 240.164 92.5946 240.34 92.2651 240.691C91.9806 240.998 91.8384 241.358 91.8384 241.77C91.8384 242.398 92.1528 242.885 92.7817 243.229C93.1037 243.402 93.7026 243.649 94.5786 243.971C95.6792 244.368 96.4878 244.734 97.0044 245.071C98.3296 245.925 98.9922 247.115 98.9922 248.643C98.9922 250.26 98.3633 251.495 97.1055 252.349C96.1771 252.978 95.0465 253.292 93.7139 253.292C92.1865 253.292 90.9699 252.906 90.064 252.135C89.0233 251.267 88.5104 250.061 88.5254 248.519ZM109.392 243.712V242.365H112.323V253H109.392V251.54C108.426 252.76 107.194 253.371 105.697 253.371C104.072 253.371 102.766 252.768 101.777 251.562C100.961 250.567 100.553 249.316 100.553 247.812C100.553 246.688 100.812 245.648 101.328 244.689C101.762 243.881 102.38 243.233 103.181 242.747C103.99 242.252 104.899 242.005 105.91 242.005C106.741 242.005 107.49 242.204 108.156 242.601C108.561 242.84 108.972 243.211 109.392 243.712ZM106.517 244.476C105.596 244.476 104.877 244.832 104.36 245.543C103.904 246.179 103.675 246.921 103.675 247.767C103.675 248.777 103.986 249.593 104.607 250.215C105.139 250.746 105.768 251.012 106.494 251.012C107.378 251.012 108.108 250.645 108.684 249.912C109.186 249.275 109.437 248.53 109.437 247.677C109.437 246.831 109.212 246.116 108.763 245.532C108.216 244.828 107.467 244.476 106.517 244.476ZM115.22 253V242.365H118.151V243.915C118.398 243.241 118.709 242.773 119.083 242.511C119.548 242.166 120.117 241.994 120.791 241.994C120.918 241.994 121.038 241.998 121.15 242.005V244.993C120.888 244.97 120.686 244.959 120.543 244.959C119.682 244.959 119.027 245.281 118.578 245.925C118.376 246.232 118.252 246.55 118.208 246.879C118.17 247.194 118.151 247.523 118.151 247.868V253H115.22ZM131.021 243.544V237.67H133.953V253H131.021V251.607C130.61 252.176 130.187 252.581 129.752 252.82C129.094 253.187 128.326 253.371 127.45 253.371C125.803 253.371 124.485 252.805 123.497 251.675C122.621 250.672 122.183 249.373 122.183 247.778C122.183 245.951 122.752 244.51 123.89 243.454C124.931 242.481 126.136 241.994 127.506 241.994C128.18 241.994 128.835 242.125 129.472 242.387C129.966 242.597 130.482 242.982 131.021 243.544ZM128.191 244.454C127.188 244.454 126.413 244.88 125.867 245.734C125.485 246.325 125.294 247.01 125.294 247.789C125.294 248.777 125.586 249.567 126.17 250.159C126.716 250.728 127.383 251.012 128.169 251.012C129.052 251.012 129.771 250.653 130.325 249.934C130.789 249.32 131.021 248.598 131.021 247.767C131.021 246.808 130.756 246.018 130.224 245.397C129.693 244.768 129.015 244.454 128.191 244.454ZM136.85 237.67H139.781V243.499C140.627 242.496 141.589 241.994 142.667 241.994C143.311 241.994 143.929 242.155 144.521 242.477C145.217 242.851 145.681 243.357 145.913 243.993C146.093 244.457 146.183 245.12 146.183 245.981V253H143.251V246.396C143.251 245.708 143.061 245.187 142.679 244.835C142.424 244.588 142.087 244.465 141.668 244.465C141.174 244.465 140.74 244.641 140.365 244.993C140.118 245.232 139.953 245.494 139.871 245.779C139.811 246.033 139.781 246.329 139.781 246.666V253H136.85V237.67ZM157.166 243.712V242.365H160.097V253H157.166V251.54C156.2 252.76 154.969 253.371 153.471 253.371C151.847 253.371 150.54 252.768 149.552 251.562C148.736 250.567 148.328 249.316 148.328 247.812C148.328 246.688 148.586 245.648 149.103 244.689C149.537 243.881 150.154 243.233 150.956 242.747C151.764 242.252 152.674 242.005 153.685 242.005C154.516 242.005 155.264 242.204 155.931 242.601C156.335 242.84 156.747 243.211 157.166 243.712ZM154.291 244.476C153.37 244.476 152.651 244.832 152.135 245.543C151.678 246.179 151.45 246.921 151.45 247.767C151.45 248.777 151.76 249.593 152.382 250.215C152.913 250.746 153.542 251.012 154.269 251.012C155.152 251.012 155.882 250.645 156.458 249.912C156.96 249.275 157.211 248.53 157.211 247.677C157.211 246.831 156.986 246.116 156.537 245.532C155.991 244.828 155.242 244.476 154.291 244.476ZM162.995 253V242.365H165.926V243.915C166.173 243.241 166.484 242.773 166.858 242.511C167.322 242.166 167.891 241.994 168.565 241.994C168.692 241.994 168.812 241.998 168.924 242.005V244.993C168.662 244.97 168.46 244.959 168.318 244.959C167.457 244.959 166.802 245.281 166.353 245.925C166.15 246.232 166.027 246.55 165.982 246.879C165.944 247.194 165.926 247.523 165.926 247.868V253H162.995ZM178.796 243.712V242.365H181.727V253H178.796V251.54C177.83 252.76 176.598 253.371 175.101 253.371C173.476 253.371 172.17 252.768 171.182 251.562C170.366 250.567 169.958 249.316 169.958 247.812C169.958 246.688 170.216 245.648 170.732 244.689C171.167 243.881 171.784 243.233 172.585 242.747C173.394 242.252 174.304 242.005 175.314 242.005C176.146 242.005 176.894 242.204 177.561 242.601C177.965 242.84 178.377 243.211 178.796 243.712ZM175.921 244.476C175 244.476 174.281 244.832 173.765 245.543C173.308 246.179 173.08 246.921 173.08 247.767C173.08 248.777 173.39 249.593 174.012 250.215C174.543 250.746 175.172 251.012 175.898 251.012C176.782 251.012 177.512 250.645 178.088 249.912C178.59 249.275 178.841 248.53 178.841 247.677C178.841 246.831 178.616 246.116 178.167 245.532C177.62 244.828 176.872 244.476 175.921 244.476Z" fill="white"/>
<defs>
<linearGradient id="paint0_linear_38_62" x1="52.9537" y1="341.84" x2="430.203" y2="-35.8224" gradientUnits="userSpaceOnUse">
<stop stop-color="#00252E"/>
<stop offset="1" stop-color="#83F8A6"/>
</linearGradient>
<linearGradient id="paint1_linear_38_62" x1="51.9654" y1="233.73" x2="365.484" y2="233.558" gradientUnits="userSpaceOnUse">
<stop stop-color="#02CAFD"/>
<stop offset="1" stop-color="#83F8A6"/>
</linearGradient>
<linearGradient id="paint2_linear_38_62" x1="-56.4353" y1="186.788" x2="96.4816" y2="33.7041" gradientUnits="userSpaceOnUse">
<stop stop-color="#02CAFD"/>
<stop offset="1" stop-color="#83F8A6"/>
</linearGradient>
<linearGradient id="paint3_linear_38_62" x1="157.259" y1="31.2238" x2="219.332" y2="-30.9174" gradientUnits="userSpaceOnUse">
<stop stop-color="#02CAFD"/>
<stop offset="1" stop-color="#83F8A6"/>
</linearGradient>
<linearGradient id="paint4_linear_38_62" x1="752.169" y1="293.16" x2="213.201" y2="-25.4455" gradientUnits="userSpaceOnUse">
<stop stop-color="#02CAFD"/>
<stop offset="1" stop-color="#83F8A6"/>
</linearGradient>
</defs>
</svg>
