<svg width="483" height="307" viewBox="0 0 483 307" fill="none" xmlns="http://www.w3.org/2000/svg">
<path d="M7.86726 120.918C7.24615 132.7 6.62504 144.808 0.088623 155.877V152.212C4.96875 142.419 5.51592 131.809 6.07788 120.829C6.95038 104.121 7.85247 86.8343 25.554 72.634C29.6504 69.3398 33.7172 66.9805 37.7396 65.3335L37.7248 48.8777C37.7248 45.7468 40.2684 43.2094 43.3739 43.2094L79.7235 43.1797C82.829 43.1797 85.3726 45.7023 85.3726 48.8332L85.3874 65.6302C99.037 67.5741 112.287 67.485 126.395 56.1782C143.476 42.4972 144.304 26.353 145.191 9.3037C145.354 6.2915 145.517 3.24963 145.753 0.207764H147.557C147.291 3.21996 147.128 6.30634 146.966 9.39273C146.123 26.1156 145.221 43.4023 127.519 57.5878C113.027 69.2063 99.0222 69.3398 85.4022 67.4405V75.2455C85.4022 78.3616 82.8586 80.9138 79.7679 80.9138L43.4183 80.9435C40.298 80.9435 37.7544 78.3913 37.7544 75.29V67.2179C34.1017 68.8205 30.4194 71.0314 26.6779 74.0436C9.5827 87.7246 8.75455 103.839 7.86726 120.918Z" fill="url(#paint0_linear_41_537)"/>
<path d="M5.383 243.958C3.6232 243.646 1.89297 243.35 0.147949 243.083V241.272C1.99648 241.554 3.84502 241.881 5.67877 242.207C22.4635 245.101 38.3165 247.846 55.3822 234.15C72.4626 220.469 73.2908 204.339 74.1781 187.275C75.0506 170.567 75.9379 153.281 93.6395 139.08C111.341 124.88 128.333 127.818 144.777 130.667C161.562 133.56 177.415 136.32 194.481 122.639C211.546 108.958 212.389 92.8141 213.277 75.7648C214.149 59.0568 215.022 41.7701 232.738 27.5697C250.44 13.3842 267.431 16.3074 283.861 19.1564C300.646 22.0498 316.499 24.8098 333.564 11.1288C337.971 7.59725 341.284 3.91733 343.798 0.0890198H345.898C343.221 4.42183 339.598 8.59142 334.703 12.5384C317.002 26.7239 300.01 23.7711 283.565 20.9518C266.781 18.0286 250.928 15.2984 233.862 28.9794C216.781 42.6604 215.953 58.7897 215.066 75.8539C214.193 92.5619 213.306 109.849 195.605 124.049C177.903 138.234 160.926 135.311 144.482 132.462C127.697 129.539 111.829 126.809 94.7486 140.49C77.6681 154.171 76.84 170.3 75.9527 187.364C75.0802 204.072 74.2077 221.359 56.4913 235.559C38.8045 249.745 21.8128 246.807 5.383 243.958Z" fill="url(#paint1_linear_41_537)"/>
<path d="M372.073 47.4977L372.147 47.0377H381.745C383.046 47.0971 384.096 47.4977 384.451 48.8925L386.551 58.9678C384.495 53.6853 379.541 49.308 372.073 47.4977Z" fill="url(#paint2_linear_41_537)"/>
<path d="M386.802 60.4516L387.453 62.811L393.516 47.2603H400.067L390.322 69.9927H383.785L378.24 50.9996C382.218 53.5666 385.604 57.6175 386.802 60.4516Z" fill="url(#paint3_linear_41_537)"/>
<path d="M411.336 54.3382C411.365 49.9164 415.684 46.8003 421.791 46.8003C424.187 46.8003 426.124 47.3048 427.337 47.7648L426.494 52.6911L425.932 52.4389C424.778 51.9789 423.314 51.5486 421.288 51.5634C418.878 51.5634 417.739 52.5873 417.739 53.5369C417.724 54.5905 419.07 55.3027 421.229 56.3562C424.793 57.9884 426.449 59.9471 426.405 62.5587C426.376 67.2921 422.146 70.3488 415.654 70.3488C412.874 70.3191 410.212 69.7553 408.763 69.1321L409.635 64.0277L410.419 64.3838C412.445 65.2296 413.776 65.5857 416.246 65.5857C418.02 65.5857 419.928 64.8883 419.957 63.3599C419.972 62.3509 419.144 61.6387 416.748 60.5258C414.397 59.4426 411.306 57.6026 411.336 54.3382Z" fill="url(#paint4_linear_41_537)"/>
<path d="M426.021 69.9927L435.189 49.0854C435.84 47.6164 436.964 47.2009 438.443 47.2009H443.219L448.247 69.9779H442.495C442.495 69.9779 441.933 67.3663 441.741 66.5799H433.814C433.577 67.1734 432.513 69.9779 432.513 69.9779L426.021 69.9927Z" fill="url(#paint5_linear_41_537)"/>
<path d="M478.771 14.2003C481.048 18.3105 482.32 23.0588 482.32 28.089L482.349 61.0451C481.846 65.2889 481.625 69.5475 481.403 73.7616C480.516 90.8406 479.687 106.955 462.607 120.636C445.526 134.317 429.673 131.572 412.904 128.664C396.474 125.815 379.482 122.877 361.78 137.077C344.064 151.263 343.177 168.549 342.319 185.272C341.432 202.321 340.604 218.466 323.523 232.147C306.443 245.828 290.59 243.083 273.82 240.174C257.375 237.325 240.383 234.387 222.682 248.588C204.98 262.773 204.078 280.06 203.221 296.783C203.058 299.869 202.91 302.941 202.629 305.968L105.47 306.042C106.476 305.359 107.496 304.602 108.502 303.786C126.218 289.601 127.105 272.314 127.963 255.591C128.85 238.512 129.678 222.398 146.759 208.717C163.839 195.036 179.707 197.766 196.492 200.689C212.936 203.538 229.913 206.476 247.615 192.276C265.316 178.09 266.219 160.804 267.076 144.081C267.964 127.002 268.792 110.887 285.872 97.2063C302.953 83.5253 318.806 86.2555 335.576 89.1787C352.02 92.0128 369.012 94.9657 386.713 80.7653C392.644 76.0022 396.696 70.8978 399.476 65.5708L398.722 69.9927H404.903L408.778 47.2157H404.992C405.672 42.3487 405.923 37.4372 406.16 32.5702C406.737 21.1447 407.328 10.1494 412.77 0.0296326H410.789C405.524 10.4017 404.947 21.5601 404.385 32.4812C404.119 37.4966 403.868 42.4229 403.202 47.2157H402.596L400.718 58.2852C398.174 65.7489 393.738 72.8268 385.604 79.3557C368.524 93.0367 352.671 90.2916 335.901 87.3832C319.471 84.5343 302.479 81.5963 284.778 95.7966C267.062 109.982 266.174 127.269 265.316 143.992C264.429 161.041 263.601 177.185 246.521 190.866C229.44 204.547 213.587 201.802 196.817 198.894C180.373 196.045 163.381 193.107 145.679 207.307C127.978 221.507 127.031 238.809 126.174 255.517C125.286 272.596 124.458 288.711 107.378 302.392C105.647 303.772 103.947 305.003 102.217 306.042L28.571 306.101C18.1009 306.116 8.91733 300.522 3.85974 292.168C8.81381 301.026 18.2487 307.006 29.0738 306.991L454.133 306.68C470.09 306.665 483.015 293.667 483 277.671L482.822 28.9497C482.822 23.5485 481.358 18.5034 478.771 14.2003ZM482.512 276.78C482.527 292.791 469.587 305.775 453.645 305.79L259.357 305.923C259.446 305.834 259.549 305.76 259.667 305.671C276.748 291.99 292.616 294.72 309.4 297.643C325.845 300.492 342.822 303.43 360.523 289.23C378.225 275.044 379.127 257.758 379.985 241.035C380.872 223.956 381.7 207.841 398.781 194.16C415.861 180.479 431.714 183.21 448.484 186.133C459.561 188.032 470.859 189.991 482.453 186.741L482.512 276.78ZM482.438 184.931C471.199 188.24 460.196 186.326 448.765 184.367C432.335 181.518 415.344 178.58 397.642 192.78C379.926 206.966 379.038 224.253 378.181 240.975C377.293 258.025 376.465 274.169 359.385 287.85C342.304 301.531 326.451 298.786 309.681 295.878C293.237 293.029 276.245 290.091 258.543 304.291C257.863 304.825 257.198 305.389 256.577 305.953L204.448 305.997C204.699 302.955 204.862 299.928 205.01 296.901C205.897 279.822 206.725 263.708 223.806 250.027C240.886 236.346 256.739 239.076 273.539 241.999C289.983 244.848 306.96 247.786 324.662 233.586C342.363 219.4 343.265 202.114 344.123 185.391C345.01 168.312 345.839 152.197 362.919 138.516C380 124.835 395.853 127.566 412.623 130.489C429.067 133.323 446.059 136.276 463.76 122.075C477.292 111.229 480.989 98.5714 482.379 85.7659L482.438 184.931Z" fill="url(#paint6_linear_41_537)"/>
<path d="M145.753 0.222595C145.502 3.26447 145.339 6.2915 145.191 9.31853C144.304 26.3678 143.476 42.512 126.395 56.193C112.287 67.485 99.0371 67.5889 85.3875 65.6451L85.3727 48.848C85.3727 45.7171 82.8292 43.1946 79.7236 43.1946L43.374 43.2243C40.2537 43.2243 37.7101 45.7616 37.7249 48.8925L37.7397 65.3483C33.7173 67.0102 29.6505 69.3547 25.5542 72.6488C7.85259 86.8343 6.9505 104.121 6.078 120.829C5.51604 131.809 4.96887 142.419 0.0887423 152.212L1.2663e-05 29.3058C-0.0147756 13.3249 12.925 0.311626 28.8667 0.311626L145.753 0.222595Z" fill="url(#paint7_linear_41_537)"/>
<path d="M343.827 0.0741882C341.299 3.90249 338.001 7.58241 333.594 11.114C316.514 24.795 300.66 22.0498 283.891 19.1415C267.461 16.2926 250.469 13.3546 232.767 27.5549C215.051 41.7404 214.164 59.0271 213.306 75.75C212.419 92.7993 211.591 108.943 194.51 122.624C177.43 136.305 161.577 133.56 144.807 130.652C128.362 127.803 111.371 124.865 93.6689 139.065C75.9674 153.266 75.0653 170.538 74.2076 187.26C73.3203 204.339 72.4921 220.454 55.4117 234.135C38.3312 247.816 22.4782 245.086 5.70826 242.192C3.85972 241.866 2.01119 241.554 0.177439 241.257L0.118286 155.862C6.66949 144.793 7.2906 132.7 7.89692 120.903C8.78422 103.824 9.61236 87.7097 26.6928 74.0287C30.4343 71.0314 34.1165 68.8056 37.7692 67.2031V75.2752C37.7692 78.3912 40.3128 80.9286 43.4332 80.9286L79.7827 80.8989C82.8883 80.8989 85.4171 78.3467 85.4171 75.2307V67.4257C99.0223 69.325 113.042 69.1914 127.534 57.573C145.221 43.4023 146.123 26.1156 146.981 9.40754C147.143 6.32115 147.291 3.2496 147.572 0.222572L343.827 0.0741882Z" fill="url(#paint8_linear_41_537)"/>
<path d="M345.927 0.0741477C343.251 4.40696 339.628 8.57655 334.733 12.5236C317.031 26.7091 300.039 23.7562 283.595 20.9369C266.81 18.0138 250.957 15.2835 233.891 28.9645C216.811 42.6455 215.983 58.7748 215.095 75.839C214.223 92.547 213.336 109.834 195.634 124.034C177.932 138.22 160.956 135.296 144.511 132.447C127.726 129.524 111.858 126.794 94.778 140.475C77.6975 154.156 76.8694 170.285 75.9821 187.35C75.1096 204.058 74.2371 221.344 56.5207 235.545C38.8192 249.73 21.8274 246.807 5.39765 243.958C3.63784 243.646 1.90761 243.35 0.162598 243.083L0.192174 278.027C0.192174 282.998 1.44918 287.687 3.68221 291.782C3.75615 291.93 3.80051 292.049 3.90403 292.153C8.96162 300.507 18.1304 306.086 28.6152 306.086L102.261 306.027C103.976 304.988 105.677 303.757 107.422 302.377C124.502 288.696 125.331 272.566 126.218 255.502C127.09 238.794 127.978 221.507 145.679 207.307C163.381 193.107 180.373 196.045 196.817 198.894C213.602 201.787 229.455 204.547 246.521 190.866C263.586 177.185 264.429 161.041 265.316 143.992C266.189 127.284 267.061 109.997 284.778 95.7966C302.479 81.6111 319.471 84.5343 335.901 87.3832C352.686 90.2767 368.539 93.0367 385.604 79.3557C393.753 72.8268 398.189 65.7489 400.718 58.2852L402.596 47.2157H403.202C403.883 42.4229 404.134 37.4966 404.385 32.4812C404.947 21.5601 405.539 10.4017 410.789 0.0296326L345.927 0.0741477ZM372.147 47.0377H381.745C383.046 47.097 384.096 47.4977 384.451 48.8925L386.551 58.9677C384.48 53.7001 379.541 49.3228 372.073 47.5125L372.147 47.0377ZM390.322 69.9778H383.785L378.24 50.9847C382.218 53.5517 385.604 57.6174 386.802 60.4367L387.453 62.796L393.516 47.2454H400.067L390.322 69.9778Z" fill="url(#paint9_linear_41_537)"/>
<path d="M372.073 47.4977L372.147 47.0377H381.745C383.046 47.0971 384.096 47.4977 384.451 48.8925L386.551 58.9678C384.495 53.6853 379.541 49.308 372.073 47.4977Z" fill="url(#paint10_linear_41_537)"/>
<path d="M386.802 60.4516L387.453 62.811L393.516 47.2603H400.067L390.322 69.9927H383.785L378.24 50.9996C382.218 53.5666 385.604 57.6175 386.802 60.4516Z" fill="url(#paint11_linear_41_537)"/>
<path d="M478.77 14.2003C476.478 10.283 473.284 7.00372 469.454 4.55539C464.973 1.6619 459.634 0 453.926 0L412.77 0.0296768C407.328 10.1495 406.752 21.1447 406.16 32.5703C405.909 37.4373 405.672 42.3488 404.992 47.2158H408.778L404.903 69.9927H398.722L399.476 65.5709C396.71 70.8978 392.644 76.0023 386.713 80.7654C369.012 94.9509 352.02 91.998 335.576 89.1787C318.791 86.2556 302.938 83.5253 285.872 97.2063C268.792 110.887 267.964 127.017 267.076 144.081C266.204 160.789 265.316 178.076 247.615 192.276C229.913 206.461 212.936 203.538 196.492 200.689C179.707 197.766 163.839 195.036 146.759 208.717C129.678 222.398 128.85 238.527 127.963 255.591C127.09 272.299 126.218 289.586 108.502 303.786C107.496 304.603 106.476 305.344 105.47 306.042L202.629 305.968C202.895 302.955 203.058 299.869 203.22 296.783C204.093 280.075 204.98 262.788 222.682 248.588C240.383 234.402 257.375 237.325 273.82 240.174C290.604 243.068 306.457 245.828 323.523 232.147C340.589 218.466 341.432 202.321 342.319 185.272C343.192 168.564 344.064 151.277 361.78 137.077C379.482 122.892 396.474 125.815 412.903 128.664C429.688 131.557 445.541 134.317 462.607 120.636C479.687 106.955 480.515 90.8258 481.403 73.7617C481.61 69.5327 481.846 65.2741 482.349 61.0451L482.32 28.0891C482.32 23.0589 481.048 18.3106 478.77 14.2003ZM415.684 70.3488C412.903 70.3191 410.242 69.7553 408.792 69.1321L409.665 64.0277L410.449 64.3838C412.475 65.2296 413.806 65.5857 416.275 65.5857C418.05 65.5857 419.957 64.8883 419.987 63.3599C420.002 62.3509 419.174 61.6387 416.778 60.5258C414.412 59.4426 411.306 57.6175 411.351 54.353C411.38 49.9312 415.698 46.8151 421.806 46.8151C424.202 46.8151 426.139 47.3196 427.352 47.7796L426.509 52.706L425.947 52.4537C424.793 51.9937 423.329 51.5634 421.303 51.5783C418.893 51.5783 417.754 52.6021 417.754 53.5518C417.739 54.6053 419.085 55.3175 421.244 56.3711C424.808 58.0033 426.464 59.9619 426.42 62.5735C426.405 67.2773 422.176 70.334 415.684 70.3488ZM442.51 69.9779C442.51 69.9779 441.948 67.3663 441.755 66.5799H433.829C433.592 67.1734 432.528 69.9779 432.528 69.9779H426.021L435.189 49.0706C435.84 47.6016 436.964 47.1861 438.443 47.1861H443.219L448.247 69.963L442.51 69.9779Z" fill="url(#paint12_linear_41_537)"/>
<path d="M411.336 54.3382C411.365 49.9164 415.684 46.8003 421.791 46.8003C424.187 46.8003 426.124 47.3048 427.337 47.7648L426.494 52.6911L425.932 52.4389C424.778 51.9789 423.314 51.5486 421.288 51.5634C418.878 51.5634 417.739 52.5873 417.739 53.5369C417.724 54.5905 419.07 55.3027 421.229 56.3562C424.793 57.9884 426.449 59.9471 426.405 62.5587C426.376 67.2921 422.146 70.3488 415.654 70.3488C412.874 70.3191 410.212 69.7553 408.763 69.1321L409.635 64.0277L410.419 64.3838C412.445 65.2296 413.776 65.5857 416.246 65.5857C418.02 65.5857 419.928 64.8883 419.957 63.3599C419.972 62.3509 419.144 61.6387 416.748 60.5258C414.397 59.4426 411.306 57.6026 411.336 54.3382Z" fill="url(#paint13_linear_41_537)"/>
<path d="M426.021 69.9927L435.189 49.0854C435.84 47.6164 436.964 47.2009 438.443 47.2009H443.219L448.247 69.9779H442.495C442.495 69.9779 441.933 67.3663 441.741 66.5799H433.814C433.577 67.1734 432.513 69.9779 432.513 69.9779L426.021 69.9927Z" fill="url(#paint14_linear_41_537)"/>
<path d="M482.364 85.7363L482.438 184.931C471.199 188.24 460.196 186.326 448.765 184.367C432.335 181.518 415.343 178.58 397.642 192.78C379.925 206.966 379.038 224.253 378.18 240.976C377.293 258.025 376.465 274.169 359.385 287.85C342.304 301.531 326.451 298.786 309.681 295.878C293.237 293.029 276.245 290.091 258.543 304.291C257.863 304.825 257.198 305.389 256.576 305.953L204.448 305.997C204.699 302.955 204.862 299.928 205.01 296.901C205.897 279.822 206.725 263.708 223.806 250.027C240.886 236.346 256.739 239.076 273.539 241.999C289.983 244.848 306.96 247.786 324.662 233.586C342.363 219.4 343.265 202.114 344.123 185.391C345.01 168.312 345.838 152.197 362.919 138.516C379.999 124.835 395.852 127.566 412.622 130.489C429.067 133.323 446.059 136.276 463.76 122.075C477.277 111.199 480.974 98.5418 482.364 85.7363Z" fill="url(#paint15_linear_41_537)"/>
<path d="M478.771 14.2003C481.048 18.3105 482.32 23.0588 482.32 28.089L482.349 61.0451C481.846 65.2889 481.625 69.5475 481.403 73.7616C480.516 90.8406 479.687 106.955 462.607 120.636C445.526 134.317 429.673 131.572 412.904 128.664C396.474 125.815 379.482 122.877 361.78 137.077C344.064 151.263 343.177 168.549 342.319 185.272C341.432 202.321 340.604 218.466 323.523 232.147C306.443 245.828 290.59 243.083 273.82 240.174C257.375 237.325 240.383 234.387 222.682 248.588C204.98 262.773 204.078 280.06 203.221 296.783C203.058 299.869 202.91 302.941 202.629 305.968L105.47 306.042C106.476 305.359 107.496 304.602 108.502 303.786C126.218 289.601 127.105 272.314 127.963 255.591C128.85 238.512 129.678 222.398 146.759 208.717C163.839 195.036 179.707 197.766 196.492 200.689C212.936 203.538 229.913 206.476 247.615 192.276C265.316 178.09 266.219 160.804 267.076 144.081C267.964 127.002 268.792 110.887 285.872 97.2063C302.953 83.5253 318.806 86.2555 335.576 89.1787C352.02 92.0128 369.012 94.9657 386.713 80.7653C392.644 76.0022 396.696 70.8978 399.476 65.5708L398.722 69.9927H404.903L408.778 47.2157H404.992C405.672 42.3487 405.923 37.4372 406.16 32.5702C406.737 21.1447 407.328 10.1494 412.77 0.0296326H410.789C405.524 10.4017 404.947 21.5601 404.385 32.4812C404.119 37.4966 403.868 42.4229 403.202 47.2157H402.596L400.718 58.2852C398.174 65.7489 393.738 72.8268 385.604 79.3557C368.524 93.0367 352.671 90.2916 335.901 87.3832C319.471 84.5343 302.479 81.5963 284.778 95.7966C267.062 109.982 266.174 127.269 265.316 143.992C264.429 161.041 263.601 177.185 246.521 190.866C229.44 204.547 213.587 201.802 196.817 198.894C180.373 196.045 163.381 193.107 145.679 207.307C127.978 221.507 127.031 238.809 126.174 255.517C125.286 272.596 124.458 288.711 107.378 302.392C105.647 303.772 103.947 305.003 102.217 306.042L28.571 306.101C18.1009 306.116 8.91733 300.522 3.85974 292.168C8.81381 301.026 18.2487 307.006 29.0738 306.991L454.133 306.68C470.09 306.665 483.015 293.667 483 277.671L482.822 28.9497C482.822 23.5485 481.358 18.5034 478.771 14.2003ZM482.512 276.78C482.527 292.791 469.587 305.775 453.645 305.79L259.357 305.923C259.446 305.834 259.549 305.76 259.667 305.671C276.748 291.99 292.616 294.72 309.4 297.643C325.845 300.492 342.822 303.43 360.523 289.23C378.225 275.044 379.127 257.758 379.985 241.035C380.872 223.956 381.7 207.841 398.781 194.16C415.861 180.479 431.714 183.21 448.484 186.133C459.561 188.032 470.859 189.991 482.453 186.741L482.512 276.78ZM482.438 184.931C471.199 188.24 460.196 186.326 448.765 184.367C432.335 181.518 415.344 178.58 397.642 192.78C379.926 206.966 379.038 224.253 378.181 240.975C377.293 258.025 376.465 274.169 359.385 287.85C342.304 301.531 326.451 298.786 309.681 295.878C293.237 293.029 276.245 290.091 258.543 304.291C257.863 304.825 257.198 305.389 256.577 305.953L204.448 305.997C204.699 302.955 204.862 299.928 205.01 296.901C205.897 279.822 206.725 263.708 223.806 250.027C240.886 236.346 256.739 239.076 273.539 241.999C289.983 244.848 306.96 247.786 324.662 233.586C342.363 219.4 343.265 202.114 344.123 185.391C345.01 168.312 345.839 152.197 362.919 138.516C380 124.835 395.853 127.566 412.623 130.489C429.067 133.323 446.059 136.276 463.76 122.075C477.292 111.229 480.989 98.5714 482.379 85.7659L482.438 184.931Z" fill="url(#paint16_linear_41_537)"/>
<path d="M482.438 186.741L482.497 276.781C482.512 292.791 469.572 305.775 453.631 305.79L259.342 305.923C259.431 305.834 259.534 305.76 259.653 305.671C276.733 291.99 292.601 294.72 309.386 297.643C325.83 300.492 342.807 303.43 360.509 289.23C378.21 275.044 379.112 257.758 379.97 241.035C380.857 223.956 381.686 207.841 398.766 194.16C415.846 180.479 431.7 183.21 448.469 186.133C459.531 188.032 470.844 190.006 482.438 186.741Z" fill="url(#paint17_linear_41_537)"/>
<path d="M49.1536 130.495V132.944L45.6932 132.795L47.7192 135.585L45.5453 136.891L43.8298 133.76L42.1144 136.891L39.9849 135.585L41.9665 132.795L38.5356 132.959V130.51L41.9665 130.703L39.9849 127.869L42.1144 126.563L43.8298 129.694L45.5453 126.563L47.7192 127.869L45.708 130.703L49.1536 130.495Z" fill="white"/>
<path d="M67.0179 130.48V132.929L63.5574 132.78L65.5834 135.57L63.4095 136.876L61.6941 133.745L59.9787 136.876L57.8492 135.57L59.8308 132.78L56.3999 132.944V130.495L59.8308 130.688L57.8492 127.854L59.9787 126.548L61.6941 129.679L63.4095 126.548L65.5834 127.854L63.5722 130.688L67.0179 130.48Z" fill="white"/>
<path d="M84.8821 130.466V132.914L81.4217 132.766L83.4477 135.555L81.2738 136.861L79.5584 133.73L77.8429 136.861L75.7134 135.555L77.695 132.766L74.2642 132.929V130.481L77.695 130.673L75.7134 127.839L77.8429 126.534L79.5584 129.664L81.2738 126.534L83.4477 127.839L81.4365 130.673L84.8821 130.466Z" fill="white"/>
<path d="M102.746 130.451V132.899L99.2858 132.751L101.312 135.54L99.1379 136.846L97.4225 133.715L95.7071 136.846L93.5775 135.54L95.5592 132.751L92.1283 132.914V130.466L95.5592 130.659L93.5775 127.824L95.7071 126.519L97.4225 129.65L99.1379 126.519L101.312 127.824L99.3006 130.659L102.746 130.451Z" fill="white"/>
<path d="M132.988 130.421V132.87L129.528 132.721L131.554 135.511L129.38 136.817L127.665 133.686L125.949 136.817L123.82 135.511L125.801 132.721L122.37 132.884V130.436L125.801 130.629L123.82 127.795L125.949 126.489L127.665 129.62L129.38 126.489L131.554 127.795L129.543 130.629L132.988 130.421Z" fill="white"/>
<path d="M150.853 130.421V132.87L147.392 132.721L149.418 135.511L147.244 136.817L145.529 133.686L143.813 136.817L141.684 135.511L143.666 132.721L140.235 132.884V130.436L143.666 130.629L141.684 127.795L143.813 126.489L145.529 129.62L147.244 126.489L149.418 127.795L147.407 130.629L150.853 130.421Z" fill="white"/>
<path d="M168.717 130.406V132.855L165.242 132.691L167.268 135.481L165.094 136.787L163.378 133.656L161.663 136.787L159.533 135.481L161.515 132.691L158.084 132.855V130.406L161.515 130.599L159.533 127.765L161.663 126.459L163.378 129.59L165.094 126.459L167.268 127.765L165.257 130.599L168.717 130.406Z" fill="white"/>
<path d="M186.581 130.391V132.84L183.106 132.691L185.132 135.481L182.958 136.787L181.243 133.656L179.527 136.787L177.398 135.481L179.379 132.691L175.948 132.855V130.406L179.379 130.599L177.398 127.765L179.527 126.459L181.243 129.59L182.958 126.459L185.132 127.75L183.121 130.584L186.581 130.391Z" fill="white"/>
<path d="M216.823 130.362V132.81L213.363 132.662L215.389 135.451L213.215 136.757L211.499 133.626L209.784 136.757L207.654 135.451L209.636 132.662L206.205 132.825V130.377L209.636 130.57L207.654 127.735L209.784 126.43L211.499 129.561L213.215 126.43L215.389 127.735L213.378 130.57L216.823 130.362Z" fill="white"/>
<path d="M234.673 130.362V132.81L231.212 132.662L233.238 135.451L231.064 136.757L229.349 133.626L227.633 136.757L225.504 135.451L227.486 132.662L224.055 132.825V130.377L227.486 130.57L225.504 127.735L227.633 126.43L229.349 129.561L231.064 126.43L233.238 127.721L231.227 130.555L234.673 130.362Z" fill="white"/>
<path d="M252.537 130.347V132.795L249.076 132.647L251.102 135.437L248.929 136.742L247.213 133.611L245.498 136.742L243.368 135.437L245.35 132.647L241.919 132.81V130.362L245.35 130.555L243.368 127.721L245.498 126.415L247.213 129.546L248.929 126.415L251.102 127.721L249.091 130.555L252.537 130.347Z" fill="white"/>
<path d="M270.401 130.332V132.78L266.941 132.632L268.967 135.422L266.793 136.727L265.077 133.597L263.362 136.727L261.232 135.422L263.214 132.632L259.783 132.795V130.347L263.214 130.54L261.232 127.706L263.362 126.4L265.077 129.531L266.793 126.4L268.967 127.706L266.955 130.54L270.401 130.332Z" fill="white"/>
<path d="M289.197 153.628V150.72L298.602 141.075C301.116 138.553 302.373 136.386 302.373 134.576C302.373 133.077 301.915 131.905 300.998 131.059C300.081 130.213 298.972 129.798 297.641 129.798C295.127 129.798 293.293 131 292.155 133.389L289.182 131.638C290.01 129.902 291.179 128.596 292.657 127.706C294.136 126.815 295.792 126.37 297.582 126.355C299.815 126.355 301.752 127.097 303.408 128.566C305.065 130.05 305.893 132.024 305.893 134.531C305.893 137.232 304.311 140.185 301.146 143.375L294.343 150.171L306.396 150.156V153.599L289.197 153.628Z" fill="white"/>
<path d="M322.382 137.811C324.423 138.196 326.079 139.072 327.38 140.452C328.682 141.832 329.332 143.568 329.332 145.69C329.332 148.287 328.445 150.334 326.67 151.848C324.896 153.361 322.737 154.103 320.193 154.103C318.167 154.103 316.363 153.643 314.781 152.708C313.213 151.774 312.089 150.438 311.424 148.672L314.396 146.907C315.18 149.385 317.117 150.616 320.193 150.616C321.849 150.616 323.195 150.186 324.23 149.31C325.266 148.45 325.798 147.233 325.783 145.675C325.783 144.117 325.266 142.9 324.216 142.025C323.18 141.149 321.835 140.704 320.178 140.704H319.261L317.857 138.523L324.023 130.154L312.178 130.169V126.845L328.179 126.83L328.164 129.946L322.382 137.811Z" fill="white"/>
<path d="M355.641 145.171V148.494H352.402V153.584H348.868V148.494L335.277 148.509V145.185L344.83 126.83H348.646L339.092 145.185H348.882V137.618H352.417V145.185L355.641 145.171Z" fill="white"/>
<path d="M369.571 137.247C372.085 137.247 374.215 137.989 375.96 139.473C377.705 140.956 378.577 143.019 378.577 145.645C378.577 148.242 377.69 150.29 375.916 151.803C374.141 153.317 371.982 154.059 369.438 154.059C367.412 154.059 365.593 153.569 363.996 152.59C362.399 151.61 361.275 150.186 360.639 148.331L363.641 146.61C363.996 147.916 364.691 148.895 365.697 149.577C366.717 150.26 367.959 150.586 369.424 150.586C371.095 150.586 372.455 150.156 373.505 149.281C374.54 148.42 375.058 147.203 375.058 145.645C375.058 144.087 374.54 142.871 373.49 141.995C372.44 141.12 371.109 140.674 369.483 140.674H361.941L362.887 126.801L377.513 126.786V130.11L366.126 130.124L365.667 137.232L369.571 137.247Z" fill="white"/>
<path d="M40.8575 226.871C39.3048 226.871 38.0182 226.351 36.9978 225.328C35.9774 224.304 35.4746 223.028 35.4746 221.529C35.4746 220.03 35.9774 218.754 36.9978 217.73C38.0034 216.692 39.29 216.187 40.8575 216.187C41.804 216.187 42.6617 216.41 43.4455 216.87C44.2293 217.315 44.8504 217.923 45.294 218.695L44.111 219.392C43.8152 218.828 43.3715 218.368 42.7948 218.027C42.2181 217.686 41.5674 217.523 40.8575 217.523C39.6745 217.523 38.6985 217.908 37.959 218.68C37.2048 219.452 36.8351 220.401 36.8351 221.559C36.8351 222.701 37.2048 223.651 37.959 224.422C38.7132 225.194 39.6745 225.565 40.8575 225.565C41.5674 225.565 42.2033 225.402 42.7948 225.06C43.3715 224.719 43.8152 224.274 44.111 223.71L45.3088 224.393C44.88 225.164 44.2588 225.773 43.4751 226.233C42.6617 226.648 41.804 226.871 40.8575 226.871Z" fill="white"/>
<path d="M52.7474 219.303H54.0192V226.678H52.7474V225.417C52.1115 226.396 51.1799 226.871 49.9672 226.886C48.9321 226.886 48.0596 226.515 47.3349 225.758C46.6103 225.001 46.2406 224.096 46.2406 223.013C46.2406 221.93 46.5955 221.01 47.3201 220.268C48.0448 219.511 48.9173 219.14 49.9525 219.14C51.1651 219.14 52.0968 219.63 52.7327 220.594V219.303H52.7474ZM50.1447 225.624C50.8841 225.624 51.5052 225.372 52.008 224.868C52.5108 224.363 52.7622 223.74 52.7622 222.983C52.7622 222.241 52.5108 221.618 52.008 221.099C51.5052 220.594 50.8841 220.342 50.1447 220.342C49.4053 220.342 48.799 220.594 48.2962 221.099C47.7934 221.603 47.542 222.226 47.542 222.983C47.542 223.725 47.7934 224.348 48.2962 224.868C48.7842 225.372 49.4053 225.624 50.1447 225.624Z" fill="white"/>
<path d="M57.2427 220.535C57.6568 219.615 58.4258 219.17 59.5349 219.17V220.505C58.9138 220.475 58.3666 220.639 57.923 221.01C57.4794 221.38 57.2427 221.959 57.2427 222.76V226.663H55.9709V219.288H57.2427V220.535Z" fill="white"/>
<path d="M66.4707 216.35H67.7573V226.678H66.4855V225.417C65.8496 226.396 64.9179 226.871 63.7053 226.871C62.6701 226.871 61.7976 226.5 61.073 225.743C60.3483 224.986 59.9786 224.081 59.9786 222.998C59.9786 221.915 60.3336 220.995 61.0582 220.253C61.7828 219.496 62.6553 219.125 63.6905 219.125C64.9031 219.125 65.8348 219.615 66.4707 220.579V216.35ZM63.868 225.624C64.6074 225.624 65.2285 225.372 65.7313 224.868C66.2341 224.363 66.4855 223.74 66.4855 222.983C66.4855 222.241 66.2341 221.603 65.7313 221.099C65.2285 220.594 64.6074 220.342 63.868 220.342C63.1285 220.342 62.5222 220.594 62.0194 221.099C61.5166 221.603 61.2652 222.226 61.2652 222.983C61.2652 223.725 61.5166 224.348 62.0194 224.868C62.5074 225.372 63.1285 225.624 63.868 225.624Z" fill="white"/>
<path d="M79.8541 216.335H81.1998V226.663H79.8541V222.018H74.8556V226.663H73.4951V216.335H74.8556V220.713H79.8541V216.335Z" fill="white"/>
<path d="M89.4815 225.713C88.7273 226.455 87.8104 226.841 86.7308 226.841C85.6513 226.841 84.7344 226.47 83.995 225.728C83.2556 224.986 82.8711 224.066 82.8711 222.968C82.8711 221.87 83.2408 220.965 83.995 220.208C84.7492 219.466 85.6513 219.081 86.7308 219.081C87.8104 219.081 88.7273 219.452 89.4815 220.193C90.2357 220.935 90.6202 221.855 90.6202 222.953C90.6202 224.051 90.2357 224.971 89.4815 225.713ZM86.7456 225.595C87.485 225.595 88.0914 225.342 88.5942 224.838C89.097 224.333 89.3484 223.71 89.3484 222.968C89.3484 222.226 89.097 221.603 88.5942 221.099C88.0914 220.594 87.4702 220.342 86.7456 220.357C86.021 220.357 85.4147 220.609 84.9119 221.113C84.4091 221.618 84.1577 222.241 84.1577 222.983C84.1577 223.725 84.4091 224.348 84.9119 224.853C85.3999 225.342 86.021 225.595 86.7456 225.595Z" fill="white"/>
<path d="M92.1284 226.648V215.89H93.4002L93.415 226.648H92.1284Z" fill="white"/>
<path d="M101.445 216.321H102.717V226.648H101.445V225.387C100.809 226.366 99.8775 226.841 98.6649 226.856C97.6297 226.856 96.7572 226.485 96.0326 225.728C95.3079 224.971 94.9382 224.066 94.9382 222.983C94.9382 221.9 95.2932 220.98 96.0178 220.238C96.7424 219.496 97.6149 219.11 98.6501 219.11C99.8627 219.11 100.794 219.6 101.43 220.564L101.445 216.321ZM98.8275 225.595C99.567 225.595 100.188 225.342 100.691 224.838C101.194 224.333 101.445 223.71 101.445 222.953C101.445 222.211 101.194 221.573 100.691 221.069C100.188 220.564 99.567 220.312 98.8275 220.312C98.0881 220.312 97.4818 220.564 96.979 221.069C96.4762 221.573 96.2248 222.197 96.2248 222.953C96.2248 223.695 96.4762 224.318 96.979 224.838C97.4818 225.342 98.1029 225.595 98.8275 225.595Z" fill="white"/>
<path d="M105.556 223.532C105.689 224.185 105.985 224.704 106.458 225.06C106.932 225.416 107.523 225.609 108.218 225.609C109.194 225.609 109.889 225.253 110.333 224.526L111.427 225.149C110.717 226.262 109.638 226.811 108.189 226.811C107.02 226.811 106.074 226.44 105.349 225.713C104.625 224.986 104.255 224.051 104.255 222.938C104.255 221.826 104.61 220.906 105.32 220.164C106.029 219.422 106.961 219.051 108.1 219.051C109.179 219.051 110.052 219.437 110.732 220.193C111.412 220.95 111.753 221.87 111.753 222.938C111.753 223.131 111.738 223.309 111.708 223.517L105.556 223.532ZM108.1 220.282C107.42 220.282 106.843 220.475 106.399 220.861C105.956 221.247 105.675 221.766 105.556 222.419H110.466C110.362 221.722 110.081 221.188 109.638 220.831C109.194 220.46 108.691 220.282 108.1 220.282Z" fill="white"/>
<path d="M114.503 220.49C114.917 219.57 115.686 219.125 116.795 219.125V220.46C116.174 220.431 115.627 220.594 115.183 220.965C114.74 221.336 114.503 221.915 114.503 222.716V226.618H113.231V219.244H114.518V220.49H114.503Z" fill="white"/>
<path d="M125.372 219.066C126.23 219.066 126.925 219.333 127.443 219.882C127.96 220.431 128.227 221.173 128.227 222.108V226.633H126.94V222.182C126.94 221.588 126.777 221.113 126.452 220.787C126.127 220.461 125.683 220.297 125.121 220.297C124.485 220.297 123.968 220.505 123.583 220.891C123.184 221.291 122.992 221.9 122.992 222.731V226.633H121.705V219.259H122.977V220.327C123.524 219.481 124.308 219.066 125.372 219.066Z" fill="white"/>
<path d="M136.094 219.244H137.366V226.618H136.079V225.357C135.443 226.337 134.512 226.811 133.299 226.811C132.264 226.811 131.391 226.44 130.667 225.684C129.942 224.927 129.572 224.022 129.572 222.939C129.572 221.855 129.927 220.935 130.652 220.193C131.377 219.437 132.249 219.066 133.284 219.066C134.497 219.066 135.429 219.555 136.064 220.52L136.094 219.244ZM133.476 225.565C134.216 225.565 134.837 225.313 135.34 224.808C135.843 224.304 136.094 223.68 136.094 222.924C136.094 222.182 135.843 221.544 135.34 221.039C134.837 220.535 134.216 220.282 133.476 220.282C132.737 220.282 132.131 220.535 131.628 221.039C131.125 221.544 130.874 222.167 130.874 222.924C130.874 223.666 131.125 224.289 131.628 224.808C132.131 225.313 132.737 225.565 133.476 225.565Z" fill="white"/>
<path d="M147.244 219.036C148.072 219.036 148.738 219.303 149.241 219.837C149.743 220.371 150.01 221.099 150.01 222.019V226.604H148.738V222.063C148.738 221.499 148.59 221.054 148.294 220.742C147.998 220.431 147.614 220.268 147.126 220.268C146.579 220.268 146.135 220.46 145.81 220.817C145.484 221.188 145.322 221.751 145.322 222.508V226.604H144.035V222.063C144.035 221.499 143.902 221.054 143.621 220.742C143.34 220.431 142.956 220.268 142.482 220.268C141.95 220.268 141.492 220.46 141.137 220.831C140.782 221.202 140.604 221.766 140.604 222.508V226.604H139.318V219.229H140.59V220.223C141.092 219.437 141.817 219.036 142.778 219.036C143.769 219.036 144.494 219.451 144.937 220.282C145.44 219.466 146.209 219.051 147.244 219.036Z" fill="white"/>
<path d="M152.672 223.502C152.805 224.155 153.1 224.675 153.574 225.031C154.047 225.402 154.638 225.58 155.333 225.58C156.31 225.58 157.005 225.224 157.448 224.497L158.543 225.12C157.833 226.233 156.753 226.782 155.304 226.782C154.136 226.782 153.189 226.411 152.465 225.684C151.74 224.957 151.37 224.022 151.37 222.909C151.37 221.796 151.725 220.876 152.435 220.134C153.145 219.392 154.076 219.021 155.215 219.021C156.295 219.021 157.167 219.407 157.848 220.164C158.528 220.92 158.868 221.84 158.868 222.909C158.868 223.102 158.853 223.28 158.824 223.488L152.672 223.502ZM155.215 220.238C154.535 220.238 153.958 220.431 153.515 220.817C153.071 221.202 152.79 221.722 152.672 222.375H157.581C157.478 221.677 157.197 221.143 156.753 220.787C156.324 220.431 155.807 220.238 155.215 220.238Z" fill="white"/>
<path d="M353.082 225.164H357.859V226.455H351.722V216.128H357.785V217.433H353.082V220.609H357.415V221.885H353.082V225.164Z" fill="white"/>
<path d="M365.741 226.44H364.247L362.177 223.651L360.121 226.44H358.628L361.438 222.642L358.791 219.066H360.299L362.192 221.618L364.085 219.051H365.578L362.931 222.627L365.741 226.44Z" fill="white"/>
<path d="M370.991 218.888C372.026 218.888 372.899 219.259 373.623 220.015C374.348 220.772 374.718 221.692 374.718 222.76C374.718 223.844 374.363 224.764 373.638 225.506C372.913 226.262 372.041 226.633 371.006 226.633C369.793 226.633 368.861 226.144 368.225 225.179V229.393H366.954L366.939 219.066H368.225V220.327C368.847 219.362 369.778 218.888 370.991 218.888ZM370.828 225.402C371.568 225.402 372.174 225.149 372.677 224.645C373.18 224.14 373.431 223.517 373.431 222.76C373.431 222.018 373.18 221.38 372.677 220.876C372.174 220.371 371.553 220.119 370.828 220.119C370.089 220.119 369.468 220.371 368.965 220.876C368.462 221.38 368.211 222.004 368.211 222.76C368.211 223.502 368.462 224.126 368.965 224.645C369.468 225.149 370.089 225.402 370.828 225.402Z" fill="white"/>
<path d="M376.877 217.73C376.625 217.73 376.433 217.641 376.256 217.478C376.093 217.315 376.004 217.107 376.004 216.87C376.004 216.632 376.093 216.424 376.256 216.261C376.418 216.083 376.625 216.009 376.877 216.009C377.114 216.009 377.306 216.098 377.483 216.261C377.646 216.439 377.735 216.632 377.735 216.87C377.735 217.107 377.646 217.3 377.483 217.478C377.321 217.641 377.114 217.73 376.877 217.73ZM376.241 226.44V219.066H377.528V226.44H376.241Z" fill="white"/>
<path d="M380.737 220.297C381.151 219.377 381.92 218.932 383.029 218.932V220.268C382.408 220.238 381.86 220.401 381.417 220.772C380.973 221.143 380.737 221.722 380.737 222.523V226.426H379.465V219.051H380.751V220.297H380.737Z" fill="white"/>
<path d="M389.58 219.066H390.94L387.953 226.9C387.643 227.731 387.199 228.369 386.637 228.814C386.075 229.245 385.424 229.452 384.685 229.393V228.206C385.587 228.28 386.238 227.776 386.652 226.693L386.785 226.411L383.576 219.066H384.936L387.391 224.719L389.58 219.066Z" fill="white"/>
<path d="M399.828 216.098C401.233 216.098 402.386 216.602 403.318 217.597C404.25 218.591 404.708 219.808 404.708 221.262C404.708 222.701 404.25 223.933 403.318 224.927C402.386 225.921 401.233 226.425 399.828 226.425H395.82L395.806 216.098H399.828ZM399.828 225.12C400.878 225.12 401.736 224.749 402.401 224.007C403.067 223.265 403.392 222.345 403.392 221.247C403.392 220.149 403.052 219.229 402.386 218.487C401.721 217.745 400.863 217.389 399.813 217.389H397.166V225.12H399.828Z" fill="white"/>
<path d="M412.324 219.036H413.596V226.411H412.309V225.149C411.673 226.129 410.742 226.604 409.529 226.618C408.494 226.618 407.621 226.247 406.897 225.491C406.172 224.734 405.802 223.829 405.802 222.746C405.802 221.662 406.157 220.742 406.882 220C407.607 219.244 408.479 218.873 409.514 218.873C410.727 218.873 411.659 219.362 412.295 220.327L412.324 219.036ZM409.707 225.372C410.446 225.372 411.067 225.12 411.57 224.615C412.073 224.111 412.324 223.487 412.324 222.731C412.324 221.989 412.073 221.351 411.57 220.846C411.067 220.342 410.446 220.089 409.707 220.089C408.967 220.089 408.361 220.342 407.858 220.846C407.355 221.351 407.104 221.974 407.104 222.731C407.104 223.473 407.355 224.096 407.858 224.615C408.361 225.12 408.967 225.372 409.707 225.372Z" fill="white"/>
<path d="M419.526 220.282H417.574V224.274C417.574 224.645 417.648 224.897 417.781 225.046C417.929 225.194 418.136 225.283 418.432 225.283C418.728 225.283 419.083 225.283 419.526 225.253V226.411C418.402 226.559 417.589 226.47 417.071 226.144C416.554 225.817 416.288 225.194 416.288 224.274V220.282H414.838V219.051H416.288V217.374L417.559 216.988V219.051H419.512L419.526 220.282Z" fill="white"/>
<path d="M421.582 223.309C421.715 223.962 422.011 224.482 422.484 224.838C422.957 225.209 423.549 225.387 424.244 225.387C425.22 225.387 425.915 225.031 426.358 224.304L427.453 224.927C426.743 226.04 425.663 226.589 424.214 226.589C423.046 226.589 422.099 226.218 421.375 225.491C420.65 224.764 420.28 223.829 420.28 222.716C420.28 221.603 420.635 220.683 421.345 219.941C422.055 219.199 422.987 218.828 424.125 218.828C425.205 218.828 426.077 219.214 426.772 219.971C427.453 220.727 427.793 221.647 427.793 222.716C427.793 222.909 427.778 223.087 427.748 223.295L421.582 223.309ZM424.11 220.045C423.43 220.045 422.854 220.238 422.41 220.624C421.966 221.009 421.685 221.529 421.567 222.182H426.477C426.373 221.484 426.092 220.95 425.648 220.594C425.22 220.238 424.702 220.045 424.11 220.045Z" fill="white"/>
<path d="M362.192 255.123C361.127 256.607 359.633 257.349 357.726 257.364C355.803 257.364 354.31 256.622 353.245 255.138C352.18 253.654 351.648 251.666 351.648 249.188C351.648 246.71 352.18 244.721 353.245 243.237C354.31 241.754 355.803 240.997 357.711 240.997C359.633 240.997 361.112 241.739 362.177 243.223C363.242 244.706 363.774 246.695 363.774 249.173C363.789 251.651 363.256 253.639 362.192 255.123ZM354.768 253.713C355.463 254.782 356.439 255.316 357.711 255.316C358.983 255.316 359.973 254.782 360.669 253.713C361.364 252.645 361.719 251.131 361.704 249.173C361.689 247.214 361.349 245.701 360.654 244.632C359.959 243.564 358.968 243.015 357.696 243.015C356.424 243.015 355.433 243.549 354.753 244.617C354.058 245.686 353.718 247.199 353.718 249.173C353.733 251.131 354.088 252.645 354.768 253.713Z" fill="white"/>
<path d="M365.312 257.067V255.346L370.858 249.662C372.336 248.179 373.076 246.903 373.076 245.834C373.076 244.944 372.81 244.261 372.263 243.757C371.73 243.267 371.065 243.015 370.281 243.015C368.802 243.015 367.723 243.727 367.042 245.137L365.282 244.098C365.77 243.074 366.466 242.303 367.338 241.768C368.211 241.234 369.187 240.982 370.251 240.982C371.567 240.982 372.721 241.412 373.697 242.288C374.673 243.163 375.161 244.335 375.161 245.804C375.161 247.407 374.229 249.143 372.351 251.013L368.344 255.034H375.457V257.067H365.312Z" fill="white"/>
<path d="M378.385 259.278L377.217 259.307L386.193 239.038L387.361 239.008L378.385 259.278Z" fill="white"/>
<path d="M395.303 247.719C396.5 247.941 397.491 248.461 398.245 249.277C399.014 250.093 399.399 251.117 399.399 252.363C399.399 253.891 398.881 255.108 397.831 255.999C396.781 256.889 395.51 257.334 394.016 257.334C392.818 257.334 391.753 257.067 390.822 256.518C389.89 255.969 389.239 255.182 388.84 254.144L390.585 253.105C391.044 254.559 392.182 255.286 394.001 255.286C394.977 255.286 395.776 255.034 396.382 254.515C396.988 253.995 397.299 253.283 397.299 252.378C397.299 251.458 396.988 250.746 396.382 250.226C395.761 249.707 394.977 249.455 394.001 249.455H393.469L392.641 248.164L396.279 243.223H389.284V241.264H398.719L398.704 243.104L395.303 247.719Z" fill="white"/>
<path d="M411.792 255.093C410.727 256.577 409.233 257.334 407.326 257.334C405.403 257.334 403.91 256.592 402.845 255.108C401.78 253.624 401.248 251.636 401.248 249.158C401.248 246.68 401.78 244.692 402.845 243.208C403.91 241.724 405.403 240.982 407.311 240.967C409.233 240.967 410.712 241.709 411.777 243.193C412.842 244.677 413.374 246.665 413.374 249.143C413.374 251.621 412.856 253.595 411.792 255.093ZM404.383 253.669C405.078 254.737 406.054 255.271 407.326 255.271C408.597 255.271 409.588 254.737 410.283 253.669C410.978 252.6 411.333 251.087 411.333 249.143C411.333 247.184 410.978 245.671 410.283 244.603C409.588 243.534 408.597 242.985 407.326 243C406.054 243 405.063 243.534 404.383 244.603C403.688 245.671 403.348 247.184 403.348 249.158C403.348 251.102 403.688 252.6 404.383 253.669Z" fill="white"/>
<path d="M443.35 47.6823H438.573C437.08 47.6823 435.956 48.0978 435.32 49.5668L426.151 70.4741H432.658C432.658 70.4741 433.738 67.6696 433.959 67.0761H441.886C442.078 67.8625 442.64 70.4741 442.64 70.4741H448.393L443.35 47.6823ZM435.734 62.402C436.237 61.0962 438.159 56.0066 438.159 56.0066C438.159 56.0066 438.692 54.6712 439.002 53.8551L439.416 55.8137C439.416 55.8137 440.614 61.2446 440.851 62.402H435.734Z" fill="white"/>
<path d="M417.899 54.0182C417.885 55.0718 419.23 55.784 421.389 56.8375C424.953 58.4698 426.61 60.4284 426.565 63.04C426.536 67.7734 422.306 70.8301 415.814 70.8301C413.034 70.8005 410.372 70.2366 408.923 69.6134L409.795 64.509L410.579 64.8651C412.605 65.7109 413.936 66.067 416.406 66.067C418.18 66.067 420.088 65.3696 420.118 63.8413C420.132 62.8322 419.304 62.12 416.909 61.0071C414.542 59.9239 411.437 58.0988 411.481 54.8344C411.511 50.4125 415.829 47.2964 421.937 47.2964C424.332 47.2964 426.27 47.801 427.482 48.2609L426.639 53.1873L426.077 52.935C424.924 52.475 423.46 52.0447 421.434 52.0596C419.023 52.0447 417.899 53.0686 417.899 54.0182Z" fill="white"/>
<path d="M408.893 47.6971L405.034 70.474H398.852L399.606 66.0522L400.834 58.7814L402.697 47.712L408.893 47.6971Z" fill="white"/>
<path d="M386.681 59.4343C384.611 54.1667 379.672 49.7893 372.203 47.9791L372.277 47.5191H381.875C383.176 47.5784 384.226 47.9791 384.581 49.3739L386.681 59.4343Z" fill="white"/>
<path d="M400.198 47.7267L390.452 70.4592H383.916L378.37 51.466C382.348 54.0331 385.735 58.0988 386.933 60.9181L387.583 63.2774L393.647 47.7267H400.198Z" fill="white"/>
<path d="M85.5182 49.3144L85.533 75.7268C85.533 78.8428 82.9894 81.395 79.8987 81.395L43.5491 81.4247C40.4288 81.4247 37.8852 78.8725 37.8852 75.7713L37.8556 49.359C37.8556 46.2281 40.3992 43.6907 43.5047 43.6907L79.8691 43.661C82.9746 43.661 85.5182 46.1835 85.5182 49.3144Z" fill="#F6C859"/>
<path d="M56.2376 76.3796C56.0305 76.3796 55.8383 76.2758 55.7496 76.0829C55.6165 75.8158 55.72 75.4745 55.9862 75.3409C56.7847 74.9255 57.8643 74.1539 58.5002 72.8332C59.2987 71.1417 59.0917 69.3017 58.7516 69.1385C58.6628 69.094 58.3375 69.272 58.1305 69.3759C57.6129 69.643 56.8883 70.014 56.0601 69.7172C55.2468 69.4353 54.8475 68.7082 54.6552 68.3521C53.3982 66.0521 53.0137 60.0871 54.3299 57.1194C54.7735 56.1401 55.3651 55.5465 56.1045 55.3685C56.8587 55.1904 57.4798 55.502 57.9678 55.7691C58.3671 55.9768 58.5741 56.0659 58.7072 55.9917C59.2248 55.6801 59.21 53.7807 58.4854 52.2821C57.8495 50.9466 56.7699 50.175 55.9714 49.7744C55.7052 49.6408 55.5869 49.2996 55.7348 49.0325C55.8679 48.7654 56.208 48.6467 56.4742 48.795C57.4206 49.2847 58.722 50.2047 59.4762 51.8221C60.2304 53.4098 60.5853 56.1549 59.2692 56.9562C58.6037 57.3568 57.9678 57.0304 57.465 56.7781C57.0805 56.5852 56.7108 56.3923 56.3559 56.4813C55.8679 56.6 55.5425 57.1491 55.3355 57.5942C54.182 60.1909 54.5221 65.8295 55.6165 67.8475C55.8087 68.1888 56.0305 68.5598 56.415 68.6933C56.7847 68.8269 57.1397 68.6637 57.6277 68.4114C58.1157 68.1592 58.6481 67.8921 59.2248 68.1592C60.467 68.7675 60.3783 71.4236 59.491 73.3229C58.722 74.9403 57.4354 75.8603 56.489 76.3499C56.4002 76.3648 56.3115 76.3796 56.2376 76.3796Z" fill="#7D662D"/>
<path d="M54.5664 58.1136H44.6435C44.3329 58.1136 44.0963 57.8613 44.0963 57.5646C44.0963 57.2678 44.3329 57.0155 44.6287 57.0155H54.5516C54.8622 57.0155 55.0988 57.2678 55.0988 57.5646C55.1136 57.8613 54.877 58.1136 54.5664 58.1136Z" fill="#7D662D"/>
<path d="M54.5664 68.0849H44.6435C44.3329 68.0849 44.0963 67.8327 44.0963 67.5359C44.0963 67.2243 44.3477 66.9869 44.6435 66.9869H54.5664C54.877 66.9869 55.1136 67.2392 55.1136 67.5359C55.1284 67.8327 54.877 68.0849 54.5664 68.0849Z" fill="#7D662D"/>
<path d="M67.8165 76.3648C67.7277 76.3648 67.639 76.35 67.5651 76.3054C66.6186 75.8158 65.3173 74.8958 64.5631 73.2784C63.661 71.3791 63.587 68.723 64.8145 68.1147C65.3912 67.8327 65.9384 68.1146 66.4116 68.3521C66.9144 68.6043 67.2693 68.7675 67.6242 68.634C68.0383 68.4856 68.2749 68.0553 68.4228 67.7882C69.5171 65.7702 69.8425 60.1168 68.689 57.5349C68.4819 57.0897 68.1566 56.5259 67.6686 56.422C67.3728 56.3478 67.1806 56.051 67.2545 55.7543C67.3285 55.4575 67.6242 55.2794 67.92 55.3388C68.6594 55.5169 69.2509 56.0956 69.6946 57.0749C71.0255 60.0426 70.641 66.0224 69.384 68.3076C69.1918 68.6637 68.7925 69.3908 67.9791 69.6727C67.151 69.9695 66.4264 69.5985 65.9088 69.3314C65.7017 69.2275 65.3764 69.0643 65.2877 69.094C64.9623 69.2572 64.7405 71.0972 65.5539 72.7887C66.1898 74.1242 67.2693 74.8958 68.0679 75.2964C68.3341 75.43 68.4524 75.7713 68.3045 76.0384C68.2158 76.2609 68.0235 76.3648 67.8165 76.3648Z" fill="#7D662D"/>
<path d="M65.5985 55.8878C65.3619 55.8878 65.1549 55.7394 65.0809 55.5169C63.8979 51.9556 66.6633 49.2105 67.5506 48.7654C67.8168 48.617 68.1569 48.7357 68.29 49.0028C68.4231 49.2699 68.3196 49.6112 68.0534 49.7447C67.6541 49.9525 65.1105 52.1337 66.1161 55.1607C66.2196 55.4575 66.057 55.7691 65.7612 55.8581C65.7168 55.8878 65.6577 55.8878 65.5985 55.8878Z" fill="#7D662D"/>
<path d="M79.3959 58.0987H69.4729C69.1624 58.0987 68.9258 57.8465 68.9258 57.5497C68.9258 57.253 69.1772 57.0007 69.4729 57.0007H79.3959C79.7064 57.0007 79.943 57.253 79.943 57.5497C79.943 57.8465 79.6916 58.0987 79.3959 58.0987Z" fill="#7D662D"/>
<path d="M79.3959 68.0553H69.4729C69.1624 68.0553 68.9258 67.8031 68.9258 67.5063C68.9258 67.1947 69.1772 66.9573 69.4729 66.9573H79.3959C79.7064 66.9573 79.943 67.2095 79.943 67.5063C79.943 67.8179 79.7064 68.0553 79.3959 68.0553Z" fill="#7D662D"/>
<path d="M43.9507 257L39.7505 250.902V257H36.606V241.67H41.3228C43.2469 241.67 44.6956 242.075 45.6689 242.883C46.0508 243.183 46.354 243.55 46.5786 243.984C46.9829 244.74 47.1851 245.575 47.1851 246.488C47.1851 247.948 46.7209 249.109 45.7925 249.97C45.216 250.501 44.4673 250.883 43.5464 251.115L47.769 257H43.9507ZM39.7505 244.276V249.06H41.188C42.0041 249.06 42.6517 248.888 43.1309 248.543C43.7074 248.117 43.9956 247.488 43.9956 246.657C43.9956 245.96 43.786 245.395 43.3667 244.961C42.9325 244.504 42.2923 244.276 41.4463 244.276H39.7505ZM58.0225 247.712V246.365H60.9536V257H58.0225V255.54C57.0566 256.76 55.825 257.371 54.3276 257.371C52.703 257.371 51.3965 256.768 50.4082 255.562C49.5921 254.567 49.1841 253.316 49.1841 251.812C49.1841 250.688 49.4424 249.648 49.959 248.689C50.3932 247.881 51.0109 247.233 51.812 246.747C52.6206 246.252 53.5303 246.005 54.541 246.005C55.3721 246.005 56.1208 246.204 56.7871 246.601C57.1914 246.84 57.6032 247.211 58.0225 247.712ZM55.1475 248.476C54.2266 248.476 53.5078 248.832 52.9912 249.543C52.5345 250.179 52.3062 250.921 52.3062 251.767C52.3062 252.777 52.6169 253.593 53.2383 254.215C53.7699 254.746 54.3988 255.012 55.125 255.012C56.0085 255.012 56.7384 254.645 57.3149 253.912C57.8166 253.275 58.0674 252.53 58.0674 251.677C58.0674 250.831 57.8428 250.116 57.3936 249.532C56.847 248.828 56.0983 248.476 55.1475 248.476ZM67.7593 252.71L70.1064 246.365H73.105L69.2305 257H66.2095L62.3687 246.365H65.4009L67.7593 252.71ZM74.52 246.365H77.4512V257H74.52V246.365ZM76.0024 241.693C76.4891 241.693 76.8822 241.861 77.1816 242.198C77.4661 242.52 77.6084 242.902 77.6084 243.344C77.6084 243.838 77.425 244.246 77.0581 244.568C76.7811 244.815 76.4255 244.938 75.9912 244.938C75.4971 244.938 75.0965 244.774 74.7896 244.444C74.505 244.122 74.3628 243.748 74.3628 243.321C74.3628 242.805 74.5462 242.385 74.9131 242.063C75.1901 241.816 75.5532 241.693 76.0024 241.693ZM86.5254 252.519H89.5913C89.5913 252.923 89.64 253.227 89.7373 253.429C89.9095 253.766 90.1828 254.035 90.5571 254.237C90.909 254.417 91.2871 254.507 91.6914 254.507C92.2904 254.507 92.7957 254.331 93.2075 253.979C93.5444 253.672 93.7129 253.301 93.7129 252.867C93.7129 252.373 93.5033 251.969 93.084 251.654C92.777 251.43 92.1556 251.149 91.2197 250.812C89.7298 250.288 88.6405 249.723 87.9517 249.116C87.0907 248.368 86.6602 247.334 86.6602 246.017C86.6602 244.557 87.158 243.407 88.1538 242.569C89.0822 241.775 90.2764 241.378 91.7363 241.378C93.1439 241.378 94.3044 241.76 95.2178 242.524C96.2061 243.37 96.7676 244.549 96.9023 246.062H93.7129C93.6156 244.796 92.9492 244.164 91.7139 244.164C91.0775 244.164 90.5946 244.34 90.2651 244.691C89.9806 244.998 89.8384 245.358 89.8384 245.77C89.8384 246.398 90.1528 246.885 90.7817 247.229C91.1037 247.402 91.7026 247.649 92.5786 247.971C93.6792 248.368 94.4878 248.734 95.0044 249.071C96.3296 249.925 96.9922 251.115 96.9922 252.643C96.9922 254.26 96.3633 255.495 95.1055 256.349C94.1771 256.978 93.0465 257.292 91.7139 257.292C90.1865 257.292 88.9699 256.906 88.064 256.135C87.0233 255.267 86.5104 254.061 86.5254 252.519ZM107.392 247.712V246.365H110.323V257H107.392V255.54C106.426 256.76 105.194 257.371 103.697 257.371C102.072 257.371 100.766 256.768 99.7773 255.562C98.9613 254.567 98.5532 253.316 98.5532 251.812C98.5532 250.688 98.8115 249.648 99.3281 248.689C99.7624 247.881 100.38 247.233 101.181 246.747C101.99 246.252 102.899 246.005 103.91 246.005C104.741 246.005 105.49 246.204 106.156 246.601C106.561 246.84 106.972 247.211 107.392 247.712ZM104.517 248.476C103.596 248.476 102.877 248.832 102.36 249.543C101.904 250.179 101.675 250.921 101.675 251.767C101.675 252.777 101.986 253.593 102.607 254.215C103.139 254.746 103.768 255.012 104.494 255.012C105.378 255.012 106.108 254.645 106.684 253.912C107.186 253.275 107.437 252.53 107.437 251.677C107.437 250.831 107.212 250.116 106.763 249.532C106.216 248.828 105.467 248.476 104.517 248.476ZM113.22 257V246.365H116.151V247.915C116.398 247.241 116.709 246.773 117.083 246.511C117.548 246.166 118.117 245.994 118.791 245.994C118.918 245.994 119.038 245.998 119.15 246.005V248.993C118.888 248.97 118.686 248.959 118.543 248.959C117.682 248.959 117.027 249.281 116.578 249.925C116.376 250.232 116.252 250.55 116.208 250.879C116.17 251.194 116.151 251.523 116.151 251.868V257H113.22ZM129.021 247.544V241.67H131.953V257H129.021V255.607C128.61 256.176 128.187 256.581 127.752 256.82C127.094 257.187 126.326 257.371 125.45 257.371C123.803 257.371 122.485 256.805 121.497 255.675C120.621 254.672 120.183 253.373 120.183 251.778C120.183 249.951 120.752 248.51 121.89 247.454C122.931 246.481 124.136 245.994 125.506 245.994C126.18 245.994 126.835 246.125 127.472 246.387C127.966 246.597 128.482 246.982 129.021 247.544ZM126.191 248.454C125.188 248.454 124.413 248.88 123.867 249.734C123.485 250.325 123.294 251.01 123.294 251.789C123.294 252.777 123.586 253.567 124.17 254.159C124.716 254.728 125.383 255.012 126.169 255.012C127.052 255.012 127.771 254.653 128.325 253.934C128.789 253.32 129.021 252.598 129.021 251.767C129.021 250.808 128.756 250.018 128.224 249.397C127.693 248.768 127.015 248.454 126.191 248.454ZM134.85 241.67H137.781V247.499C138.627 246.496 139.589 245.994 140.667 245.994C141.311 245.994 141.929 246.155 142.521 246.477C143.217 246.851 143.681 247.357 143.913 247.993C144.093 248.457 144.183 249.12 144.183 249.981V257H141.251V250.396C141.251 249.708 141.061 249.187 140.679 248.835C140.424 248.588 140.087 248.465 139.668 248.465C139.174 248.465 138.74 248.641 138.365 248.993C138.118 249.232 137.953 249.494 137.871 249.779C137.811 250.033 137.781 250.329 137.781 250.666V257H134.85V241.67ZM155.166 247.712V246.365H158.097V257H155.166V255.54C154.2 256.76 152.969 257.371 151.471 257.371C149.847 257.371 148.54 256.768 147.552 255.562C146.736 254.567 146.328 253.316 146.328 251.812C146.328 250.688 146.586 249.648 147.103 248.689C147.537 247.881 148.154 247.233 148.956 246.747C149.764 246.252 150.674 246.005 151.685 246.005C152.516 246.005 153.264 246.204 153.931 246.601C154.335 246.84 154.747 247.211 155.166 247.712ZM152.291 248.476C151.37 248.476 150.651 248.832 150.135 249.543C149.678 250.179 149.45 250.921 149.45 251.767C149.45 252.777 149.76 253.593 150.382 254.215C150.913 254.746 151.542 255.012 152.269 255.012C153.152 255.012 153.882 254.645 154.458 253.912C154.96 253.275 155.211 252.53 155.211 251.677C155.211 250.831 154.986 250.116 154.537 249.532C153.991 248.828 153.242 248.476 152.291 248.476ZM160.995 257V246.365H163.926V247.915C164.173 247.241 164.484 246.773 164.858 246.511C165.322 246.166 165.891 245.994 166.565 245.994C166.692 245.994 166.812 245.998 166.924 246.005V248.993C166.662 248.97 166.46 248.959 166.318 248.959C165.457 248.959 164.802 249.281 164.353 249.925C164.15 250.232 164.027 250.55 163.982 250.879C163.944 251.194 163.926 251.523 163.926 251.868V257H160.995ZM176.796 247.712V246.365H179.727V257H176.796V255.54C175.83 256.76 174.598 257.371 173.101 257.371C171.476 257.371 170.17 256.768 169.182 255.562C168.366 254.567 167.958 253.316 167.958 251.812C167.958 250.688 168.216 249.648 168.732 248.689C169.167 247.881 169.784 247.233 170.585 246.747C171.394 246.252 172.304 246.005 173.314 246.005C174.146 246.005 174.894 246.204 175.561 246.601C175.965 246.84 176.377 247.211 176.796 247.712ZM173.921 248.476C173 248.476 172.281 248.832 171.765 249.543C171.308 250.179 171.08 250.921 171.08 251.767C171.08 252.777 171.39 253.593 172.012 254.215C172.543 254.746 173.172 255.012 173.898 255.012C174.782 255.012 175.512 254.645 176.088 253.912C176.59 253.275 176.841 252.53 176.841 251.677C176.841 250.831 176.616 250.116 176.167 249.532C175.62 248.828 174.872 248.476 173.921 248.476Z" fill="white"/>
<defs>
<linearGradient id="paint0_linear_41_537" x1="32.7663" y1="178.194" x2="85.4804" y2="42.9182" gradientUnits="userSpaceOnUse">
<stop stop-color="#885DF5"/>
<stop offset="0.9944" stop-color="#6B7CFE"/>
</linearGradient>
<linearGradient id="paint1_linear_41_537" x1="103.498" y1="300.345" x2="196.93" y2="60.5772" gradientUnits="userSpaceOnUse">
<stop stop-color="#885DF5"/>
<stop offset="0.9944" stop-color="#6B7CFE"/>
</linearGradient>
<linearGradient id="paint2_linear_41_537" x1="378.132" y1="56.1369" x2="380.688" y2="49.579" gradientUnits="userSpaceOnUse">
<stop stop-color="#885DF5"/>
<stop offset="0.9944" stop-color="#6B7CFE"/>
</linearGradient>
<linearGradient id="paint3_linear_41_537" x1="380.99" y1="70.2084" x2="388.185" y2="51.7454" gradientUnits="userSpaceOnUse">
<stop stop-color="#885DF5"/>
<stop offset="0.9944" stop-color="#6B7CFE"/>
</linearGradient>
<linearGradient id="paint4_linear_41_537" x1="413.562" y1="72.2794" x2="420.636" y2="54.1274" gradientUnits="userSpaceOnUse">
<stop stop-color="#885DF5"/>
<stop offset="0.9944" stop-color="#6B7CFE"/>
</linearGradient>
<linearGradient id="paint5_linear_41_537" x1="435.23" y1="74.9126" x2="442.528" y2="56.1845" gradientUnits="userSpaceOnUse">
<stop stop-color="#885DF5"/>
<stop offset="0.9944" stop-color="#6B7CFE"/>
</linearGradient>
<linearGradient id="paint6_linear_41_537" x1="201.02" y1="397.266" x2="317.309" y2="98.8427" gradientUnits="userSpaceOnUse">
<stop stop-color="#885DF5"/>
<stop offset="0.9944" stop-color="#6B7CFE"/>
</linearGradient>
<linearGradient id="paint7_linear_41_537" x1="0.0335868" y1="76.2676" x2="145.814" y2="76.1632" gradientUnits="userSpaceOnUse">
<stop stop-color="#4D338A"/>
<stop offset="0.9888" stop-color="#252857"/>
</linearGradient>
<linearGradient id="paint8_linear_41_537" x1="0.0666419" y1="122.453" x2="343.921" y2="122.207" gradientUnits="userSpaceOnUse">
<stop stop-color="#6947BD"/>
<stop offset="0.9888" stop-color="#252857"/>
</linearGradient>
<linearGradient id="paint9_linear_41_537" x1="0.0886327" y1="153.223" x2="410.887" y2="152.929" gradientUnits="userSpaceOnUse">
<stop stop-color="#885DF5"/>
<stop offset="0.9888" stop-color="#2E3670"/>
</linearGradient>
<linearGradient id="paint10_linear_41_537" x1="378.132" y1="56.1369" x2="380.688" y2="49.579" gradientUnits="userSpaceOnUse">
<stop stop-color="#885DF5"/>
<stop offset="0.9944" stop-color="#6B7CFE"/>
</linearGradient>
<linearGradient id="paint11_linear_41_537" x1="380.99" y1="70.2084" x2="388.185" y2="51.7454" gradientUnits="userSpaceOnUse">
<stop stop-color="#885DF5"/>
<stop offset="0.9944" stop-color="#6B7CFE"/>
</linearGradient>
<linearGradient id="paint12_linear_41_537" x1="105.358" y1="153.147" x2="482.416" y2="152.877" gradientUnits="userSpaceOnUse">
<stop stop-color="#885DF5"/>
<stop offset="0.9944" stop-color="#4551A6"/>
</linearGradient>
<linearGradient id="paint13_linear_41_537" x1="413.562" y1="72.2794" x2="420.636" y2="54.1274" gradientUnits="userSpaceOnUse">
<stop stop-color="#885DF5"/>
<stop offset="0.9944" stop-color="#6B7CFE"/>
</linearGradient>
<linearGradient id="paint14_linear_41_537" x1="435.23" y1="74.9126" x2="442.528" y2="56.1845" gradientUnits="userSpaceOnUse">
<stop stop-color="#885DF5"/>
<stop offset="0.9944" stop-color="#6B7CFE"/>
</linearGradient>
<linearGradient id="paint15_linear_41_537" x1="204.354" y1="195.952" x2="482.447" y2="195.753" gradientUnits="userSpaceOnUse">
<stop stop-color="#885DF5"/>
<stop offset="0.9944" stop-color="#5C6BDB"/>
</linearGradient>
<linearGradient id="paint16_linear_41_537" x1="201.02" y1="397.266" x2="317.309" y2="98.8427" gradientUnits="userSpaceOnUse">
<stop stop-color="#885DF5"/>
<stop offset="0.9944" stop-color="#6B7CFE"/>
</linearGradient>
<linearGradient id="paint17_linear_41_537" x1="259.299" y1="244.905" x2="482.482" y2="244.745" gradientUnits="userSpaceOnUse">
<stop stop-color="#885DF5"/>
<stop offset="0.9944" stop-color="#6B7CFE"/>
</linearGradient>
</defs>
</svg>
