<svg width="484" height="306" viewBox="0 0 484 306" fill="none" xmlns="http://www.w3.org/2000/svg">
<path d="M483.15 28.9016V276.935C483.15 292.891 470.204 305.837 454.248 305.837H28.9016C12.9461 305.851 0 292.905 0 276.95V28.9016C0 12.9461 12.9461 0 28.9016 0H454.248C459.955 0 465.292 1.66084 469.778 4.54248C477.841 9.65278 483.15 18.6526 483.15 28.9016Z" fill="url(#paint0_linear_41_658)"/>
<path d="M48.9592 129.361V131.803L45.4956 131.647L47.5113 134.429L45.3394 135.721L43.6218 132.598L41.9042 135.721L39.7749 134.429L41.7622 131.647L38.327 131.803V129.361L41.7622 129.546L39.7749 126.721L41.9042 125.429L43.6218 128.552L45.3394 125.429L47.5113 126.721L45.4956 129.546L48.9592 129.361Z" fill="white"/>
<path d="M66.8312 129.361V131.803L63.3676 131.647L65.3833 134.429L63.2114 135.721L61.4938 132.598L59.7762 135.721L57.6469 134.429L59.6342 131.647L56.199 131.803V129.361L59.6342 129.546L57.6469 126.721L59.7762 125.429L61.4938 128.552L63.2114 125.429L65.3833 126.721L63.3676 129.546L66.8312 129.361Z" fill="white"/>
<path d="M84.7031 129.361V131.803L81.2395 131.647L83.2552 134.429L81.0833 135.721L79.3657 132.598L77.6481 135.721L75.5188 134.429L77.5061 131.647L74.0709 131.803V129.361L77.5061 129.546L75.5188 126.721L77.6481 125.429L79.3657 128.552L81.0833 125.429L83.2552 126.721L81.2395 129.546L84.7031 129.361Z" fill="white"/>
<path d="M102.575 129.361V131.803L99.1113 131.647L101.127 134.429L98.9552 135.721L97.2375 132.598L95.5199 135.721L93.3906 134.429L95.378 131.647L91.9427 131.803V129.361L95.378 129.546L93.3906 126.721L95.5199 125.429L97.2375 128.552L98.9552 125.429L101.127 126.721L99.1113 129.546L102.575 129.361Z" fill="white"/>
<path d="M132.839 129.361V131.803L129.375 131.647L131.391 134.429L129.219 135.721L127.502 132.598L125.784 135.721L123.655 134.429L125.642 131.647L122.207 131.803V129.361L125.642 129.546L123.655 126.721L125.784 125.429L127.502 128.552L129.219 125.429L131.391 126.721L129.375 129.546L132.839 129.361Z" fill="white"/>
<path d="M150.711 129.361V131.803L147.247 131.647L149.263 134.429L147.091 135.721L145.374 132.598L143.656 135.721L141.527 134.429L143.514 131.647L140.079 131.803V129.361L143.514 129.546L141.527 126.721L143.656 125.429L145.374 128.552L147.091 125.429L149.263 126.721L147.247 129.546L150.711 129.361Z" fill="white"/>
<path d="M168.597 129.361V131.803L165.133 131.647L167.149 134.429L164.977 135.721L163.259 132.598L161.542 135.721L159.413 134.429L161.4 131.647L157.965 131.803V129.361L161.4 129.546L159.413 126.721L161.542 125.429L163.259 128.552L164.977 125.429L167.149 126.721L165.133 129.546L168.597 129.361Z" fill="white"/>
<path d="M186.469 129.361V131.803L183.005 131.647L185.021 134.429L182.849 135.721L181.131 132.598L179.414 135.721L177.284 134.429L179.272 131.647L175.837 131.803V129.361L179.272 129.546L177.284 126.721L179.414 125.429L181.131 128.552L182.849 125.429L185.021 126.721L183.005 129.546L186.469 129.361Z" fill="white"/>
<path d="M216.733 129.361V131.803L213.27 131.647L215.285 134.429L213.114 135.721L211.396 132.598L209.678 135.721L207.549 134.429L209.536 131.647L206.101 131.803V129.361L209.536 129.546L207.549 126.721L209.678 125.429L211.396 128.552L213.114 125.429L215.285 126.721L213.27 129.546L216.733 129.361Z" fill="white"/>
<path d="M234.605 129.361V131.803L231.142 131.647L233.157 134.429L230.985 135.721L229.268 132.598L227.55 135.721L225.421 134.429L227.408 131.647L223.973 131.803V129.361L227.408 129.546L225.421 126.721L227.55 125.429L229.268 128.552L230.985 125.429L233.157 126.721L231.142 129.546L234.605 129.361Z" fill="white"/>
<path d="M252.477 129.361V131.803L249.013 131.647L251.029 134.429L248.857 135.721L247.139 132.598L245.422 135.721L243.292 134.429L245.28 131.647L241.844 131.803V129.361L245.28 129.546L243.292 126.721L245.422 125.429L247.139 128.552L248.857 125.429L251.029 126.721L249.013 129.546L252.477 129.361Z" fill="white"/>
<path d="M270.349 129.361V131.803L266.885 131.647L268.901 134.429L266.729 135.721L265.011 132.598L263.293 135.721L261.164 134.429L263.152 131.647L259.716 131.803V129.361L263.152 129.546L261.164 126.721L263.293 125.429L265.011 128.552L266.729 125.429L268.901 126.721L266.885 129.546L270.349 129.361Z" fill="white"/>
<path d="M289.143 152.613V149.717L298.555 140.107C301.067 137.595 302.331 135.437 302.331 133.634C302.331 132.13 301.877 130.966 300.954 130.128C300.045 129.291 298.924 128.865 297.604 128.865C295.091 128.865 293.26 130.057 292.11 132.442L289.143 130.696C289.981 128.964 291.145 127.658 292.635 126.764C294.126 125.869 295.773 125.429 297.575 125.429C299.804 125.429 301.749 126.168 303.41 127.644C305.056 129.12 305.894 131.093 305.894 133.592C305.894 136.289 304.304 139.227 301.138 142.407L294.339 149.192H306.405V152.628H289.143V152.613Z" fill="white"/>
<path d="M322.36 136.857C324.39 137.24 326.065 138.12 327.357 139.497C328.649 140.874 329.302 142.606 329.302 144.721C329.302 147.318 328.407 149.363 326.633 150.853C324.859 152.358 322.701 153.096 320.16 153.096C318.13 153.096 316.327 152.627 314.752 151.705C313.176 150.782 312.054 149.434 311.401 147.687L314.368 145.941C315.149 148.411 317.094 149.632 320.16 149.632C321.807 149.632 323.155 149.206 324.206 148.34C325.242 147.475 325.767 146.268 325.767 144.721C325.767 143.173 325.242 141.953 324.206 141.087C323.169 140.207 321.821 139.767 320.16 139.767H319.251L317.846 137.595L324.021 129.248H312.168V125.926H328.18L328.166 129.035L322.36 136.857Z" fill="white"/>
<path d="M355.648 144.224V147.531H352.412V152.599H348.863V147.531H335.264V144.224L344.831 125.926H348.636L339.068 144.224H348.863V136.672H352.412V144.224H355.648Z" fill="white"/>
<path d="M369.588 136.331C372.1 136.331 374.23 137.069 375.976 138.56C377.722 140.05 378.588 142.095 378.588 144.721C378.588 147.318 377.693 149.363 375.919 150.853C374.145 152.358 371.987 153.096 369.446 153.096C367.416 153.096 365.599 152.613 363.995 151.634C362.391 150.654 361.27 149.235 360.645 147.389L363.654 145.672C364.009 146.964 364.691 147.957 365.713 148.624C366.735 149.292 367.97 149.632 369.446 149.632C371.121 149.632 372.484 149.206 373.52 148.34C374.556 147.475 375.082 146.268 375.082 144.721C375.082 143.173 374.556 141.953 373.52 141.087C372.484 140.207 371.149 139.767 369.517 139.767H361.979L362.93 125.926H377.566V129.248H366.167L365.698 136.331H369.588Z" fill="white"/>
<path d="M40.5698 225.478C39.0083 225.478 37.7307 224.966 36.7087 223.93C35.7008 222.908 35.1898 221.631 35.1898 220.14C35.1898 218.65 35.7008 217.372 36.7087 216.35C37.7165 215.328 39.0083 214.803 40.5698 214.803C41.5066 214.803 42.3726 215.03 43.1675 215.484C43.9624 215.938 44.5728 216.549 45.0129 217.301L43.8205 217.997C43.5224 217.429 43.0823 216.975 42.5003 216.634C41.9183 216.293 41.2653 216.123 40.5698 216.123C39.3774 216.123 38.4121 216.506 37.6597 217.273C36.9074 218.039 36.5383 218.99 36.5383 220.14C36.5383 221.276 36.9074 222.227 37.6597 222.993C38.4121 223.76 39.3774 224.143 40.5698 224.143C41.2795 224.143 41.9183 223.973 42.5003 223.632C43.0823 223.291 43.5224 222.851 43.8205 222.284L45.0129 222.965C44.587 223.731 43.9624 224.342 43.1817 224.796C42.3868 225.25 41.5208 225.478 40.5698 225.478Z" fill="white"/>
<path d="M52.4795 217.94H53.7571V225.293H52.4795V224.03C51.8407 224.995 50.918 225.492 49.6972 225.492C48.6752 225.492 47.7951 225.123 47.0711 224.37C46.3472 223.618 45.9781 222.71 45.9781 221.631C45.9781 220.552 46.3472 219.643 47.0711 218.891C47.7951 218.139 48.6752 217.77 49.6972 217.77C50.918 217.77 51.8407 218.252 52.4795 219.232V217.94ZM49.8676 224.243C50.6057 224.243 51.2303 223.987 51.7414 223.49C52.2524 222.993 52.4937 222.355 52.4937 221.616C52.4937 220.878 52.2382 220.254 51.7414 219.743C51.2445 219.232 50.6199 218.99 49.8676 218.99C49.1294 218.99 48.519 219.246 48.0222 219.743C47.5254 220.254 47.2699 220.878 47.2699 221.616C47.2699 222.369 47.5254 222.993 48.0222 223.49C48.519 224.001 49.1294 224.243 49.8676 224.243Z" fill="white"/>
<path d="M56.9797 219.175C57.4056 218.266 58.1579 217.812 59.2794 217.812V219.146C58.6548 219.118 58.1153 219.288 57.6611 219.643C57.2068 220.012 56.9797 220.594 56.9797 221.389V225.293H55.7021V217.94H56.9797V219.175Z" fill="white"/>
<path d="M66.2206 215.001H67.4982V225.293H66.2206V224.03C65.5818 224.995 64.6591 225.492 63.4383 225.492C62.4163 225.492 61.5362 225.123 60.8122 224.37C60.0883 223.618 59.7192 222.709 59.7192 221.631C59.7192 220.552 60.0883 219.643 60.8122 218.891C61.5362 218.139 62.4163 217.77 63.4383 217.77C64.6591 217.77 65.5818 218.252 66.2206 219.232V215.001ZM63.5945 224.243C64.3326 224.243 64.9572 223.987 65.4683 223.49C65.9793 222.993 66.2206 222.355 66.2206 221.616C66.2206 220.878 65.9651 220.254 65.4683 219.743C64.9714 219.232 64.3468 218.99 63.5945 218.99C62.8563 218.99 62.2459 219.246 61.7491 219.743C61.2523 220.254 60.9968 220.878 60.9968 221.616C60.9968 222.369 61.2523 222.993 61.7491 223.49C62.2459 224.001 62.8705 224.243 63.5945 224.243Z" fill="white"/>
<path d="M79.6067 215.001H80.9553V225.293H79.6067V220.665H74.61V225.293H73.2473V215.001H74.61V219.374H79.6067V215.001Z" fill="white"/>
<path d="M89.2455 224.37C88.4931 225.108 87.5704 225.492 86.4916 225.492C85.4128 225.492 84.5043 225.123 83.7519 224.37C82.9996 223.618 82.6305 222.709 82.6305 221.616C82.6305 220.523 82.9996 219.615 83.7519 218.863C84.5043 218.124 85.4128 217.741 86.4916 217.741C87.5704 217.741 88.4931 218.11 89.2455 218.863C89.9978 219.615 90.3811 220.523 90.3811 221.616C90.3669 222.709 89.9978 223.618 89.2455 224.37ZM86.4916 224.228C87.2298 224.228 87.8402 223.973 88.3512 223.476C88.848 222.979 89.1035 222.355 89.1035 221.602C89.1035 220.864 88.848 220.239 88.3512 219.728C87.8544 219.232 87.2298 218.976 86.4916 218.976C85.7676 218.976 85.1573 219.232 84.6604 219.728C84.1636 220.225 83.9081 220.85 83.9081 221.602C83.9081 222.355 84.1636 222.965 84.6604 223.476C85.1573 223.987 85.7676 224.228 86.4916 224.228Z" fill="white"/>
<path d="M91.8857 225.293V214.561H93.1632V225.293H91.8857Z" fill="white"/>
<path d="M101.212 215.001H102.489V225.293H101.212V224.03C100.573 224.995 99.6503 225.492 98.4295 225.492C97.4075 225.492 96.5274 225.123 95.8034 224.37C95.0795 223.618 94.7104 222.709 94.7104 221.631C94.7104 220.552 95.0795 219.643 95.8034 218.891C96.5274 218.139 97.4075 217.77 98.4295 217.77C99.6503 217.77 100.573 218.252 101.212 219.232V215.001ZM98.5857 224.243C99.3238 224.243 99.9484 223.987 100.459 223.49C100.97 222.993 101.212 222.355 101.212 221.616C101.212 220.878 100.956 220.254 100.459 219.743C99.9626 219.232 99.338 218.99 98.5857 218.99C97.8475 218.99 97.2371 219.246 96.7403 219.743C96.2435 220.254 95.988 220.878 95.988 221.616C95.988 222.369 96.2435 222.993 96.7403 223.49C97.2371 224.001 97.8617 224.243 98.5857 224.243Z" fill="white"/>
<path d="M105.329 222.198C105.456 222.851 105.754 223.362 106.237 223.732C106.706 224.086 107.302 224.271 107.997 224.271C108.963 224.271 109.672 223.916 110.112 223.192L111.205 223.803C110.496 224.91 109.417 225.463 107.969 225.463C106.805 225.463 105.854 225.094 105.13 224.37C104.406 223.646 104.037 222.709 104.037 221.602C104.037 220.495 104.392 219.572 105.116 218.834C105.825 218.096 106.762 217.727 107.898 217.727C108.977 217.727 109.857 218.11 110.538 218.863C111.22 219.629 111.56 220.538 111.56 221.602C111.56 221.787 111.546 221.986 111.518 222.17H105.329V222.198ZM107.87 218.948C107.188 218.948 106.62 219.146 106.166 219.53C105.712 219.913 105.442 220.438 105.329 221.077H110.24C110.127 220.381 109.857 219.856 109.417 219.487C108.977 219.132 108.452 218.948 107.87 218.948Z" fill="white"/>
<path d="M114.286 219.175C114.712 218.266 115.464 217.812 116.586 217.812V219.146C115.961 219.118 115.422 219.288 114.967 219.643C114.513 220.012 114.286 220.594 114.286 221.389V225.293H113.008V217.94H114.286V219.175Z" fill="white"/>
<path d="M125.159 217.755C126.025 217.755 126.707 218.025 127.232 218.579C127.757 219.118 128.012 219.856 128.012 220.793V225.307H126.735V220.864C126.735 220.268 126.579 219.799 126.252 219.473C125.926 219.146 125.486 218.976 124.918 218.976C124.279 218.976 123.768 219.175 123.371 219.572C122.973 219.97 122.789 220.58 122.789 221.404V225.307H121.511V217.954H122.789V219.019C123.3 218.167 124.095 217.755 125.159 217.755Z" fill="white"/>
<path d="M135.877 217.94H137.154V225.293H135.877V224.03C135.238 224.995 134.315 225.492 133.094 225.492C132.072 225.492 131.192 225.123 130.468 224.37C129.744 223.618 129.375 222.71 129.375 221.631C129.375 220.552 129.744 219.643 130.468 218.891C131.192 218.139 132.072 217.77 133.094 217.77C134.315 217.77 135.238 218.252 135.877 219.232V217.94ZM133.265 224.243C134.003 224.243 134.627 223.987 135.139 223.49C135.65 222.993 135.891 222.355 135.891 221.616C135.891 220.878 135.635 220.254 135.139 219.743C134.642 219.232 134.017 218.99 133.265 218.99C132.527 218.99 131.916 219.246 131.419 219.743C130.923 220.254 130.667 220.878 130.667 221.616C130.667 222.369 130.923 222.993 131.419 223.49C131.902 224.001 132.527 224.243 133.265 224.243Z" fill="white"/>
<path d="M147.034 217.755C147.858 217.755 148.525 218.025 149.036 218.55C149.547 219.09 149.802 219.814 149.802 220.722V225.293H148.525V220.765C148.525 220.197 148.383 219.757 148.085 219.445C147.787 219.132 147.403 218.976 146.906 218.976C146.353 218.976 145.913 219.161 145.586 219.53C145.26 219.899 145.089 220.452 145.089 221.219V225.307H143.812V220.779C143.812 220.211 143.67 219.771 143.386 219.459C143.102 219.146 142.733 218.99 142.25 218.99C141.711 218.99 141.257 219.175 140.902 219.544C140.547 219.913 140.362 220.481 140.362 221.219V225.307H139.085V217.954H140.362V218.934C140.859 218.153 141.597 217.755 142.549 217.755C143.542 217.755 144.266 218.167 144.706 219.005C145.246 218.167 146.012 217.755 147.034 217.755Z" fill="white"/>
<path d="M152.471 222.198C152.599 222.851 152.897 223.362 153.379 223.732C153.848 224.086 154.444 224.271 155.14 224.271C156.105 224.271 156.815 223.916 157.255 223.192L158.348 223.803C157.638 224.91 156.559 225.463 155.111 225.463C153.947 225.463 152.996 225.094 152.272 224.37C151.548 223.646 151.179 222.709 151.179 221.602C151.179 220.495 151.534 219.572 152.258 218.834C152.968 218.096 153.905 217.727 155.04 217.727C156.119 217.727 156.999 218.11 157.681 218.863C158.362 219.629 158.703 220.538 158.703 221.602C158.703 221.787 158.688 221.986 158.66 222.17H152.471V222.198ZM155.026 218.948C154.345 218.948 153.777 219.146 153.323 219.53C152.868 219.913 152.599 220.438 152.485 221.077H157.397C157.283 220.381 157.013 219.856 156.573 219.487C156.119 219.132 155.608 218.948 155.026 218.948Z" fill="white"/>
<path d="M353.022 224.001H357.806V225.293H351.659V215.001H357.735V216.293H353.036V219.459H357.38V220.736H353.036V224.001H353.022Z" fill="white"/>
<path d="M365.698 225.293H364.194L362.121 222.511L360.049 225.293H358.544L361.355 221.503L358.7 217.94H360.219L362.107 220.495L364.009 217.94H365.514L362.859 221.503L365.698 225.293Z" fill="white"/>
<path d="M370.951 217.755C371.987 217.755 372.853 218.124 373.577 218.877C374.301 219.629 374.67 220.538 374.67 221.617C374.67 222.695 374.301 223.604 373.577 224.356C372.853 225.109 371.973 225.478 370.951 225.478C369.73 225.478 368.807 224.995 368.168 224.016V228.217H366.891V217.926H368.168V219.189C368.807 218.238 369.73 217.755 370.951 217.755ZM370.794 224.243C371.533 224.243 372.143 223.987 372.64 223.49C373.137 222.993 373.392 222.355 373.392 221.617C373.392 220.878 373.137 220.254 372.64 219.743C372.143 219.232 371.518 218.99 370.794 218.99C370.042 218.99 369.432 219.246 368.921 219.743C368.424 220.254 368.168 220.878 368.168 221.617C368.168 222.369 368.424 222.993 368.921 223.49C369.417 224.001 370.042 224.243 370.794 224.243Z" fill="white"/>
<path d="M376.842 216.606C376.6 216.606 376.387 216.52 376.217 216.35C376.047 216.18 375.962 215.981 375.962 215.754C375.962 215.513 376.047 215.314 376.217 215.143C376.387 214.973 376.586 214.888 376.842 214.888C377.083 214.888 377.282 214.973 377.438 215.143C377.608 215.314 377.693 215.513 377.693 215.754C377.693 215.995 377.608 216.194 377.438 216.35C377.282 216.52 377.083 216.606 376.842 216.606ZM376.203 225.293V217.94H377.48V225.293H376.203Z" fill="white"/>
<path d="M380.717 219.175C381.143 218.266 381.895 217.812 383.017 217.812V219.146C382.392 219.118 381.853 219.288 381.398 219.643C380.944 220.012 380.717 220.594 380.717 221.389V225.293H379.439V217.94H380.717V219.175Z" fill="white"/>
<path d="M389.547 217.94H390.909L387.914 225.747C387.602 226.585 387.162 227.209 386.594 227.649C386.026 228.09 385.387 228.274 384.649 228.231V227.039C385.544 227.11 386.211 226.613 386.622 225.534L386.764 225.265L383.556 217.94H384.919L387.375 223.575L389.547 217.94Z" fill="white"/>
<path d="M399.81 215.001C401.215 215.001 402.379 215.498 403.302 216.492C404.224 217.486 404.693 218.706 404.693 220.14C404.693 221.574 404.224 222.795 403.302 223.788C402.379 224.782 401.215 225.279 399.81 225.279H395.792V214.987H399.81V215.001ZM399.81 224.001C400.86 224.001 401.712 223.632 402.379 222.894C403.046 222.156 403.373 221.247 403.373 220.14C403.373 219.033 403.046 218.124 402.379 217.386C401.712 216.648 400.86 216.279 399.81 216.279H397.169V223.987H399.81V224.001Z" fill="white"/>
<path d="M412.316 217.94H413.593V225.293H412.316V224.03C411.677 224.995 410.754 225.492 409.533 225.492C408.511 225.492 407.631 225.123 406.907 224.37C406.183 223.618 405.814 222.709 405.814 221.631C405.814 220.552 406.183 219.643 406.907 218.891C407.631 218.139 408.511 217.769 409.533 217.769C410.754 217.769 411.677 218.252 412.316 219.232V217.94ZM409.69 224.243C410.428 224.243 411.052 223.987 411.563 223.49C412.074 222.993 412.316 222.355 412.316 221.616C412.316 220.878 412.06 220.254 411.563 219.743C411.067 219.232 410.442 218.99 409.69 218.99C408.951 218.99 408.341 219.246 407.844 219.743C407.347 220.254 407.092 220.878 407.092 221.616C407.092 222.369 407.347 222.993 407.844 223.49C408.341 224.001 408.951 224.243 409.69 224.243Z" fill="white"/>
<path d="M419.527 219.175H417.568V223.164C417.568 223.533 417.639 223.788 417.781 223.93C417.923 224.086 418.135 224.157 418.434 224.172C418.732 224.172 419.087 224.172 419.527 224.143V225.293C418.405 225.435 417.596 225.35 417.071 225.023C416.546 224.697 416.29 224.072 416.29 223.164V219.175H414.828V217.94H416.29V216.265L417.568 215.882V217.94H419.527V219.175Z" fill="white"/>
<path d="M421.571 222.198C421.699 222.851 421.997 223.362 422.479 223.732C422.948 224.086 423.544 224.271 424.24 224.271C425.205 224.271 425.915 223.916 426.355 223.192L427.448 223.803C426.738 224.91 425.659 225.463 424.211 225.463C423.047 225.463 422.096 225.094 421.372 224.37C420.648 223.646 420.279 222.71 420.279 221.602C420.279 220.495 420.634 219.572 421.358 218.834C422.068 218.096 423.005 217.727 424.14 217.727C425.219 217.727 426.099 218.11 426.781 218.863C427.462 219.629 427.803 220.538 427.803 221.602C427.803 221.787 427.788 221.986 427.76 222.17H421.571V222.198ZM424.112 218.948C423.431 218.948 422.863 219.146 422.408 219.53C421.954 219.913 421.685 220.438 421.571 221.077H426.483C426.369 220.381 426.099 219.856 425.659 219.487C425.219 219.132 424.708 218.948 424.112 218.948Z" fill="white"/>
<path d="M362.121 253.897C361.056 255.387 359.566 256.125 357.649 256.125C355.733 256.125 354.243 255.387 353.178 253.897C352.113 252.406 351.574 250.433 351.574 247.963C351.574 245.493 352.113 243.506 353.178 242.029C354.243 240.553 355.733 239.801 357.649 239.801C359.566 239.801 361.056 240.539 362.121 242.029C363.186 243.52 363.711 245.493 363.711 247.963C363.711 250.433 363.186 252.406 362.121 253.897ZM354.697 252.477C355.392 253.542 356.372 254.081 357.649 254.081C358.927 254.081 359.907 253.542 360.602 252.477C361.298 251.412 361.653 249.908 361.653 247.963C361.653 246.018 361.298 244.499 360.602 243.435C359.907 242.37 358.913 241.831 357.649 241.831C356.372 241.831 355.392 242.37 354.697 243.435C354.001 244.499 353.661 246.018 353.661 247.977C353.661 249.908 354.001 251.412 354.697 252.477Z" fill="white"/>
<path d="M365.244 255.827V254.124L370.794 248.46C372.285 246.969 373.023 245.706 373.023 244.641C373.023 243.761 372.753 243.066 372.214 242.569C371.674 242.072 371.007 241.831 370.241 241.831C368.75 241.831 367.671 242.54 367.004 243.946L365.244 242.909C365.741 241.887 366.422 241.121 367.302 240.596C368.182 240.07 369.147 239.815 370.212 239.815C371.532 239.815 372.682 240.255 373.647 241.121C374.627 241.987 375.11 243.165 375.11 244.627C375.11 246.217 374.173 247.949 372.299 249.823L368.282 253.826H375.393V255.856H365.244V255.827Z" fill="white"/>
<path d="M378.318 258.042L377.154 258.07L386.154 237.856L387.318 237.828L378.318 258.042Z" fill="white"/>
<path d="M395.267 246.529C396.473 246.756 397.453 247.267 398.219 248.076C398.986 248.886 399.369 249.908 399.369 251.157C399.369 252.69 398.844 253.897 397.794 254.777C396.743 255.657 395.466 256.097 393.975 256.097C392.768 256.097 391.704 255.827 390.781 255.273C389.844 254.72 389.191 253.939 388.808 252.903L390.568 251.867C391.037 253.315 392.172 254.053 393.989 254.053C394.969 254.053 395.764 253.797 396.374 253.286C396.984 252.775 397.297 252.065 397.297 251.157C397.297 250.248 396.984 249.524 396.374 249.013C395.764 248.502 394.969 248.233 393.989 248.233H393.45L392.612 246.955L396.26 242.029H389.262V240.07H398.702L398.688 241.902L395.267 246.529Z" fill="white"/>
<path d="M411.762 253.897C410.697 255.387 409.207 256.125 407.29 256.125C405.374 256.125 403.883 255.387 402.819 253.897C401.754 252.406 401.215 250.433 401.215 247.963C401.215 245.493 401.754 243.506 402.819 242.029C403.883 240.553 405.374 239.801 407.29 239.801C409.207 239.801 410.697 240.539 411.762 242.029C412.826 243.52 413.366 245.493 413.366 247.963C413.352 250.433 412.826 252.406 411.762 253.897ZM404.338 252.477C405.033 253.542 406.013 254.081 407.29 254.081C408.568 254.081 409.547 253.542 410.243 252.477C410.938 251.412 411.293 249.908 411.293 247.963C411.293 246.018 410.938 244.499 410.243 243.435C409.547 242.37 408.554 241.831 407.29 241.831C406.013 241.831 405.033 242.37 404.338 243.435C403.642 244.499 403.301 246.018 403.301 247.977C403.301 249.908 403.642 251.412 404.338 252.477Z" fill="white"/>
<path d="M443.502 47.0573H438.719C437.228 47.0573 436.107 47.4689 435.468 48.9311L426.269 69.7839H432.771C432.771 69.7839 433.85 66.9874 434.091 66.377H442.012C442.211 67.172 442.764 69.7839 442.764 69.7839H448.513L443.502 47.0573ZM435.88 61.7352C436.376 60.415 438.307 55.3615 438.307 55.3615C438.307 55.3615 438.846 54.0272 439.144 53.2038L439.556 55.1628C439.556 55.1628 440.763 60.5712 441.004 61.7352H435.88Z" fill="white"/>
<path d="M418.022 53.36C418.008 54.4246 419.342 55.1344 421.514 56.1848C425.077 57.8031 426.738 59.7762 426.71 62.3598C426.667 67.0726 422.437 70.1246 415.921 70.1246C413.153 70.0962 410.47 69.5284 409.022 68.918L409.902 63.8219L410.697 64.191C412.727 65.0285 414.047 65.3834 416.532 65.3834C418.306 65.3834 420.208 64.6878 420.222 63.1689C420.236 62.1611 419.427 61.4513 417.014 60.3299C414.658 59.251 411.549 57.434 411.577 54.1691C411.606 49.7544 415.921 46.6598 422.039 46.6598C424.438 46.6598 426.369 47.1567 427.604 47.6109L426.766 52.5367L426.213 52.2811C425.063 51.8127 423.601 51.3726 421.571 51.401C419.158 51.401 418.022 52.4231 418.022 53.36Z" fill="white"/>
<path d="M409.022 47.0431L405.133 69.7697H398.958L402.833 47.0431H409.022Z" fill="white"/>
<path d="M386.778 58.74C384.72 53.4877 379.78 49.1156 372.299 47.2986L372.384 46.8301H381.994C383.3 46.8727 384.337 47.2986 384.706 48.6755L386.778 58.74Z" fill="white"/>
<path d="M400.32 47.0573L390.554 69.7413H384.01L378.46 50.8048C382.449 53.36 385.841 57.4056 387.034 60.2163L387.687 62.5585L393.762 47.0573H400.32Z" fill="white"/>
<path d="M80.9412 80.4161H42.2166C39.7608 80.4161 37.7451 78.4004 37.7451 75.9446V47.256C37.7451 44.8002 39.7608 42.7845 42.2166 42.7845H80.9412C83.397 42.7845 85.4128 44.8002 85.4128 47.256V75.9446C85.427 78.4146 83.4112 80.4161 80.9412 80.4161Z" fill="#F6C859"/>
<path d="M56.0993 75.4052C55.9006 75.4052 55.7018 75.2917 55.6025 75.1071C55.4605 74.8374 55.5741 74.4967 55.8438 74.369C56.6387 73.9573 57.7318 73.1908 58.3563 71.8564C59.1513 70.1672 58.9525 68.336 58.6119 68.1798C58.5267 68.1373 58.186 68.3076 57.9873 68.4212C57.462 68.6909 56.7523 69.0599 55.9148 68.7618C55.0914 68.4779 54.694 67.754 54.5094 67.3991C53.2602 65.1137 52.877 59.1516 54.1971 56.1848C54.6372 55.2054 55.2334 54.6234 55.9715 54.453C56.7239 54.2827 57.3343 54.595 57.8311 54.8505C58.2428 55.0634 58.4415 55.1486 58.5693 55.0776C59.0803 54.7653 59.0661 52.8773 58.3563 51.3726C57.7318 50.0383 56.6387 49.2717 55.8438 48.8601C55.5741 48.7181 55.4605 48.3916 55.6025 48.1219C55.7444 47.8522 56.0709 47.7387 56.3406 47.8806C57.2917 48.3632 58.5835 49.2859 59.35 50.89C60.1024 52.4799 60.4572 55.2196 59.1371 56.0145C58.4699 56.412 57.8311 56.0855 57.3201 55.83C56.9368 55.6312 56.5677 55.4467 56.2129 55.5319C55.7302 55.6454 55.3895 56.199 55.1908 56.6533C54.041 59.2368 54.3675 64.8723 55.4605 66.8881C55.645 67.2288 55.8722 67.5978 56.2554 67.7398C56.6245 67.8675 56.9794 67.7114 57.4762 67.4559C57.9589 67.2146 58.4983 66.9307 59.0803 67.2146C60.3153 67.8108 60.2301 70.4795 59.3358 72.3674C58.5693 73.9715 57.2775 74.8942 56.3264 75.3768C56.2696 75.3768 56.1845 75.4052 56.0993 75.4052Z" fill="#7D662D"/>
<path d="M54.4386 57.1785H44.5019C44.2038 57.1785 43.9483 56.9372 43.9483 56.6249C43.9483 56.3126 44.1896 56.0713 44.5019 56.0713H54.4386C54.7367 56.0713 54.9922 56.3126 54.9922 56.6249C54.9922 56.9372 54.7509 57.1785 54.4386 57.1785Z" fill="#7D662D"/>
<path d="M54.4386 67.1152H44.5019C44.2038 67.1152 43.9483 66.8739 43.9483 66.5616C43.9483 66.2635 44.1896 66.0079 44.5019 66.0079H54.4386C54.7367 66.0079 54.9922 66.2493 54.9922 66.5616C54.9922 66.8739 54.7509 67.1152 54.4386 67.1152Z" fill="#7D662D"/>
<path d="M67.6969 75.4053C67.6117 75.4053 67.5265 75.3911 67.4414 75.3485C66.4903 74.8658 65.1985 73.9432 64.432 72.3391C63.5377 70.4511 63.4525 67.7966 64.6875 67.1862C65.2695 66.9023 65.8089 67.1862 66.2915 67.4275C66.7884 67.683 67.1433 67.8392 67.5123 67.7114C67.924 67.5695 68.1653 67.1294 68.3073 66.8597C69.4145 64.844 69.741 59.2227 68.577 56.6249C68.3782 56.1849 68.0376 55.6171 67.5549 55.5035C67.2568 55.4325 67.0723 55.1344 67.1433 54.8363C67.2142 54.5382 67.5123 54.3537 67.8104 54.4247C68.5486 54.595 69.1448 55.177 69.5848 56.1707C70.905 59.1233 70.5217 65.0853 69.2725 67.3849C69.088 67.7398 68.6763 68.4638 67.8672 68.7477C67.0297 69.0316 66.3199 68.6767 65.7947 68.407C65.596 68.3076 65.2553 68.1373 65.1701 68.1657C64.8436 68.3218 64.6307 70.153 65.4256 71.8422C66.0502 73.1766 67.1433 73.9431 67.9382 74.3548C68.2079 74.4968 68.3215 74.8233 68.1795 75.093C68.0801 75.2917 67.8956 75.4053 67.6969 75.4053Z" fill="#7D662D"/>
<path d="M65.4826 54.9782C65.2554 54.9782 65.0425 54.8363 64.9573 54.595C63.7791 51.0462 66.5472 48.3065 67.4415 47.8522C67.7112 47.7103 68.0519 47.8238 68.1797 48.0935C68.3216 48.3633 68.208 48.7039 67.9383 48.8317C67.5409 49.0304 64.9999 51.2165 66.0078 54.2401C66.1071 54.524 65.951 54.8363 65.6529 54.9357C65.5961 54.9641 65.5393 54.9782 65.4826 54.9782Z" fill="#7D662D"/>
<path d="M79.2803 57.1785H69.3437C69.0456 57.1785 68.79 56.9372 68.79 56.6249C68.79 56.3126 69.0314 56.0713 69.3437 56.0713H79.2803C79.5784 56.0713 79.834 56.3126 79.834 56.6249C79.834 56.9372 79.5926 57.1785 79.2803 57.1785Z" fill="#7D662D"/>
<path d="M79.2803 67.1152H69.3437C69.0456 67.1152 68.79 66.8739 68.79 66.5616C68.79 66.2635 69.0314 66.0079 69.3437 66.0079H79.2803C79.5784 66.0079 79.834 66.2493 79.834 66.5616C79.834 66.8739 79.5926 67.1152 79.2803 67.1152Z" fill="#7D662D"/>
<path d="M43.063 256L38.7505 249.172V256H35.606V240.67H38.7505V247.33L43.1079 240.67H46.7466L41.7827 248.06L46.7466 256H43.063ZM48.4087 245.365H51.3398V256H48.4087V245.365ZM49.8911 240.693C50.3778 240.693 50.7708 240.861 51.0703 241.198C51.3548 241.52 51.4971 241.902 51.4971 242.344C51.4971 242.838 51.3136 243.246 50.9468 243.568C50.6698 243.815 50.3141 243.938 49.8799 243.938C49.3857 243.938 48.9852 243.774 48.6782 243.444C48.3937 243.122 48.2515 242.748 48.2515 242.321C48.2515 241.805 48.4349 241.385 48.8018 241.063C49.0788 240.816 49.4419 240.693 49.8911 240.693ZM61.5596 248.431H58.7969C58.8044 248.378 58.8081 248.315 58.8081 248.24C58.8081 248.015 58.7332 247.809 58.5835 247.622C58.3215 247.308 57.9508 247.15 57.4717 247.15C57.1123 247.15 56.8241 247.24 56.6069 247.42C56.3973 247.6 56.2925 247.832 56.2925 248.116C56.2925 248.408 56.3936 248.633 56.5957 248.79C56.8128 248.962 57.1198 249.112 57.5166 249.239L58.3926 249.509C59.5605 249.868 60.3766 250.272 60.8408 250.722C61.4323 251.291 61.728 252.024 61.728 252.923C61.728 254.046 61.2826 254.933 60.3916 255.584C59.6803 256.109 58.7445 256.371 57.584 256.371C56.0267 256.371 54.87 255.891 54.1138 254.933C53.672 254.387 53.4362 253.701 53.4062 252.878H56.2139C56.3411 253.769 56.8053 254.214 57.6064 254.214C57.9508 254.214 58.2241 254.125 58.4263 253.945C58.6584 253.735 58.7744 253.488 58.7744 253.204C58.7744 252.852 58.591 252.56 58.2241 252.328C58.022 252.193 57.5465 252.013 56.7979 251.789C55.6673 251.437 54.8438 251.002 54.3271 250.486C53.7581 249.924 53.4736 249.221 53.4736 248.375C53.4736 247.222 53.9416 246.334 54.8774 245.713C55.6112 245.234 56.5171 244.994 57.5952 244.994C59.1076 244.994 60.2306 245.485 60.9644 246.465C61.3387 246.974 61.5371 247.63 61.5596 248.431ZM63.9067 240.67H66.8379V246.499C67.6839 245.496 68.646 244.994 69.7241 244.994C70.368 244.994 70.9857 245.155 71.5771 245.477C72.2734 245.851 72.7376 246.357 72.9697 246.993C73.1494 247.457 73.2393 248.12 73.2393 248.981V256H70.3081V249.396C70.3081 248.708 70.1172 248.187 69.7354 247.835C69.4808 247.588 69.1439 247.465 68.7246 247.465C68.2305 247.465 67.7962 247.641 67.4219 247.993C67.1748 248.232 67.0101 248.494 66.9277 248.779C66.8678 249.033 66.8379 249.329 66.8379 249.666V256H63.9067V240.67ZM84.2227 246.712V245.365H87.1538V256H84.2227V254.54C83.2568 255.76 82.0252 256.371 80.5278 256.371C78.9032 256.371 77.5967 255.768 76.6084 254.562C75.7923 253.567 75.3843 252.316 75.3843 250.812C75.3843 249.688 75.6426 248.648 76.1592 247.689C76.5934 246.881 77.2111 246.233 78.0122 245.747C78.8208 245.252 79.7305 245.005 80.7412 245.005C81.5723 245.005 82.321 245.204 82.9873 245.601C83.3916 245.84 83.8034 246.211 84.2227 246.712ZM81.3477 247.476C80.4268 247.476 79.708 247.832 79.1914 248.543C78.7347 249.179 78.5063 249.921 78.5063 250.767C78.5063 251.777 78.8171 252.593 79.4385 253.215C79.9701 253.746 80.599 254.012 81.3252 254.012C82.2087 254.012 82.9386 253.645 83.5151 252.912C84.0168 252.275 84.2676 251.53 84.2676 250.677C84.2676 249.831 84.043 249.116 83.5938 248.532C83.0472 247.828 82.2985 247.476 81.3477 247.476ZM90.0513 256V245.365H92.9824V246.667C93.3268 246.121 93.6712 245.732 94.0156 245.5C94.5173 245.163 95.1274 244.994 95.8462 244.994C96.9318 244.994 97.8078 245.324 98.4741 245.982C98.8934 246.402 99.1592 246.881 99.2715 247.42C99.3763 247.944 99.4287 248.562 99.4287 249.273V256H96.4976V249.419C96.4976 248.865 96.4115 248.449 96.2393 248.172C95.9398 247.701 95.4756 247.465 94.8467 247.465C94.2253 247.465 93.7311 247.716 93.3643 248.217C93.1097 248.562 92.9824 249.003 92.9824 249.542V256H90.0513ZM116.667 256L112.467 249.902V256H109.323V240.67H114.04C115.964 240.67 117.412 241.075 118.386 241.883C118.768 242.183 119.071 242.55 119.295 242.984C119.7 243.74 119.902 244.575 119.902 245.488C119.902 246.948 119.438 248.109 118.509 248.97C117.933 249.501 117.184 249.883 116.263 250.115L120.486 256H116.667ZM112.467 243.276V248.06H113.905C114.721 248.06 115.368 247.888 115.848 247.543C116.424 247.117 116.712 246.488 116.712 245.657C116.712 244.96 116.503 244.395 116.083 243.961C115.649 243.504 115.009 243.276 114.163 243.276H112.467ZM130.739 246.712V245.365H133.67V256H130.739V254.54C129.773 255.76 128.542 256.371 127.044 256.371C125.42 256.371 124.113 255.768 123.125 254.562C122.309 253.567 121.901 252.316 121.901 250.812C121.901 249.688 122.159 248.648 122.676 247.689C123.11 246.881 123.728 246.233 124.529 245.747C125.337 245.252 126.247 245.005 127.258 245.005C128.089 245.005 128.838 245.204 129.504 245.601C129.908 245.84 130.32 246.211 130.739 246.712ZM127.864 247.476C126.943 247.476 126.225 247.832 125.708 248.543C125.251 249.179 125.023 249.921 125.023 250.767C125.023 251.777 125.334 252.593 125.955 253.215C126.487 253.746 127.116 254.012 127.842 254.012C128.725 254.012 129.455 253.645 130.032 252.912C130.533 252.275 130.784 251.53 130.784 250.677C130.784 249.831 130.56 249.116 130.11 248.532C129.564 247.828 128.815 247.476 127.864 247.476ZM136.568 256V245.365H139.499V246.712C139.791 246.188 140.117 245.803 140.476 245.556C141.03 245.181 141.678 244.994 142.419 244.994C143.13 244.994 143.767 245.174 144.328 245.533C144.747 245.81 145.077 246.222 145.316 246.769C145.653 246.2 146.035 245.788 146.462 245.533C147.046 245.174 147.731 244.994 148.517 244.994C149.61 244.994 150.467 245.327 151.089 245.994C151.486 246.428 151.729 246.907 151.819 247.431C151.901 247.888 151.942 248.427 151.942 249.048V256H149.011V249.599C149.011 248.962 148.921 248.487 148.742 248.172C148.48 247.701 148.034 247.465 147.405 247.465C146.836 247.465 146.398 247.678 146.091 248.105C145.844 248.472 145.721 248.97 145.721 249.599V256H142.79V249.677C142.79 248.202 142.25 247.465 141.172 247.465C140.618 247.465 140.192 247.671 139.892 248.083C139.63 248.434 139.499 248.966 139.499 249.677V256H136.568ZM162.926 246.712V245.365H165.857V256H162.926V254.54C161.96 255.76 160.728 256.371 159.231 256.371C157.606 256.371 156.3 255.768 155.312 254.562C154.495 253.567 154.087 252.316 154.087 250.812C154.087 249.688 154.346 248.648 154.862 247.689C155.297 246.881 155.914 246.233 156.715 245.747C157.524 245.252 158.434 245.005 159.444 245.005C160.275 245.005 161.024 245.204 161.69 245.601C162.095 245.84 162.507 246.211 162.926 246.712ZM160.051 247.476C159.13 247.476 158.411 247.832 157.895 248.543C157.438 249.179 157.209 249.921 157.209 250.767C157.209 251.777 157.52 252.593 158.142 253.215C158.673 253.746 159.302 254.012 160.028 254.012C160.912 254.012 161.642 253.645 162.218 252.912C162.72 252.275 162.971 251.53 162.971 250.677C162.971 249.831 162.746 249.116 162.297 248.532C161.75 247.828 161.002 247.476 160.051 247.476ZM168.754 256V245.365H171.686V246.667C172.03 246.121 172.374 245.732 172.719 245.5C173.22 245.163 173.831 244.994 174.549 244.994C175.635 244.994 176.511 245.324 177.177 245.982C177.597 246.402 177.862 246.881 177.975 247.42C178.079 247.944 178.132 248.562 178.132 249.273V256H175.201V249.419C175.201 248.865 175.115 248.449 174.942 248.172C174.643 247.701 174.179 247.465 173.55 247.465C172.928 247.465 172.434 247.716 172.067 248.217C171.813 248.562 171.686 249.003 171.686 249.542V256H168.754ZM180.973 245.365H183.904V256H180.973V245.365ZM182.456 240.693C182.942 240.693 183.335 240.861 183.635 241.198C183.919 241.52 184.062 241.902 184.062 242.344C184.062 242.838 183.878 243.246 183.511 243.568C183.234 243.815 182.879 243.938 182.444 243.938C181.95 243.938 181.55 243.774 181.243 243.444C180.958 243.122 180.816 242.748 180.816 242.321C180.816 241.805 180.999 241.385 181.366 241.063C181.643 240.816 182.006 240.693 182.456 240.693Z" fill="white"/>
<defs>
<linearGradient id="paint0_linear_41_658" x1="153.967" y1="378.039" x2="271.5" y2="76.043" gradientUnits="userSpaceOnUse">
<stop stop-color="#93278F"/>
<stop offset="1" stop-color="#29ABE2"/>
</linearGradient>
</defs>
</svg>
