<svg width="484" height="305" viewBox="0 0 484 305" fill="none" xmlns="http://www.w3.org/2000/svg">
<path d="M477.567 28.4517L478.629 273.625C478.701 289.399 465.951 302.251 450.177 302.323L29.7601 304.141C13.9861 304.213 1.13429 291.463 1.0616 275.689L0.000309285 30.5162C-0.072382 14.7422 12.6777 1.89036 28.4517 1.81767L448.869 0.000386264C454.51 -0.0286902 459.802 1.58506 464.236 4.42002C472.232 9.45025 477.524 18.3186 477.567 28.4517Z" fill="url(#paint0_linear_41_363)"/>
<path d="M362.075 0.87262C314.564 41.1 308.778 91.5477 254.478 188.692C227.684 236.61 201.035 274.555 179.286 303.981L141.632 304.141C129.449 304.199 119.01 296.595 114.852 285.866C122.18 278.495 129.216 270.993 135.584 263.724C227.189 159.165 196.397 89.4978 281.374 7.60383C283.656 5.39402 285.953 3.25689 288.25 1.19246L362.075 0.87262Z" fill="url(#paint1_linear_41_363)"/>
<path d="M482.089 28.4518L482.365 91.8095C461.793 120.13 423.136 165.606 366.437 191.993C310.348 218.103 280.181 205.266 236.799 243.647C224.791 254.26 202.62 274.454 197.648 303.428L158.685 303.603C175.259 277.899 188.619 248.357 221.738 209.657C284.179 136.718 318.897 145.746 359.531 74.9306C362.875 69.1007 383.941 31.8246 390.221 0.291174L453.39 0.0149431C459.031 -0.0141334 464.323 1.59961 468.757 4.43457C476.753 9.45027 482.045 18.3186 482.089 28.4518Z" fill="url(#paint2_linear_41_363)"/>
<path d="M398.247 0.276672C391.952 31.8247 370.886 69.1008 367.542 74.9306C326.907 145.746 292.19 136.718 229.748 209.657C196.616 248.357 183.269 277.899 166.696 303.603L79.9606 303.981C101.695 274.555 128.358 236.596 155.152 188.692C209.453 91.5478 215.224 41.1146 262.75 0.872741L398.247 0.276672Z" fill="url(#paint3_linear_41_363)"/>
<path d="M482.815 196.441L483.15 273.61C483.223 289.384 470.473 302.236 454.699 302.309L305.958 302.948C329.262 277.129 359.691 249.171 402.782 228.018C435.174 212.128 459.932 207.359 482.815 196.441Z" fill="url(#paint4_linear_41_363)"/>
<path d="M482.365 91.8094L482.815 196.441C459.932 207.359 435.173 212.128 402.782 228.018C359.705 249.171 329.262 277.129 305.957 302.949L197.633 303.414C202.59 274.439 224.776 254.245 236.784 243.632C280.181 205.251 310.333 218.089 366.422 191.978C423.136 165.606 461.793 120.13 482.365 91.8094Z" fill="url(#paint5_linear_41_363)"/>
<path d="M78.17 83.3773L40.2106 83.5372C37.6955 83.5518 35.6165 81.4874 35.602 78.9722L35.4857 50.9279C35.4711 48.4128 37.5356 46.3339 40.0507 46.3193L78.0101 46.1594C80.5252 46.1449 82.6041 48.2093 82.6187 50.7244L82.735 78.7687C82.7495 81.2984 80.6851 83.3773 78.17 83.3773Z" fill="#F6C859"/>
<path d="M53.746 78.5216C53.5425 78.5216 53.3535 78.4198 53.2517 78.2308C53.1064 77.9691 53.2227 77.6347 53.4844 77.4893C54.2694 77.0823 55.3453 76.3117 55.9559 75.0033C56.7409 73.3314 56.5228 71.5141 56.1885 71.3687C56.1012 71.3251 55.7814 71.4996 55.5779 71.6013C55.069 71.863 54.3566 72.2265 53.528 71.9503C52.7138 71.674 52.3213 70.9617 52.1323 70.6127C50.882 68.3593 50.4749 62.4713 51.7688 59.5346C52.205 58.5605 52.7865 57.979 53.5134 57.8045C54.2549 57.6301 54.8655 57.9354 55.3598 58.1825C55.7669 58.3861 55.9704 58.4733 56.0867 58.4006C56.5955 58.0953 56.581 56.2199 55.8541 54.737C55.229 53.4285 54.1531 52.6725 53.3535 52.2655C53.0918 52.1346 52.9755 51.8003 53.1209 51.5386C53.2517 51.2769 53.5861 51.1606 53.8478 51.3059C54.7928 51.7857 56.0722 52.6871 56.8282 54.2718C57.5841 55.8419 57.9476 58.546 56.6392 59.3456C55.9849 59.7527 55.3453 59.4328 54.851 59.1711C54.473 58.9822 54.1095 58.7931 53.7606 58.8804C53.2808 58.9967 52.9464 59.5491 52.7574 59.9853C51.6235 62.544 51.9724 68.1122 53.0773 70.0894C53.2663 70.4237 53.4844 70.7872 53.8769 70.918C54.2403 71.0489 54.5893 70.889 55.0836 70.6273C55.5633 70.3801 56.1012 70.1039 56.6682 70.3801C57.8894 70.9617 57.8168 73.5931 56.9445 75.4685C56.203 77.0677 54.9236 77.9691 53.9787 78.4634C53.9205 78.507 53.8333 78.5216 53.746 78.5216Z" fill="#7D662D"/>
<path d="M52.0305 60.5233L42.2026 60.5669C41.8973 60.5669 41.6501 60.3197 41.6501 60.029C41.6501 59.7237 41.8973 59.4765 42.1881 59.4765L52.0159 59.4329C52.3212 59.4329 52.5684 59.6801 52.5684 59.9708C52.5829 60.2761 52.3358 60.5233 52.0305 60.5233Z" fill="#7D662D"/>
<path d="M52.074 70.3511L42.2462 70.3947C41.9409 70.3947 41.6937 70.1475 41.6937 69.8568C41.6937 69.5515 41.9409 69.3043 42.2316 69.3043L52.0595 69.2607C52.3648 69.2607 52.612 69.5078 52.612 69.7986C52.612 70.0894 52.3793 70.3511 52.074 70.3511Z" fill="#7D662D"/>
<path d="M65.2019 78.478C65.1147 78.478 65.0275 78.4634 64.9548 78.4198C64.0098 77.94 62.7304 77.0387 61.9744 75.454C61.0731 73.5931 60.9858 70.9617 62.207 70.3656C62.774 70.0894 63.3119 70.3656 63.7917 70.5982C64.286 70.8454 64.6349 71.0053 64.9984 70.8744C65.4055 70.7291 65.6381 70.2929 65.7834 70.0312C66.8593 68.0395 67.1646 62.4713 66.0161 59.9271C65.8125 59.491 65.4781 58.9385 64.9984 58.8368C64.7076 58.7641 64.5186 58.4733 64.5913 58.1826C64.664 57.8918 64.9548 57.7028 65.2455 57.7755C65.9724 57.9499 66.5685 58.5169 67.0047 59.491C68.3276 62.4132 67.9642 68.3012 66.743 70.5691C66.554 70.9181 66.1614 71.645 65.3618 71.9212C64.5332 72.212 63.8208 71.8485 63.3119 71.5868C63.1084 71.4851 62.774 71.3251 62.7013 71.3542C62.367 71.5141 62.178 73.3314 62.9776 74.9888C63.6027 76.2972 64.6785 77.0532 65.4781 77.4603C65.7398 77.5911 65.8561 77.9255 65.7108 78.1872C65.5945 78.3616 65.4055 78.478 65.2019 78.478Z" fill="#7D662D"/>
<path d="M62.934 58.2989C62.7014 58.2989 62.4979 58.1535 62.4106 57.9209C61.233 54.4172 63.9517 51.6985 64.8385 51.2478C65.1002 51.1025 65.4346 51.2188 65.58 51.4805C65.7253 51.7421 65.609 52.0765 65.3474 52.2219C64.9548 52.4254 62.4542 54.5916 63.4574 57.572C63.5592 57.8627 63.3992 58.1681 63.1085 58.2698C63.0503 58.2844 62.9922 58.2989 62.934 58.2989Z" fill="#7D662D"/>
<path d="M76.5858 60.4215L66.7579 60.4651C66.4526 60.4651 66.2054 60.2179 66.2054 59.9272C66.2054 59.6219 66.4526 59.3747 66.7434 59.3747L76.5712 59.3311C76.8765 59.3311 77.1237 59.5782 77.1237 59.869C77.1382 60.1743 76.8911 60.4215 76.5858 60.4215Z" fill="#7D662D"/>
<path d="M76.629 70.2494L66.8011 70.293C66.4958 70.293 66.2487 70.0458 66.2487 69.7551C66.2487 69.4498 66.4958 69.2026 66.7866 69.2026L76.6144 69.159C76.9197 69.159 77.1669 69.4061 77.1669 69.6969C77.1814 70.0022 76.9343 70.2494 76.629 70.2494Z" fill="#7D662D"/>
<path d="M51.0151 134.087L51.0296 136.5L47.5986 136.355L49.6049 139.102L47.4677 140.396L45.7522 137.314L44.0658 140.411L41.9432 139.131L43.8913 136.369L40.5039 136.529L40.4894 134.116L43.8768 134.29L41.8996 131.513L44.0076 130.219L45.7232 133.302L47.4096 130.205L49.5613 131.484L47.584 134.276L51.0151 134.087Z" fill="white"/>
<path d="M68.6791 133.999L68.6937 136.413L65.2626 136.282L67.2689 139.03L65.1318 140.324L63.4308 137.242L61.7444 140.338L59.6363 139.059L61.5844 136.297L58.197 136.456L58.1825 134.043L61.5699 134.218L59.5927 131.441L61.7008 130.147L63.4163 133.229L65.1027 130.132L67.2544 131.412L65.2772 134.203L68.6791 133.999Z" fill="white"/>
<path d="M86.3577 133.927L86.3723 136.34L82.9412 136.209L84.9475 138.957L82.8104 140.251L81.0949 137.169L79.4084 140.265L77.2859 138.986L79.234 136.224L75.8466 136.384L75.832 133.97L79.2194 134.145L77.2422 131.368L79.3503 130.074L81.0658 133.156L82.7522 130.06L84.9039 131.339L82.9267 134.13L86.3577 133.927Z" fill="white"/>
<path d="M104.022 133.854L104.036 136.267L100.605 136.137L102.611 138.884L100.474 140.178L98.7587 137.096L97.0723 140.193L94.9497 138.913L96.8978 136.151L93.5104 136.326L93.4958 133.912L96.8833 134.087L94.9061 131.31L97.0141 130.016L98.7296 133.098L100.416 130.001L102.568 131.281L100.591 134.072L104.022 133.854Z" fill="white"/>
<path d="M133.927 133.723L133.941 136.137L130.51 136.006L132.516 138.753L130.379 140.047L128.678 136.965L126.992 140.062L124.884 138.783L126.832 136.02L123.445 136.18L123.43 133.767L126.817 133.941L124.84 131.164L126.948 129.871L128.649 132.953L130.336 129.856L132.487 131.135L130.496 133.927L133.927 133.723Z" fill="white"/>
<path d="M151.591 133.65L151.605 136.064L148.174 135.933L150.18 138.681L148.043 139.975L146.342 136.893L144.656 139.989L142.548 138.71L144.496 135.948L141.109 136.122L141.094 133.709L144.481 133.883L142.504 131.106L144.612 129.812L146.328 132.895L148.014 129.798L150.166 131.077L148.189 133.869L151.591 133.65Z" fill="white"/>
<path d="M169.269 133.578L169.284 135.991L165.853 135.86L167.859 138.608L165.722 139.902L164.021 136.82L162.335 139.916L160.227 138.637L162.175 135.875L158.787 136.049L158.773 133.636L162.16 133.81L160.183 131.034L162.291 129.74L164.006 132.822L165.693 129.725L167.845 131.005L165.867 133.796L169.269 133.578Z" fill="white"/>
<path d="M186.933 133.491L186.948 135.904L183.517 135.773L185.523 138.521L183.386 139.815L181.67 136.733L179.984 139.829L177.861 138.55L179.81 135.788L176.422 135.962L176.408 133.549L179.795 133.723L177.818 130.946L179.926 129.652L181.641 132.735L183.328 129.638L185.479 130.917L183.502 133.709L186.933 133.491Z" fill="white"/>
<path d="M216.838 133.36L216.853 135.773L213.422 135.642L215.428 138.39L213.291 139.684L211.59 136.602L209.903 139.698L207.795 138.419L209.743 135.657L206.356 135.831L206.342 133.418L209.729 133.592L207.752 130.815L209.86 129.522L211.561 132.604L213.247 129.507L215.399 130.786L213.407 133.578L216.838 133.36Z" fill="white"/>
<path d="M234.502 133.287L234.517 135.7L231.086 135.57L233.092 138.317L230.955 139.611L229.254 136.529L227.568 139.626L225.46 138.346L227.408 135.584L224.02 135.759L224.006 133.345L227.393 133.52L225.416 130.743L227.524 129.449L229.225 132.531L230.911 129.434L233.063 130.714L231.071 133.505L234.502 133.287Z" fill="white"/>
<path d="M252.181 133.214L252.195 135.628L248.764 135.497L250.771 138.245L248.633 139.538L246.933 136.456L245.246 139.553L243.138 138.274L245.086 135.511L241.699 135.686L241.684 133.273L245.072 133.447L243.094 130.67L245.202 129.376L246.918 132.458L248.604 129.362L250.756 130.641L248.779 133.432L252.181 133.214Z" fill="white"/>
<path d="M269.845 133.142L269.86 135.555L266.429 135.424L268.435 138.172L266.298 139.466L264.597 136.384L262.91 139.48L260.802 138.201L262.75 135.439L259.363 135.599L259.348 133.185L262.736 133.36L260.759 130.583L262.867 129.289L264.568 132.371L266.254 129.274L268.406 130.554L266.414 133.345L269.845 133.142Z" fill="white"/>
<path d="M288.512 156.039L288.497 153.175L297.758 143.638C300.23 141.138 301.465 139.001 301.465 137.212C301.465 135.729 301 134.581 300.099 133.752C299.198 132.924 298.078 132.517 296.784 132.531C294.298 132.546 292.495 133.723 291.376 136.093L288.425 134.377C289.253 132.662 290.387 131.368 291.856 130.481C293.324 129.594 294.952 129.144 296.726 129.144C298.936 129.129 300.855 129.856 302.498 131.31C304.141 132.764 304.955 134.712 304.969 137.183C304.984 139.844 303.428 142.751 300.302 145.906L293.6 152.637L305.522 152.579L305.536 155.967L288.512 156.039Z" fill="white"/>
<path d="M321.281 140.324C323.287 140.687 324.945 141.559 326.239 142.911C327.532 144.263 328.172 145.979 328.187 148.072C328.201 150.631 327.329 152.667 325.584 154.149C323.825 155.632 321.703 156.388 319.188 156.403C317.181 156.417 315.393 155.967 313.837 155.051C312.282 154.135 311.162 152.826 310.508 151.096L313.445 149.352C314.23 151.78 316.149 152.986 319.188 152.986C320.816 152.986 322.153 152.55 323.171 151.692C324.203 150.835 324.712 149.643 324.698 148.116C324.698 146.59 324.174 145.383 323.142 144.525C322.11 143.667 320.772 143.246 319.144 143.246H318.243L316.847 141.109L322.909 132.836L311.191 132.895L311.177 129.623L326.995 129.551L326.98 132.633L321.281 140.324Z" fill="white"/>
<path d="M354.21 147.462L354.225 150.733L351.026 150.748L351.041 155.763L347.537 155.778L347.523 150.762L334.075 150.82L334.06 147.549L343.437 129.42L347.203 129.405L337.826 147.535L347.508 147.491L347.479 140.033L350.983 140.018L351.012 147.476L354.21 147.462Z" fill="white"/>
<path d="M367.963 139.611C370.45 139.597 372.558 140.324 374.288 141.792C376.018 143.246 376.89 145.281 376.89 147.869C376.904 150.428 376.032 152.449 374.273 153.946C372.514 155.443 370.391 156.185 367.876 156.199C365.87 156.214 364.067 155.734 362.483 154.775C360.898 153.815 359.778 152.419 359.153 150.588L362.119 148.887C362.483 150.166 363.151 151.14 364.169 151.794C365.172 152.463 366.408 152.783 367.862 152.783C369.519 152.783 370.857 152.347 371.889 151.489C372.921 150.631 373.43 149.439 373.415 147.898C373.415 146.372 372.892 145.165 371.86 144.307C370.827 143.449 369.505 143.013 367.905 143.028L360.447 143.057L361.334 129.376L375.8 129.318L375.814 132.589L364.547 132.633L364.111 139.64L367.963 139.611Z" fill="white"/>
<path d="M43.1352 229.122C41.5942 229.122 40.3148 228.628 39.3117 227.61C38.3085 226.607 37.7997 225.357 37.7997 223.874C37.7997 222.391 38.294 221.14 39.2826 220.123C40.2857 219.105 41.5506 218.582 43.0916 218.582C44.0221 218.582 44.8798 218.8 45.6649 219.236C46.4499 219.672 47.0606 220.268 47.4967 221.024L46.3191 221.707C46.0283 221.14 45.5922 220.704 45.0107 220.37C44.4291 220.036 43.7894 219.876 43.0916 219.876C41.914 219.876 40.969 220.268 40.2276 221.024C39.4861 221.78 39.1227 222.725 39.1227 223.859C39.1227 224.979 39.5007 225.924 40.2421 226.68C40.9836 227.436 41.9431 227.814 43.1207 227.799C43.8185 227.799 44.4582 227.625 45.0252 227.29C45.5922 226.956 46.0283 226.505 46.3191 225.953L47.4967 226.621C47.0751 227.377 46.4645 227.988 45.694 228.439C44.9234 228.889 44.0657 229.122 43.1352 229.122Z" fill="white"/>
<path d="M54.8822 221.621H56.147L56.1761 228.891H54.9113V227.64C54.2861 228.6 53.3702 229.08 52.1781 229.094C51.1604 229.094 50.2881 228.731 49.5757 227.989C48.8488 227.248 48.4999 226.346 48.4854 225.285C48.4854 224.224 48.8343 223.308 49.5466 222.566C50.259 221.825 51.1313 221.447 52.149 221.447C53.3557 221.447 54.2716 221.912 54.8967 222.872L54.8822 221.621ZM52.3235 227.873C53.0649 227.873 53.6755 227.626 54.1698 227.117C54.6641 226.623 54.9113 225.997 54.8967 225.256C54.8822 224.515 54.6496 223.904 54.1407 223.41C53.6464 222.915 53.0213 222.668 52.2944 222.668C51.5675 222.668 50.9569 222.93 50.4626 223.424C49.9683 223.919 49.7211 224.544 49.7356 225.285C49.7356 226.027 49.9828 226.637 50.4916 227.131C50.9859 227.626 51.5965 227.873 52.3235 227.873Z" fill="white"/>
<path d="M59.3306 222.828C59.7377 221.927 60.4937 221.476 61.5986 221.462V222.785C60.9734 222.755 60.4501 222.93 59.9994 223.279C59.5632 223.642 59.3306 224.224 59.3452 225.009L59.3597 228.862H58.0949L58.0658 221.592H59.3306V222.828Z" fill="white"/>
<path d="M68.4463 218.656H69.7111L69.7547 228.832H68.4899V227.582C67.8647 228.542 66.9488 229.021 65.7422 229.036C64.7245 229.036 63.8522 228.673 63.1398 227.931C62.4129 227.19 62.0494 226.288 62.0494 225.227C62.0494 224.166 62.3984 223.25 63.1107 222.508C63.8231 221.767 64.6954 221.389 65.7131 221.389C66.9198 221.389 67.8357 221.854 68.4608 222.814L68.4463 218.656ZM65.8875 227.815C66.629 227.815 67.2396 227.568 67.7339 227.059C68.2282 226.564 68.4753 225.939 68.4608 225.198C68.4463 224.456 68.2137 223.846 67.7048 223.352C67.2105 222.857 66.5854 222.61 65.8585 222.61C65.1315 222.61 64.5209 222.872 64.0266 223.366C63.5323 223.86 63.2852 224.486 63.2997 225.227C63.3143 225.968 63.5469 226.579 64.0557 227.073C64.5646 227.568 65.1606 227.815 65.8875 227.815Z" fill="white"/>
<path d="M81.6762 218.598H83.0137L83.0573 228.774H81.7198L81.7052 224.195L76.7622 224.209L76.7768 228.789H75.4247L75.3811 218.612H76.7332L76.7477 222.93L81.6907 222.915L81.6762 218.598Z" fill="white"/>
<path d="M91.2422 227.815C90.5007 228.556 89.5994 228.92 88.5235 228.934C87.4622 228.934 86.5463 228.571 85.8049 227.844C85.0634 227.117 84.6854 226.201 84.6854 225.125C84.6854 224.049 85.0489 223.148 85.7903 222.406C86.5318 221.665 87.4332 221.302 88.4944 221.287C89.5557 221.273 90.4717 221.651 91.2131 222.377C91.9546 223.104 92.3325 224.02 92.3471 225.096C92.3471 226.172 91.9836 227.073 91.2422 227.815ZM88.5235 227.698C89.2504 227.698 89.861 227.451 90.3553 226.942C90.8496 226.448 91.0968 225.838 91.0823 225.096C91.0677 224.355 90.8351 223.744 90.3263 223.25C89.832 222.755 89.2214 222.508 88.4944 222.523C87.7821 222.523 87.1715 222.77 86.6772 223.279C86.1829 223.773 85.9357 224.384 85.9503 225.125C85.9648 225.867 86.1974 226.477 86.7062 226.972C87.2005 227.451 87.7966 227.698 88.5235 227.698Z" fill="white"/>
<path d="M93.8593 228.716L93.8157 218.103H95.0805L95.1241 228.716H93.8593Z" fill="white"/>
<path d="M103.033 218.51H104.298L104.341 228.687H103.076V227.437C102.451 228.396 101.535 228.876 100.329 228.891C99.311 228.891 98.4387 228.527 97.7264 227.786C97.014 227.044 96.636 226.143 96.636 225.082C96.636 224.02 96.9849 223.104 97.6973 222.363C98.4097 221.622 99.2819 221.244 100.3 221.244C101.506 221.244 102.422 221.709 103.047 222.668L103.033 218.51ZM100.489 227.655C101.23 227.655 101.841 227.393 102.335 226.899C102.829 226.405 103.076 225.779 103.062 225.038C103.047 224.297 102.815 223.686 102.306 223.192C101.812 222.697 101.186 222.45 100.46 222.45C99.7326 222.45 99.122 222.712 98.6277 223.206C98.1334 223.7 97.8863 224.326 97.9008 225.067C97.9154 225.809 98.148 226.419 98.6568 226.913C99.1366 227.422 99.7617 227.669 100.489 227.655Z" fill="white"/>
<path d="M107.133 225.605C107.263 226.259 107.554 226.753 108.034 227.117C108.514 227.48 109.081 227.655 109.779 227.64C110.738 227.64 111.436 227.277 111.872 226.564L112.948 227.175C112.25 228.28 111.189 228.818 109.764 228.832C108.616 228.832 107.671 228.484 106.944 227.757C106.217 227.044 105.853 226.128 105.853 225.023C105.853 223.933 106.202 223.017 106.9 222.29C107.598 221.563 108.514 221.2 109.648 221.185C110.709 221.185 111.581 221.549 112.265 222.305C112.933 223.046 113.282 223.962 113.282 225.009C113.282 225.198 113.268 225.387 113.239 225.576L107.133 225.605ZM109.633 222.392C108.95 222.392 108.397 222.581 107.947 222.974C107.496 223.352 107.234 223.875 107.118 224.515L111.974 224.5C111.858 223.817 111.596 223.293 111.145 222.93C110.724 222.566 110.215 222.392 109.633 222.392Z" fill="white"/>
<path d="M115.972 222.581C116.379 221.68 117.135 221.229 118.225 221.214V222.537C117.6 222.508 117.077 222.683 116.626 223.032C116.19 223.395 115.957 223.977 115.957 224.762L115.972 228.614H114.707L114.678 221.345H115.943L115.972 222.581Z" fill="white"/>
<path d="M126.716 221.127C127.573 221.127 128.257 221.389 128.766 221.927C129.274 222.465 129.536 223.192 129.551 224.108L129.565 228.571H128.3L128.286 224.18C128.286 223.584 128.126 223.134 127.806 222.814C127.486 222.494 127.036 222.334 126.483 222.334C125.858 222.334 125.349 222.537 124.957 222.93C124.564 223.323 124.375 223.933 124.39 224.747L124.404 228.6H123.139L123.11 221.331H124.375V222.378C124.869 221.549 125.654 221.127 126.716 221.127Z" fill="white"/>
<path d="M137.314 221.273H138.579L138.608 228.542H137.343V227.291C136.718 228.251 135.802 228.731 134.595 228.745C133.578 228.745 132.705 228.382 131.993 227.64C131.266 226.899 130.903 225.998 130.903 224.936C130.903 223.875 131.252 222.959 131.964 222.218C132.676 221.476 133.549 221.098 134.566 221.098C135.773 221.098 136.689 221.563 137.314 222.523V221.273ZM134.755 227.509C135.497 227.509 136.107 227.262 136.602 226.753C137.096 226.259 137.343 225.634 137.329 224.893C137.314 224.151 137.081 223.541 136.573 223.046C136.078 222.552 135.453 222.305 134.726 222.305C133.999 222.305 133.389 222.566 132.894 223.061C132.4 223.555 132.153 224.18 132.168 224.922C132.182 225.663 132.415 226.274 132.924 226.768C133.403 227.262 134.028 227.509 134.755 227.509Z" fill="white"/>
<path d="M148.334 221.025C149.148 221.025 149.802 221.287 150.311 221.811C150.82 222.334 151.067 223.046 151.082 223.948L151.096 228.469H149.831L149.817 223.991C149.817 223.424 149.671 223.003 149.381 222.683C149.09 222.377 148.697 222.218 148.218 222.218C147.68 222.218 147.244 222.407 146.924 222.77C146.604 223.133 146.444 223.686 146.444 224.442L146.458 228.484H145.194L145.179 224.006C145.179 223.439 145.034 223.017 144.758 222.697C144.481 222.377 144.103 222.232 143.624 222.232C143.086 222.232 142.649 222.421 142.301 222.785C141.952 223.148 141.777 223.715 141.777 224.442L141.792 228.484H140.527L140.498 221.214H141.763V222.189C142.257 221.403 142.969 221.025 143.929 221.011C144.903 221.011 145.615 221.418 146.066 222.232C146.56 221.447 147.316 221.04 148.334 221.025Z" fill="white"/>
<path d="M153.728 225.416C153.859 226.07 154.149 226.565 154.629 226.928C155.094 227.291 155.676 227.466 156.374 227.466C157.333 227.466 158.031 227.102 158.467 226.39L159.543 227.001C158.845 228.106 157.784 228.658 156.359 228.658C155.211 228.658 154.266 228.309 153.539 227.582C152.812 226.87 152.448 225.954 152.448 224.849C152.448 223.759 152.797 222.843 153.495 222.116C154.193 221.389 155.109 221.025 156.243 221.011C157.304 221.011 158.176 221.374 158.86 222.13C159.528 222.872 159.877 223.773 159.877 224.834C159.877 225.023 159.863 225.212 159.834 225.401L153.728 225.416ZM156.228 222.189C155.545 222.189 154.993 222.392 154.542 222.77C154.091 223.148 153.83 223.671 153.713 224.311L158.569 224.297C158.453 223.613 158.191 223.09 157.74 222.726C157.319 222.363 156.81 222.189 156.228 222.189Z" fill="white"/>
<path d="M355.679 223.001L351.87 223.016L351.884 226.549L356.129 226.534V227.595L350.619 227.624L350.576 217.826L355.868 217.797V218.858L351.841 218.872L351.855 221.969L355.664 221.954L355.679 223.001Z" fill="white"/>
<path d="M358.31 220.546L359.313 222.058C359.575 222.45 359.793 222.814 360.026 223.206H360.069C360.302 222.784 360.534 222.421 360.767 222.043L361.756 220.546H363.137L360.753 223.962L363.239 227.582H361.785L360.753 225.997C360.476 225.59 360.244 225.198 359.997 224.776H359.967C359.735 225.198 359.488 225.576 359.226 225.997L358.208 227.582H356.798L359.284 223.977L356.885 220.546H358.31Z" fill="white"/>
<path d="M364.445 222.814C364.445 221.912 364.416 221.185 364.373 220.517H365.521L365.579 221.723H365.608C366.132 220.865 366.96 220.357 368.094 220.342C369.795 220.342 371.075 221.767 371.089 223.904C371.104 226.434 369.563 227.684 367.905 227.698C366.975 227.698 366.161 227.291 365.739 226.608H365.71L365.725 230.432H364.46L364.445 222.814ZM365.71 224.689C365.71 224.878 365.739 225.052 365.768 225.212C366.001 226.099 366.771 226.71 367.687 226.695C369.039 226.695 369.824 225.576 369.81 223.962C369.81 222.552 369.054 221.345 367.702 221.36C366.83 221.36 366.015 221.999 365.768 222.959C365.725 223.119 365.681 223.308 365.681 223.482L365.71 224.689Z" fill="white"/>
<path d="M374.113 218.496C374.128 218.932 373.808 219.281 373.299 219.281C372.848 219.281 372.529 218.932 372.529 218.496C372.529 218.045 372.863 217.696 373.328 217.696C373.808 217.696 374.113 218.045 374.113 218.496ZM372.732 227.509L372.703 220.473H373.982L374.012 227.509H372.732Z" fill="white"/>
<path d="M376.119 222.668C376.119 221.84 376.105 221.127 376.047 220.473H377.166L377.21 221.854H377.268C377.588 220.909 378.344 220.313 379.201 220.298C379.347 220.298 379.449 220.313 379.565 220.342V221.549C379.434 221.52 379.303 221.505 379.129 221.505C378.227 221.505 377.588 222.188 377.428 223.148C377.399 223.322 377.37 223.526 377.37 223.744L377.384 227.495H376.119V222.668Z" fill="white"/>
<path d="M381.688 220.444L383.243 224.587C383.403 225.052 383.578 225.605 383.694 226.026H383.723C383.854 225.605 383.999 225.067 384.174 224.558L385.555 220.429H386.907L385.017 225.445C384.115 227.858 383.49 229.094 382.618 229.865C381.993 230.417 381.368 230.635 381.048 230.708L380.728 229.632C381.048 229.53 381.469 229.327 381.847 229.007C382.196 228.731 382.633 228.236 382.923 227.582C382.981 227.451 383.025 227.349 383.025 227.277C383.025 227.204 382.996 227.102 382.938 226.942L380.306 220.473L381.688 220.444Z" fill="white"/>
<path d="M391.181 217.769C391.952 217.652 392.868 217.565 393.871 217.551C395.688 217.536 396.982 217.958 397.84 218.757C398.712 219.557 399.235 220.676 399.235 222.261C399.25 223.86 398.756 225.169 397.84 226.07C396.924 226.986 395.412 227.495 393.522 227.495C392.62 227.495 391.864 227.466 391.225 227.393L391.181 217.769ZM392.475 226.419C392.795 226.477 393.26 226.492 393.754 226.492C396.458 226.477 397.912 224.965 397.912 222.319C397.912 220.008 396.604 218.554 393.929 218.554C393.275 218.554 392.78 218.612 392.446 218.685L392.475 226.419Z" fill="white"/>
<path d="M404.745 227.379L404.644 226.492H404.6C404.207 227.044 403.451 227.539 402.448 227.553C401.024 227.553 400.297 226.564 400.282 225.547C400.282 223.846 401.779 222.915 404.498 222.915V222.77C404.498 222.188 404.324 221.142 402.899 221.156C402.245 221.156 401.561 221.36 401.067 221.694L400.776 220.851C401.358 220.473 402.201 220.226 403.088 220.211C405.24 220.197 405.763 221.665 405.778 223.075L405.792 225.707C405.792 226.317 405.821 226.913 405.908 227.393L404.745 227.379ZM404.542 223.788C403.146 223.759 401.561 224.02 401.576 225.387C401.576 226.216 402.128 226.608 402.783 226.608C403.699 226.608 404.28 226.027 404.484 225.416C404.527 225.285 404.556 225.14 404.556 225.009L404.542 223.788Z" fill="white"/>
<path d="M409.296 218.307L409.31 220.328L411.142 220.313V221.287L409.31 221.302L409.325 225.096C409.325 225.968 409.572 226.463 410.284 226.463C410.619 226.463 410.866 226.419 411.026 226.375L411.084 227.335C410.837 227.437 410.444 227.509 409.95 227.509C409.354 227.509 408.874 227.32 408.569 226.972C408.205 226.594 408.075 225.968 408.075 225.14L408.06 221.302H406.97V220.328H408.06V218.641L409.296 218.307Z" fill="white"/>
<path d="M413.221 224.049C413.265 225.779 414.37 226.477 415.649 226.477C416.565 226.477 417.117 226.317 417.597 226.114L417.815 227.03C417.364 227.233 416.594 227.466 415.475 227.48C413.308 227.495 412.014 226.07 412 223.948C411.985 221.825 413.236 220.153 415.285 220.139C417.583 220.124 418.193 222.145 418.208 223.439C418.208 223.7 418.179 223.904 418.164 224.035L413.221 224.049ZM416.972 223.119C416.986 222.305 416.623 221.04 415.184 221.054C413.89 221.054 413.323 222.247 413.236 223.133L416.972 223.119Z" fill="white"/>
<path d="M361.072 255.83C360.025 257.298 358.557 258.04 356.653 258.054C354.763 258.054 353.28 257.327 352.218 255.874C351.157 254.405 350.619 252.457 350.619 250.015C350.605 247.572 351.128 245.61 352.175 244.141C353.222 242.673 354.69 241.931 356.594 241.917C358.484 241.902 359.967 242.629 361.029 244.098C362.09 245.566 362.628 247.514 362.628 249.956C362.642 252.399 362.119 254.362 361.072 255.83ZM353.73 254.463C354.414 255.51 355.388 256.033 356.653 256.033C357.917 256.033 358.891 255.496 359.575 254.449C360.258 253.388 360.592 251.905 360.592 249.971C360.592 248.037 360.229 246.555 359.546 245.493C358.848 244.432 357.874 243.909 356.609 243.923C355.344 243.923 354.385 244.461 353.701 245.508C353.018 246.569 352.684 248.067 352.698 250C352.698 251.919 353.047 253.417 353.73 254.463Z" fill="white"/>
<path d="M364.169 257.734V256.048L369.635 250.422C371.089 248.953 371.831 247.689 371.816 246.627C371.816 245.755 371.54 245.072 371.002 244.592C370.464 244.098 369.81 243.865 369.039 243.865C367.571 243.865 366.51 244.577 365.841 245.973L364.096 244.955C364.576 243.938 365.259 243.182 366.117 242.658C366.975 242.135 367.934 241.873 368.996 241.873C370.304 241.873 371.438 242.295 372.398 243.153C373.372 244.01 373.851 245.159 373.851 246.613C373.851 248.183 372.935 249.898 371.104 251.759L367.149 255.728L374.186 255.699L374.2 257.705L364.169 257.734Z" fill="white"/>
<path d="M377.093 259.872L375.945 259.901L384.755 239.881L385.918 239.852L377.093 259.872Z" fill="white"/>
<path d="M393.798 248.415C394.99 248.633 395.964 249.142 396.72 249.942C397.476 250.742 397.868 251.759 397.868 252.98C397.868 254.492 397.36 255.685 396.327 256.571C395.295 257.444 394.03 257.894 392.547 257.894C391.37 257.894 390.309 257.633 389.393 257.095C388.477 256.557 387.823 255.772 387.43 254.754L389.16 253.722C389.625 255.161 390.759 255.874 392.547 255.859C393.507 255.859 394.292 255.597 394.903 255.088C395.513 254.58 395.804 253.882 395.804 252.966C395.804 252.065 395.499 251.352 394.888 250.843C394.277 250.334 393.492 250.087 392.533 250.087H391.995L391.166 248.822L394.743 243.938L387.823 243.967L387.808 242.033L397.142 241.99V243.807L393.798 248.415Z" fill="white"/>
<path d="M410.139 255.612C409.092 257.08 407.624 257.822 405.719 257.836C403.815 257.851 402.346 257.109 401.285 255.656C400.224 254.187 399.686 252.239 399.686 249.797C399.671 247.354 400.195 245.392 401.241 243.923C402.288 242.455 403.756 241.713 405.661 241.699C407.566 241.684 409.034 242.426 410.095 243.88C411.156 245.333 411.694 247.296 411.694 249.738C411.694 252.195 411.186 254.144 410.139 255.612ZM402.797 254.245C403.48 255.292 404.454 255.815 405.719 255.815C406.984 255.815 407.958 255.278 408.627 254.231C409.31 253.169 409.644 251.687 409.644 249.753C409.644 247.819 409.281 246.337 408.598 245.275C407.9 244.214 406.926 243.691 405.661 243.705C404.396 243.705 403.437 244.243 402.753 245.29C402.085 246.351 401.736 247.848 401.75 249.782C401.765 251.716 402.114 253.199 402.797 254.245Z" fill="white"/>
<path d="M395.746 80.7597C406.015 80.7597 414.34 72.4347 414.34 62.1653C414.34 51.8959 406.015 43.5709 395.746 43.5709C385.477 43.5709 377.151 51.8959 377.151 62.1653C377.151 72.4347 385.477 80.7597 395.746 80.7597Z" fill="white"/>
<path d="M420.621 80.6585C410.371 80.7022 401.983 72.4008 401.939 62.1368C401.896 51.8728 410.211 43.4988 420.461 43.4551C430.71 43.4115 439.099 51.7129 439.143 61.9769C439.186 72.2409 430.885 80.6149 420.621 80.6585ZM420.49 49.6484C413.657 49.6775 408.118 55.2602 408.147 62.1077C408.176 68.9407 413.759 74.4798 420.606 74.4507C427.439 74.4216 432.978 68.8389 432.949 61.9914C432.92 55.1584 427.323 49.6194 420.49 49.6484Z" fill="white"/>
<path d="M44.9508 250L40.7506 243.902V250H37.6061V234.67H42.3229C44.247 234.67 45.6958 235.075 46.6691 235.883C47.0509 236.183 47.3541 236.55 47.5787 236.984C47.983 237.74 48.1852 238.575 48.1852 239.488C48.1852 240.948 47.721 242.109 46.7926 242.97C46.2161 243.501 45.4674 243.883 44.5465 244.115L48.7692 250H44.9508ZM40.7506 237.276V242.06H42.1881C43.0042 242.06 43.6518 241.888 44.131 241.543C44.7075 241.117 44.9957 240.488 44.9957 239.657C44.9957 238.96 44.7861 238.395 44.3668 237.961C43.9326 237.504 43.2924 237.276 42.4464 237.276H40.7506ZM59.0226 240.712V239.365H61.9537V250H59.0226V248.54C58.0568 249.76 56.8252 250.371 55.3278 250.371C53.7031 250.371 52.3966 249.768 51.4083 248.562C50.5922 247.567 50.1842 246.316 50.1842 244.811C50.1842 243.688 50.4425 242.648 50.9591 241.689C51.3934 240.881 52.011 240.233 52.8121 239.747C53.6207 239.252 54.5304 239.005 55.5411 239.005C56.3722 239.005 57.1209 239.204 57.7872 239.601C58.1915 239.84 58.6033 240.211 59.0226 240.712ZM56.1476 241.476C55.2267 241.476 54.5079 241.832 53.9913 242.543C53.5346 243.179 53.3063 243.921 53.3063 244.767C53.3063 245.777 53.617 246.593 54.2384 247.215C54.77 247.746 55.3989 248.012 56.1251 248.012C57.0086 248.012 57.7386 247.645 58.3151 246.912C58.8167 246.275 59.0675 245.53 59.0675 244.677C59.0675 243.831 58.8429 243.116 58.3937 242.532C57.8471 241.828 57.0984 241.476 56.1476 241.476ZM68.7594 245.71L71.1066 239.365H74.1051L70.2306 250H67.2096L63.3688 239.365H66.401L68.7594 245.71ZM75.5201 239.365H78.4513V250H75.5201V239.365ZM77.0026 234.693C77.4892 234.693 77.8823 234.861 78.1818 235.198C78.4663 235.52 78.6085 235.902 78.6085 236.344C78.6085 236.838 78.4251 237.246 78.0582 237.568C77.7812 237.815 77.4256 237.938 76.9913 237.938C76.4972 237.938 76.0966 237.774 75.7897 237.444C75.5052 237.122 75.3629 236.748 75.3629 236.321C75.3629 235.805 75.5463 235.385 75.9132 235.063C76.1902 234.816 76.5533 234.693 77.0026 234.693ZM87.5255 245.519H90.5914C90.5914 245.923 90.6401 246.227 90.7374 246.429C90.9096 246.766 91.1829 247.035 91.5573 247.237C91.9091 247.417 92.2872 247.507 92.6915 247.507C93.2905 247.507 93.7959 247.331 94.2076 246.979C94.5446 246.672 94.713 246.301 94.713 245.867C94.713 245.373 94.5034 244.969 94.0841 244.654C93.7771 244.43 93.1557 244.149 92.2198 243.812C90.7299 243.288 89.6406 242.723 88.9518 242.116C88.0908 241.367 87.6603 240.334 87.6603 239.017C87.6603 237.557 88.1582 236.407 89.1539 235.569C90.0823 234.775 91.2765 234.378 92.7365 234.378C94.144 234.378 95.3045 234.76 96.2179 235.524C97.2062 236.37 97.7677 237.549 97.9025 239.061H94.713C94.6157 237.796 93.9493 237.164 92.714 237.164C92.0776 237.164 91.5947 237.339 91.2653 237.691C90.9808 237.998 90.8385 238.358 90.8385 238.77C90.8385 239.398 91.153 239.885 91.7819 240.229C92.1038 240.402 92.7028 240.649 93.5787 240.971C94.6793 241.367 95.4879 241.734 96.0045 242.071C97.3297 242.925 97.9923 244.115 97.9923 245.643C97.9923 247.26 97.3634 248.495 96.1056 249.349C95.1772 249.978 94.0467 250.292 92.714 250.292C91.1866 250.292 89.97 249.906 89.0641 249.135C88.0234 248.267 87.5105 247.061 87.5255 245.519ZM108.392 240.712V239.365H111.323V250H108.392V248.54C107.426 249.76 106.194 250.371 104.697 250.371C103.072 250.371 101.766 249.768 100.777 248.562C99.9614 247.567 99.5533 246.316 99.5533 244.811C99.5533 243.688 99.8116 242.648 100.328 241.689C100.762 240.881 101.38 240.233 102.181 239.747C102.99 239.252 103.9 239.005 104.91 239.005C105.741 239.005 106.49 239.204 107.156 239.601C107.561 239.84 107.972 240.211 108.392 240.712ZM105.517 241.476C104.596 241.476 103.877 241.832 103.36 242.543C102.904 243.179 102.675 243.921 102.675 244.767C102.675 245.777 102.986 246.593 103.608 247.215C104.139 247.746 104.768 248.012 105.494 248.012C106.378 248.012 107.108 247.645 107.684 246.912C108.186 246.275 108.437 245.53 108.437 244.677C108.437 243.831 108.212 243.116 107.763 242.532C107.216 241.828 106.468 241.476 105.517 241.476ZM114.22 250V239.365H117.151V240.915C117.399 240.241 117.709 239.773 118.084 239.511C118.548 239.166 119.117 238.994 119.791 238.994C119.918 238.994 120.038 238.998 120.15 239.005V241.993C119.888 241.97 119.686 241.959 119.544 241.959C118.683 241.959 118.027 242.281 117.578 242.925C117.376 243.232 117.253 243.55 117.208 243.879C117.17 244.194 117.151 244.523 117.151 244.868V250H114.22ZM130.022 240.544V234.67H132.953V250H130.022V248.607C129.61 249.176 129.187 249.581 128.753 249.82C128.094 250.187 127.326 250.371 126.45 250.371C124.803 250.371 123.485 249.805 122.497 248.675C121.621 247.672 121.183 246.373 121.183 244.778C121.183 242.951 121.752 241.51 122.89 240.454C123.931 239.481 125.136 238.994 126.506 238.994C127.18 238.994 127.835 239.125 128.472 239.387C128.966 239.597 129.483 239.982 130.022 240.544ZM127.192 241.454C126.188 241.454 125.413 241.88 124.867 242.734C124.485 243.325 124.294 244.01 124.294 244.789C124.294 245.777 124.586 246.567 125.17 247.159C125.717 247.728 126.383 248.012 127.169 248.012C128.053 248.012 128.771 247.653 129.325 246.934C129.79 246.32 130.022 245.598 130.022 244.767C130.022 243.808 129.756 243.018 129.224 242.397C128.693 241.768 128.015 241.454 127.192 241.454ZM135.85 234.67H138.781V240.499C139.627 239.496 140.589 238.994 141.668 238.994C142.311 238.994 142.929 239.155 143.521 239.477C144.217 239.851 144.681 240.357 144.913 240.993C145.093 241.457 145.183 242.12 145.183 242.981V250H142.252V243.396C142.252 242.708 142.061 242.187 141.679 241.835C141.424 241.588 141.087 241.465 140.668 241.465C140.174 241.465 139.74 241.641 139.365 241.993C139.118 242.232 138.954 242.494 138.871 242.779C138.811 243.033 138.781 243.329 138.781 243.666V250H135.85V234.67ZM156.166 240.712V239.365H159.097V250H156.166V248.54C155.2 249.76 153.969 250.371 152.471 250.371C150.847 250.371 149.54 249.768 148.552 248.562C147.736 247.567 147.328 246.316 147.328 244.811C147.328 243.688 147.586 242.648 148.103 241.689C148.537 240.881 149.155 240.233 149.956 239.747C150.764 239.252 151.674 239.005 152.685 239.005C153.516 239.005 154.264 239.204 154.931 239.601C155.335 239.84 155.747 240.211 156.166 240.712ZM153.291 241.476C152.37 241.476 151.651 241.832 151.135 242.543C150.678 243.179 150.45 243.921 150.45 244.767C150.45 245.777 150.761 246.593 151.382 247.215C151.914 247.746 152.542 248.012 153.269 248.012C154.152 248.012 154.882 247.645 155.459 246.912C155.96 246.275 156.211 245.53 156.211 244.677C156.211 243.831 155.986 243.116 155.537 242.532C154.991 241.828 154.242 241.476 153.291 241.476ZM161.995 250V239.365H164.926V240.915C165.173 240.241 165.484 239.773 165.858 239.511C166.322 239.166 166.891 238.994 167.565 238.994C167.692 238.994 167.812 238.998 167.924 239.005V241.993C167.662 241.97 167.46 241.959 167.318 241.959C166.457 241.959 165.802 242.281 165.353 242.925C165.151 243.232 165.027 243.55 164.982 243.879C164.945 244.194 164.926 244.523 164.926 244.868V250H161.995ZM177.796 240.712V239.365H180.727V250H177.796V248.54C176.83 249.76 175.599 250.371 174.101 250.371C172.477 250.371 171.17 249.768 170.182 248.562C169.366 247.567 168.958 246.316 168.958 244.811C168.958 243.688 169.216 242.648 169.733 241.689C170.167 240.881 170.784 240.233 171.586 239.747C172.394 239.252 173.304 239.005 174.315 239.005C175.146 239.005 175.894 239.204 176.561 239.601C176.965 239.84 177.377 240.211 177.796 240.712ZM174.921 241.476C174 241.476 173.281 241.832 172.765 242.543C172.308 243.179 172.08 243.921 172.08 244.767C172.08 245.777 172.39 246.593 173.012 247.215C173.543 247.746 174.172 248.012 174.899 248.012C175.782 248.012 176.512 247.645 177.089 246.912C177.59 246.275 177.841 245.53 177.841 244.677C177.841 243.831 177.616 243.116 177.167 242.532C176.621 241.828 175.872 241.476 174.921 241.476Z" fill="white"/>
<defs>
<linearGradient id="paint0_linear_41_363" x1="53.5233" y1="339.476" x2="425.105" y2="-35.3378" gradientUnits="userSpaceOnUse">
<stop stop-color="#ED1C24"/>
<stop offset="1" stop-color="#FCEE21"/>
</linearGradient>
<linearGradient id="paint1_linear_41_363" x1="114.278" y1="153.095" x2="362.725" y2="152.019" gradientUnits="userSpaceOnUse">
<stop stop-color="#35C4FE"/>
<stop offset="1" stop-color="#FCEE21"/>
</linearGradient>
<linearGradient id="paint2_linear_41_363" x1="158.018" y1="152.441" x2="482.618" y2="151.035" gradientUnits="userSpaceOnUse">
<stop stop-color="#2690BA"/>
<stop offset="1" stop-color="#219DFC"/>
</linearGradient>
<linearGradient id="paint3_linear_41_363" x1="79.2957" y1="152.816" x2="398.892" y2="151.433" gradientUnits="userSpaceOnUse">
<stop stop-color="#35C4FE"/>
<stop offset="1" stop-color="#BCE068"/>
</linearGradient>
<linearGradient id="paint4_linear_41_363" x1="305.724" y1="250.086" x2="483.043" y2="249.318" gradientUnits="userSpaceOnUse">
<stop stop-color="#FE8235"/>
<stop offset="1" stop-color="#FCB721"/>
</linearGradient>
<linearGradient id="paint5_linear_41_363" x1="197.176" y1="198.236" x2="482.816" y2="196.999" gradientUnits="userSpaceOnUse">
<stop stop-color="#A435FE"/>
<stop offset="1" stop-color="#FC2121"/>
</linearGradient>
</defs>
</svg>
