<svg width="484" height="306" viewBox="0 0 484 306" fill="none" xmlns="http://www.w3.org/2000/svg">
<path d="M483.15 28.9114V276.934C483.15 292.893 470.197 305.846 454.239 305.846H28.9114C12.9529 305.846 0 292.893 0 276.934V28.9114C0 12.9529 12.9529 0 28.9114 0H454.253C459.964 0 465.302 1.66026 469.768 4.53709C477.811 9.64668 483.15 18.6636 483.15 28.9114Z" fill="url(#paint0_linear_41_754)"/>
<path d="M483.15 28.9114V217.236C437.707 234.469 386.483 228.658 374.045 206.774C364.928 190.73 383.52 178.22 378.353 148.622C375.891 134.596 369.436 124.348 360.233 114.672C347.91 101.662 330.635 89.7113 311.585 71.0763C299.333 59.0967 269.306 29.7272 252.932 0H454.238C459.949 0 465.288 1.66026 469.768 4.5514C477.826 9.64668 483.15 18.6493 483.15 28.9114Z" fill="url(#paint1_linear_41_754)"/>
<path d="M483.15 94.191V276.934C483.15 292.893 470.211 305.831 454.253 305.831H28.9113C12.9527 305.831 0.0141602 292.893 0.0141602 276.934V136.614C8.34409 128.369 18.091 120.655 29.4408 114.157C64.0487 94.3055 97.4972 95.6366 162.977 99.0859C241.868 103.237 247.422 116.748 302.969 118.465C325.826 119.181 344.432 117.492 360.233 114.672C413.49 105.04 434.587 82.1255 477.425 92.6166C479.328 93.0889 481.232 93.6042 483.15 94.191Z" fill="url(#paint2_linear_41_754)"/>
<path d="M148.837 0C140.965 76.8443 77.9464 137.358 0 141.322V28.9114C0 12.9529 12.9529 0 28.9114 0H148.837Z" fill="url(#paint3_linear_41_754)"/>
<path opacity="0.33" d="M358.645 305.831H155.42L243.214 218.038C250.814 210.452 263.237 210.452 270.837 218.038L358.645 305.831Z" fill="url(#paint4_linear_41_754)"/>
<path opacity="0.27" d="M483.15 273.542V276.92C483.15 292.879 470.197 305.831 454.239 305.831H28.9114C12.9529 305.831 0 292.879 0 276.92V163.192C8.01505 158.927 17.2753 155.678 27.6519 154.533C51.6971 151.914 70.5611 161.933 92.7169 174.055C135.211 197.313 141.895 215.705 165.926 230.991C212.155 260.403 250.141 232.293 328.603 234.24C387.714 235.728 450.489 253.762 483.15 273.542Z" fill="url(#paint5_linear_41_754)"/>
<path opacity="0.53" d="M483.15 28.9114V276.934C483.15 292.893 470.197 305.846 454.239 305.846H28.9114C12.9529 305.846 0 292.893 0 276.934V28.9114C0 12.9529 12.9529 0 28.9114 0H454.253C459.964 0 465.302 1.66026 469.768 4.53709C477.811 9.64668 483.15 18.6636 483.15 28.9114Z" fill="url(#paint6_linear_41_754)"/>
<path d="M50.824 50.4089H41.2918V57.3935H50.4233V60.0986H41.2918V69.23H38.4293V47.6895H50.824V50.4089Z" fill="white"/>
<path d="M55.3755 51.0529C54.8603 51.0529 54.4309 50.8812 54.0874 50.5234C53.7439 50.1799 53.5578 49.7505 53.5578 49.2639C53.5578 48.7772 53.7296 48.3479 54.0874 47.9901C54.4309 47.6322 54.8603 47.4462 55.3755 47.4462C55.8621 47.4462 56.2915 47.6322 56.635 47.9901C56.9785 48.3479 57.1646 48.7772 57.1646 49.2639C57.1646 49.7505 56.9928 50.1799 56.635 50.5234C56.2915 50.8669 55.8764 51.0529 55.3755 51.0529ZM54.0301 69.2299V53.8439H56.7066V69.2299H54.0301Z" fill="white"/>
<path d="M68.457 53.4431C70.2604 53.4431 71.706 54.0156 72.7937 55.1463C73.8815 56.2913 74.4254 57.8228 74.4254 59.7693V69.2156H71.7489V59.9267C71.7489 58.6815 71.4054 57.7083 70.7327 57.0213C70.06 56.3343 69.1154 55.9908 67.9274 55.9908C66.5964 55.9908 65.5229 56.4058 64.6928 57.236C63.8627 58.0661 63.4619 59.3399 63.4619 61.0717V69.2156H60.7855V53.8439H63.4619V56.0623C64.5497 54.3162 66.2242 53.4431 68.457 53.4431Z" fill="white"/>
<path d="M90.8705 53.8439H93.5469V69.2299H90.8705V66.5821C89.5394 68.6145 87.5929 69.6306 85.0595 69.6306C82.9127 69.6306 81.0663 68.8435 79.5492 67.2834C78.0321 65.709 77.2735 63.8054 77.2735 61.544C77.2735 59.2826 78.0321 57.3791 79.5492 55.8047C81.0663 54.2303 82.8983 53.4574 85.0595 53.4574C87.6072 53.4574 89.5394 54.4736 90.8705 56.506V53.8439ZM85.403 67.0401C86.9631 67.0401 88.2656 66.5105 89.3104 65.4514C90.3552 64.3922 90.8848 63.0898 90.8848 61.5297C90.8848 59.9697 90.3552 58.6672 89.3104 57.6081C88.2656 56.5489 86.9631 56.0194 85.403 56.0194C83.8573 56.0194 82.5692 56.5489 81.5243 57.6081C80.4795 58.6672 79.95 59.9697 79.95 61.5297C79.95 63.0898 80.4795 64.3922 81.5243 65.4514C82.5692 66.5105 83.8573 67.0401 85.403 67.0401Z" fill="white"/>
<path d="M104.84 69.6306C102.521 69.6306 100.589 68.8578 99.0576 67.312C97.5118 65.7663 96.7532 63.8484 96.7532 61.544C96.7532 59.2397 97.5261 57.3218 99.0576 55.7761C100.589 54.2303 102.521 53.4574 104.84 53.4574C106.357 53.4574 107.717 53.8152 108.933 54.5452C110.15 55.2751 111.052 56.2484 111.638 57.4793L109.391 58.7674C109.005 57.9516 108.404 57.2932 107.588 56.7923C106.772 56.2913 105.856 56.048 104.84 56.048C103.294 56.048 102.02 56.5776 100.975 57.6224C99.9306 58.6672 99.4297 59.9697 99.4297 61.5297C99.4297 63.0612 99.9449 64.3636 100.975 65.4084C102.006 66.4533 103.294 66.9828 104.84 66.9828C105.87 66.9828 106.786 66.7395 107.602 66.2529C108.418 65.7662 109.048 65.1222 109.477 64.3064L111.753 65.6231C111.094 66.8397 110.15 67.7986 108.919 68.5286C107.702 69.2585 106.328 69.6306 104.84 69.6306Z" fill="white"/>
<path d="M115.76 51.0529C115.245 51.0529 114.816 50.8812 114.472 50.5234C114.129 50.1799 113.942 49.7505 113.942 49.2639C113.942 48.7772 114.114 48.3479 114.472 47.9901C114.816 47.6322 115.245 47.4462 115.76 47.4462C116.247 47.4462 116.676 47.6322 117.02 47.9901C117.363 48.3479 117.549 48.7772 117.549 49.2639C117.549 49.7505 117.377 50.1799 117.02 50.5234C116.662 50.8669 116.247 51.0529 115.76 51.0529ZM114.4 69.2299V53.8439H117.077V69.2299H114.4Z" fill="white"/>
<path d="M48.9777 129.357V131.79L45.514 131.633L47.5321 134.41L45.3566 135.712L43.6391 132.592L41.9216 135.712L39.789 134.41L41.7641 131.633L38.3291 131.79V129.357L41.7641 129.543L39.789 126.724L41.9216 125.421L43.6391 128.541L45.3566 125.421L47.5321 126.724L45.514 129.543L48.9777 129.357Z" fill="white"/>
<path d="M66.8397 129.357V131.79L63.3761 131.633L65.3942 134.41L63.2186 135.712L61.5011 132.592L59.7836 135.712L57.651 134.41L59.6262 131.633L56.1912 131.79V129.357L59.6262 129.543L57.651 126.724L59.7836 125.421L61.5011 128.541L63.2186 125.421L65.3942 126.724L63.3761 129.543L66.8397 129.357Z" fill="white"/>
<path d="M84.7162 129.357V131.79L81.2526 131.633L83.2706 134.41L81.0951 135.712L79.3776 132.592L77.6601 135.712L75.5275 134.41L77.5027 131.633L74.0676 131.79V129.357L77.5027 129.543L75.5275 126.724L77.6601 125.421L79.3776 128.541L81.0951 125.421L83.2706 126.724L81.2526 129.543L84.7162 129.357Z" fill="white"/>
<path d="M102.593 129.357V131.79L99.1291 131.633L101.147 134.41L98.9716 135.712L97.2541 132.592L95.5366 135.712L93.404 134.41L95.3792 131.633L91.9442 131.79V129.357L95.3792 129.543L93.404 126.724L95.5366 125.421L97.2541 128.541L98.9716 125.421L101.147 126.724L99.1291 129.543L102.593 129.357Z" fill="white"/>
<path d="M132.849 129.357V131.79L129.386 131.633L131.404 134.41L129.228 135.712L127.511 132.592L125.793 135.712L123.661 134.41L125.636 131.633L122.201 131.79V129.357L125.636 129.543L123.661 126.724L125.793 125.421L127.511 128.541L129.228 125.421L131.404 126.724L129.386 129.543L132.849 129.357Z" fill="white"/>
<path d="M150.726 129.357V131.79L147.262 131.633L149.28 134.41L147.105 135.712L145.387 132.592L143.67 135.712L141.537 134.41L143.512 131.633L140.077 131.79V129.357L143.512 129.543L141.537 126.724L143.67 125.421L145.387 128.541L147.105 125.421L149.28 126.724L147.262 129.543L150.726 129.357Z" fill="white"/>
<path d="M168.602 129.357V131.79L165.139 131.633L167.157 134.41L164.981 135.712L163.264 132.592L161.546 135.712L159.414 134.41L161.389 131.633L157.954 131.79V129.357L161.389 129.543L159.414 126.724L161.546 125.421L163.264 128.541L164.981 125.421L167.157 126.724L165.139 129.543L168.602 129.357Z" fill="white"/>
<path d="M186.464 129.357V131.79L183.001 131.633L185.019 134.41L182.843 135.712L181.126 132.592L179.408 135.712L177.276 134.41L179.251 131.633L175.816 131.79V129.357L179.251 129.543L177.276 126.724L179.408 125.421L181.126 128.541L182.843 125.421L185.019 126.724L183.001 129.543L186.464 129.357Z" fill="white"/>
<path d="M216.736 129.357V131.79L213.272 131.633L215.29 134.41L213.115 135.712L211.397 132.592L209.68 135.712L207.547 134.41L209.522 131.633L206.087 131.79V129.357L209.522 129.543L207.547 126.724L209.68 125.421L211.397 128.541L213.115 125.421L215.29 126.724L213.272 129.543L216.736 129.357Z" fill="white"/>
<path d="M234.598 129.357V131.79L231.134 131.633L233.152 134.41L230.977 135.712L229.259 132.592L227.542 135.712L225.409 134.41L227.384 131.633L223.949 131.79V129.357L227.384 129.543L225.409 126.724L227.542 125.421L229.259 128.541L230.977 125.421L233.152 126.724L231.134 129.543L234.598 129.357Z" fill="white"/>
<path d="M252.474 129.357V131.79L249.011 131.633L251.029 134.41L248.853 135.712L247.136 132.592L245.418 135.712L243.286 134.41L245.261 131.633L241.826 131.79V129.357L245.261 129.543L243.286 126.724L245.418 125.421L247.136 128.541L248.853 125.421L251.029 126.724L249.011 129.543L252.474 129.357Z" fill="white"/>
<path d="M270.35 129.357V131.79L266.887 131.633L268.905 134.41L266.729 135.712L265.012 132.592L263.294 135.712L261.162 134.41L263.137 131.633L259.702 131.79V129.357L263.137 129.543L261.162 126.724L263.294 125.421L265.012 128.541L266.729 125.421L268.905 126.724L266.887 129.543L270.35 129.357Z" fill="white"/>
<path d="M289.143 152.601V149.71L298.56 140.106C301.079 137.587 302.339 135.426 302.339 133.622C302.339 132.12 301.881 130.96 300.965 130.116C300.049 129.271 298.933 128.856 297.616 128.856C295.097 128.856 293.265 130.044 292.134 132.434L289.157 130.688C289.987 128.956 291.161 127.654 292.649 126.767C294.138 125.879 295.784 125.436 297.587 125.436C299.82 125.436 301.766 126.18 303.412 127.64C305.058 129.114 305.888 131.089 305.888 133.579C305.888 136.27 304.3 139.204 301.122 142.382L294.324 149.166H306.389V152.601H289.143Z" fill="white"/>
<path d="M322.362 136.857C324.395 137.243 326.069 138.116 327.357 139.49C328.66 140.864 329.304 142.611 329.304 144.715C329.304 147.305 328.416 149.352 326.642 150.855C324.867 152.358 322.706 153.102 320.158 153.102C318.126 153.102 316.322 152.644 314.748 151.713C313.174 150.783 312.057 149.452 311.399 147.692L314.376 145.931C315.163 148.393 317.095 149.624 320.172 149.624C321.818 149.624 323.164 149.194 324.209 148.321C325.253 147.463 325.769 146.246 325.769 144.7C325.769 143.155 325.253 141.938 324.209 141.065C323.164 140.192 321.818 139.748 320.172 139.748H319.256L317.839 137.573L324.008 129.228H312.157V125.908H328.159L328.145 129.042L322.362 136.857Z" fill="white"/>
<path d="M355.639 144.214V147.534H352.404V152.601H348.855V147.534H335.244V144.214L344.804 125.922H348.612L339.051 144.214H348.841V136.671H352.39V144.214H355.639Z" fill="white"/>
<path d="M369.58 136.327C372.099 136.327 374.231 137.072 375.963 138.56C377.709 140.049 378.582 142.095 378.582 144.715C378.582 147.305 377.695 149.352 375.92 150.855C374.145 152.357 371.984 153.102 369.437 153.102C367.404 153.102 365.586 152.615 363.983 151.642C362.38 150.669 361.264 149.252 360.634 147.391L363.64 145.673C363.998 146.976 364.685 147.949 365.701 148.622C366.717 149.295 367.962 149.638 369.437 149.638C371.111 149.638 372.471 149.209 373.516 148.336C374.56 147.463 375.076 146.26 375.076 144.715C375.076 143.169 374.56 141.952 373.516 141.079C372.471 140.206 371.14 139.762 369.508 139.762H361.965L362.924 125.922H377.552V129.243H366.159L365.687 136.327H369.58Z" fill="white"/>
<path d="M40.5905 225.481C39.0304 225.481 37.7423 224.966 36.7261 223.935C35.7099 222.905 35.209 221.645 35.209 220.142C35.209 218.639 35.7099 217.38 36.7261 216.349C37.7423 215.319 39.0304 214.804 40.5905 214.804C41.5351 214.804 42.3939 215.033 43.1811 215.476C43.9683 215.934 44.5837 216.535 45.0274 217.294L43.8395 217.981C43.5389 217.409 43.1095 216.965 42.5227 216.621C41.9359 216.278 41.2918 216.12 40.5905 216.12C39.4026 216.12 38.4436 216.507 37.6851 217.265C36.9408 218.024 36.5544 218.983 36.5544 220.128C36.5544 221.259 36.9265 222.218 37.6851 222.976C38.4293 223.735 39.4026 224.121 40.5905 224.121C41.2918 224.121 41.9359 223.949 42.5227 223.62C43.1095 223.277 43.5389 222.833 43.8395 222.275L45.0274 222.948C44.598 223.706 43.9826 224.322 43.1954 224.78C42.4082 225.238 41.5351 225.481 40.5905 225.481Z" fill="white"/>
<path d="M52.4986 217.938H53.7725V225.295H52.4986V224.035C51.8546 225.008 50.9386 225.495 49.722 225.495C48.6915 225.495 47.8184 225.123 47.0885 224.364C46.3586 223.62 46.0007 222.704 46.0007 221.616C46.0007 220.543 46.3586 219.627 47.0885 218.868C47.8184 218.124 48.6915 217.738 49.722 217.738C50.9386 217.738 51.8689 218.224 52.4986 219.197V217.938ZM49.8794 224.235C50.6237 224.235 51.2535 223.978 51.7401 223.477C52.241 222.976 52.4843 222.346 52.4843 221.602C52.4843 220.858 52.241 220.228 51.7401 219.727C51.2391 219.226 50.6237 218.968 49.8794 218.968C49.1495 218.968 48.5197 219.226 48.0331 219.727C47.5322 220.228 47.2889 220.858 47.2889 221.602C47.2889 222.346 47.5322 222.976 48.0331 223.477C48.5341 223.992 49.1495 224.235 49.8794 224.235Z" fill="white"/>
<path d="M56.9927 219.169C57.4078 218.253 58.1806 217.795 59.2827 217.795V219.126C58.6529 219.097 58.1234 219.269 57.6654 219.627C57.2217 219.985 56.9927 220.572 56.9927 221.373V225.266H55.7189V217.909H56.9927V219.169Z" fill="white"/>
<path d="M66.2245 214.99H67.4984V225.28H66.2245V224.021C65.5805 224.994 64.6645 225.481 63.4479 225.481C62.4174 225.481 61.5443 225.109 60.8144 224.35C60.0844 223.606 59.7266 222.69 59.7266 221.602C59.7266 220.529 60.0844 219.613 60.8144 218.854C61.5443 218.11 62.4174 217.723 63.4479 217.723C64.6645 217.723 65.5948 218.21 66.2245 219.183V214.99ZM63.6196 224.235C64.3639 224.235 64.9937 223.978 65.4803 223.477C65.9812 222.976 66.2245 222.346 66.2245 221.602C66.2245 220.858 65.9812 220.228 65.4803 219.727C64.9793 219.226 64.3639 218.968 63.6196 218.968C62.8897 218.968 62.26 219.226 61.7733 219.727C61.2724 220.228 61.0291 220.858 61.0291 221.602C61.0291 222.346 61.2724 222.976 61.7733 223.477C62.26 223.992 62.8754 224.235 63.6196 224.235Z" fill="white"/>
<path d="M79.621 214.99H80.9807V225.28H79.621V220.643H74.6259V225.28H73.2519V214.99H74.6259V219.355H79.621V214.99Z" fill="white"/>
<path d="M89.2532 224.35C88.4947 225.094 87.5787 225.466 86.5052 225.466C85.4318 225.466 84.5158 225.094 83.7572 224.35C83.013 223.606 82.6265 222.69 82.6265 221.602C82.6265 220.514 82.9987 219.598 83.7572 218.854C84.5015 218.11 85.4175 217.738 86.5052 217.738C87.593 217.738 88.4947 218.11 89.2532 218.854C90.0118 219.598 90.3839 220.514 90.3839 221.602C90.3839 222.69 90.0118 223.606 89.2532 224.35ZM86.5052 224.221C87.2352 224.221 87.8649 223.978 88.3516 223.477C88.8525 222.976 89.0958 222.361 89.0958 221.616C89.0958 220.872 88.8525 220.242 88.3516 219.756C87.8506 219.255 87.2352 219.011 86.5052 219.011C85.7753 219.011 85.1742 219.255 84.6732 219.756C84.1723 220.257 83.929 220.886 83.929 221.616C83.929 222.361 84.1723 222.99 84.6732 223.477C85.1742 223.978 85.7753 224.221 86.5052 224.221Z" fill="white"/>
<path d="M91.901 225.28V214.546H93.1748V225.28H91.901Z" fill="white"/>
<path d="M101.219 214.99H102.493V225.28H101.219V224.021C100.575 224.994 99.6587 225.481 98.4421 225.481C97.4116 225.481 96.5385 225.109 95.8086 224.35C95.0786 223.606 94.7208 222.69 94.7208 221.602C94.7208 220.529 95.0786 219.613 95.8086 218.854C96.5385 218.11 97.4116 217.723 98.4421 217.723C99.6587 217.723 100.589 218.21 101.219 219.183V214.99ZM98.5995 224.235C99.3438 224.235 99.9735 223.978 100.46 223.477C100.961 222.976 101.204 222.346 101.204 221.602C101.204 220.858 100.961 220.228 100.46 219.727C99.9592 219.226 99.3438 218.968 98.5995 218.968C97.8696 218.968 97.2398 219.226 96.7532 219.727C96.2523 220.228 96.009 220.858 96.009 221.602C96.009 222.346 96.2523 222.976 96.7532 223.477C97.2542 223.992 97.8696 224.235 98.5995 224.235Z" fill="white"/>
<path d="M105.341 222.189C105.469 222.847 105.77 223.362 106.242 223.72C106.715 224.078 107.301 224.264 108.003 224.264C108.976 224.264 109.677 223.906 110.121 223.191L111.209 223.806C110.493 224.908 109.42 225.466 107.974 225.466C106.8 225.466 105.856 225.108 105.126 224.364C104.396 223.634 104.038 222.704 104.038 221.588C104.038 220.486 104.396 219.555 105.112 218.825C105.827 218.095 106.758 217.723 107.888 217.723C108.962 217.723 109.849 218.11 110.522 218.868C111.209 219.627 111.538 220.543 111.538 221.616C111.538 221.802 111.524 221.988 111.495 222.189H105.341ZM107.888 218.94C107.201 218.94 106.629 219.14 106.185 219.527C105.741 219.913 105.455 220.428 105.355 221.072H110.264C110.15 220.371 109.878 219.841 109.434 219.484C108.976 219.126 108.475 218.94 107.888 218.94Z" fill="white"/>
<path d="M114.286 219.169C114.701 218.253 115.474 217.795 116.576 217.795V219.126C115.946 219.097 115.417 219.269 114.959 219.627C114.515 219.985 114.286 220.572 114.286 221.373V225.266H113.012V217.909H114.286V219.169Z" fill="white"/>
<path d="M125.164 217.738C126.022 217.738 126.724 218.009 127.239 218.553C127.754 219.097 128.012 219.841 128.012 220.772V225.28H126.738V220.843C126.738 220.242 126.581 219.784 126.251 219.455C125.922 219.126 125.478 218.968 124.92 218.968C124.276 218.968 123.761 219.169 123.374 219.57C122.988 219.97 122.788 220.571 122.788 221.402V225.295H121.514V217.938H122.788V218.997C123.303 218.153 124.104 217.738 125.164 217.738Z" fill="white"/>
<path d="M135.884 217.938H137.157V225.295H135.884V224.035C135.24 225.008 134.324 225.495 133.107 225.495C132.077 225.495 131.203 225.123 130.474 224.364C129.744 223.62 129.386 222.704 129.386 221.616C129.386 220.543 129.744 219.627 130.474 218.868C131.203 218.124 132.077 217.738 133.107 217.738C134.324 217.738 135.254 218.224 135.884 219.197V217.938ZM133.264 224.235C134.009 224.235 134.638 223.978 135.125 223.477C135.626 222.976 135.869 222.346 135.869 221.602C135.869 220.858 135.626 220.228 135.125 219.727C134.624 219.226 134.009 218.968 133.264 218.968C132.535 218.968 131.905 219.226 131.418 219.727C130.917 220.228 130.674 220.858 130.674 221.602C130.674 222.346 130.917 222.976 131.418 223.477C131.919 223.992 132.535 224.235 133.264 224.235Z" fill="white"/>
<path d="M147.048 217.738C147.878 217.738 148.536 218.009 149.051 218.539C149.567 219.069 149.81 219.799 149.81 220.715V225.28H148.536V220.758C148.536 220.185 148.393 219.741 148.092 219.441C147.792 219.126 147.405 218.968 146.919 218.968C146.375 218.968 145.931 219.155 145.602 219.512C145.273 219.87 145.115 220.443 145.115 221.201V225.295H143.842V220.772C143.842 220.199 143.698 219.756 143.426 219.455C143.14 219.14 142.768 218.983 142.281 218.983C141.738 218.983 141.294 219.169 140.936 219.541C140.578 219.913 140.392 220.471 140.392 221.215V225.309H139.118V217.952H140.392V218.94C140.893 218.153 141.623 217.766 142.582 217.766C143.57 217.766 144.285 218.181 144.743 219.011C145.244 218.153 146.017 217.738 147.048 217.738Z" fill="white"/>
<path d="M152.486 222.189C152.615 222.847 152.916 223.362 153.388 223.72C153.86 224.078 154.447 224.264 155.149 224.264C156.122 224.264 156.823 223.906 157.267 223.191L158.355 223.806C157.639 224.908 156.566 225.466 155.12 225.466C153.946 225.466 153.002 225.108 152.272 224.364C151.542 223.634 151.184 222.704 151.184 221.588C151.184 220.486 151.542 219.555 152.257 218.825C152.973 218.095 153.903 217.723 155.034 217.723C156.108 217.723 156.995 218.11 157.668 218.868C158.355 219.627 158.684 220.543 158.684 221.616C158.684 221.802 158.669 221.988 158.641 222.189H152.486ZM155.034 218.94C154.347 218.94 153.775 219.14 153.331 219.527C152.887 219.913 152.601 220.428 152.501 221.072H157.396C157.281 220.371 157.009 219.841 156.566 219.484C156.136 219.126 155.621 218.94 155.034 218.94Z" fill="white"/>
<path d="M353.02 223.992H357.8V225.28H351.66V214.99H357.729V216.278H353.02V219.441H357.357V220.715H353.02V223.992Z" fill="white"/>
<path d="M365.687 225.28H364.184L362.123 222.504L360.062 225.28H358.559L361.378 221.502L358.731 217.938H360.248L362.137 220.486L364.041 217.938H365.543L362.896 221.502L365.687 225.28Z" fill="white"/>
<path d="M370.939 217.738C371.97 217.738 372.843 218.11 373.573 218.868C374.303 219.612 374.661 220.528 374.661 221.616C374.661 222.69 374.303 223.606 373.573 224.364C372.843 225.109 371.97 225.495 370.939 225.495C369.723 225.495 368.792 225.008 368.163 224.035V228.243H366.889V217.952H368.163V219.212C368.792 218.224 369.723 217.738 370.939 217.738ZM370.782 224.235C371.512 224.235 372.127 223.978 372.628 223.477C373.129 222.976 373.372 222.346 373.372 221.602C373.372 220.858 373.129 220.228 372.628 219.727C372.127 219.226 371.512 218.968 370.782 218.968C370.038 218.968 369.408 219.226 368.921 219.727C368.42 220.228 368.177 220.858 368.177 221.602C368.177 222.346 368.42 222.976 368.921 223.477C369.408 223.992 370.038 224.235 370.782 224.235Z" fill="white"/>
<path d="M376.836 216.593C376.593 216.593 376.378 216.507 376.221 216.349C376.063 216.192 375.977 215.977 375.977 215.748C375.977 215.519 376.063 215.304 376.221 215.133C376.378 214.961 376.593 214.875 376.836 214.875C377.065 214.875 377.265 214.961 377.437 215.133C377.609 215.304 377.68 215.505 377.68 215.748C377.68 215.992 377.595 216.192 377.437 216.349C377.28 216.507 377.065 216.593 376.836 216.593ZM376.192 225.28V217.924H377.466V225.28H376.192Z" fill="white"/>
<path d="M380.701 219.169C381.116 218.253 381.888 217.795 382.991 217.795V219.126C382.361 219.097 381.831 219.269 381.373 219.627C380.93 219.985 380.701 220.572 380.701 221.373V225.266H379.427V217.909H380.701V219.169Z" fill="white"/>
<path d="M389.531 217.938H390.905L387.9 225.738C387.585 226.568 387.141 227.213 386.583 227.642C386.025 228.071 385.366 228.272 384.636 228.229V227.041C385.538 227.112 386.197 226.611 386.612 225.538L386.755 225.266L383.549 217.938H384.923L387.37 223.577L389.531 217.938Z" fill="white"/>
<path d="M399.793 214.99C401.196 214.99 402.355 215.49 403.286 216.478C404.216 217.466 404.674 218.697 404.674 220.128C404.674 221.573 404.216 222.79 403.286 223.777C402.355 224.779 401.196 225.266 399.793 225.266H395.786V214.975H399.793V214.99ZM399.793 223.992C400.838 223.992 401.697 223.62 402.37 222.89C403.042 222.16 403.372 221.244 403.372 220.142C403.372 219.04 403.042 218.124 402.37 217.394C401.697 216.664 400.853 216.292 399.793 216.292H397.146V223.992H399.793Z" fill="white"/>
<path d="M412.288 217.938H413.562V225.295H412.288V224.035C411.644 225.008 410.728 225.495 409.512 225.495C408.481 225.495 407.608 225.123 406.878 224.364C406.148 223.62 405.79 222.704 405.79 221.616C405.79 220.543 406.148 219.627 406.878 218.868C407.608 218.124 408.481 217.738 409.512 217.738C410.728 217.738 411.658 218.224 412.288 219.197V217.938ZM409.683 224.235C410.428 224.235 411.057 223.978 411.544 223.477C412.045 222.976 412.288 222.346 412.288 221.602C412.288 220.858 412.045 220.228 411.544 219.727C411.043 219.226 410.428 218.968 409.683 218.968C408.953 218.968 408.324 219.226 407.837 219.727C407.336 220.228 407.093 220.858 407.093 221.602C407.093 222.346 407.336 222.976 407.837 223.477C408.324 223.992 408.939 224.235 409.683 224.235Z" fill="white"/>
<path d="M419.516 219.169H417.555V223.148C417.555 223.506 417.627 223.763 417.77 223.921C417.913 224.078 418.128 224.15 418.428 224.15C418.729 224.15 419.087 224.15 419.516 224.135V225.28C418.4 225.423 417.584 225.338 417.069 225.008C416.553 224.679 416.296 224.064 416.296 223.148V219.169H414.836V217.938H416.296V216.263L417.57 215.877V217.938H419.53V219.169H419.516Z" fill="white"/>
<path d="M421.563 222.189C421.692 222.847 421.992 223.362 422.465 223.72C422.937 224.078 423.524 224.264 424.225 224.264C425.198 224.264 425.9 223.906 426.343 223.191L427.431 223.806C426.715 224.908 425.642 225.466 424.196 225.466C423.023 225.466 422.078 225.108 421.348 224.364C420.618 223.634 420.26 222.704 420.26 221.588C420.26 220.486 420.618 219.555 421.334 218.825C422.05 218.095 422.98 217.723 424.111 217.723C425.184 217.723 426.071 218.11 426.744 218.868C427.431 219.627 427.76 220.543 427.76 221.616C427.76 221.802 427.746 221.988 427.717 222.189H421.563ZM424.096 218.94C423.409 218.94 422.837 219.14 422.393 219.527C421.949 219.913 421.663 220.428 421.563 221.072H426.472C426.358 220.371 426.086 219.841 425.642 219.484C425.198 219.126 424.683 218.94 424.096 218.94Z" fill="white"/>
<path d="M362.109 253.876C361.049 255.365 359.547 256.109 357.629 256.109C355.711 256.109 354.222 255.365 353.149 253.876C352.09 252.388 351.546 250.413 351.546 247.937C351.546 245.461 352.075 243.486 353.149 241.997C354.208 240.509 355.711 239.764 357.629 239.764C359.547 239.764 361.035 240.509 362.109 241.997C363.168 243.486 363.712 245.461 363.712 247.937C363.712 250.413 363.182 252.388 362.109 253.876ZM354.695 252.46C355.382 253.519 356.369 254.063 357.643 254.063C358.917 254.063 359.904 253.533 360.606 252.46C361.307 251.4 361.651 249.883 361.651 247.937C361.651 245.99 361.307 244.473 360.606 243.4C359.904 242.326 358.917 241.797 357.643 241.797C356.369 241.797 355.382 242.326 354.695 243.4C354.008 244.459 353.664 245.976 353.664 247.937C353.664 249.883 354.008 251.4 354.695 252.46Z" fill="white"/>
<path d="M365.243 255.809V254.106L370.796 248.438C372.285 246.949 373.029 245.675 373.029 244.616C373.029 243.729 372.757 243.042 372.213 242.541C371.669 242.04 371.011 241.797 370.238 241.797C368.75 241.797 367.676 242.498 367.004 243.915L365.243 242.884C365.744 241.868 366.431 241.095 367.304 240.566C368.177 240.036 369.15 239.779 370.224 239.779C371.541 239.779 372.686 240.208 373.659 241.081C374.632 241.954 375.119 243.113 375.119 244.588C375.119 246.176 374.188 247.908 372.314 249.783L368.292 253.776H375.405V255.794H365.243V255.809Z" fill="white"/>
<path d="M378.31 258.027L377.137 258.056L386.139 237.846L387.313 237.818L378.31 258.027Z" fill="white"/>
<path d="M395.256 246.52C396.459 246.749 397.446 247.264 398.205 248.08C398.978 248.896 399.35 249.912 399.35 251.157C399.35 252.689 398.82 253.891 397.776 254.778C396.731 255.666 395.457 256.109 393.954 256.109C392.752 256.109 391.693 255.837 390.762 255.293C389.832 254.75 389.174 253.962 388.787 252.918L390.548 251.887C391.006 253.347 392.151 254.063 393.968 254.063C394.942 254.063 395.743 253.805 396.359 253.304C396.974 252.803 397.275 252.087 397.275 251.171C397.275 250.255 396.974 249.54 396.359 249.025C395.743 248.509 394.942 248.252 393.968 248.252H393.424L392.594 246.964L396.244 242.04H389.245V240.079H398.691L398.677 241.911L395.256 246.52Z" fill="white"/>
<path d="M411.745 253.876C410.685 255.365 409.183 256.109 407.265 256.109C405.347 256.109 403.858 255.365 402.785 253.876C401.726 252.388 401.182 250.413 401.182 247.937C401.182 245.461 401.711 243.486 402.785 241.997C403.844 240.509 405.347 239.764 407.265 239.764C409.183 239.764 410.671 240.509 411.745 241.997C412.804 243.486 413.348 245.461 413.348 247.937C413.348 250.413 412.818 252.388 411.745 253.876ZM404.331 252.46C405.018 253.519 406.005 254.063 407.279 254.063C408.553 254.063 409.54 253.533 410.242 252.46C410.943 251.4 411.287 249.883 411.287 247.937C411.287 245.99 410.943 244.473 410.242 243.4C409.54 242.326 408.553 241.797 407.279 241.797C406.005 241.797 405.018 242.326 404.331 243.4C403.644 244.459 403.3 245.976 403.3 247.937C403.286 249.883 403.629 251.4 404.331 252.46Z" fill="white"/>
<path d="M443.49 47.0599H438.709C437.221 47.0599 436.119 47.475 435.46 48.9349L426.272 69.774H432.77C432.77 69.774 433.843 66.9687 434.072 66.3676H442.001C442.187 67.1691 442.745 69.774 442.745 69.774H448.499L443.49 47.0599ZM435.861 61.716C436.376 60.4135 438.308 55.3612 438.308 55.3612C438.308 55.3469 438.838 54.0301 439.139 53.2L439.554 55.1608C439.554 55.1608 440.742 60.571 440.985 61.7303H435.861V61.716Z" fill="white"/>
<path d="M418.013 53.3574C417.999 54.4308 419.33 55.1321 421.506 56.177C425.069 57.8086 426.73 59.7551 426.701 62.36C426.658 67.0688 422.436 70.1174 415.909 70.1174C413.133 70.0888 410.456 69.5306 409.011 68.9009L409.884 63.8056L410.685 64.1777C412.703 65.0221 414.034 65.3656 416.51 65.3656C418.285 65.3656 420.189 64.6643 420.203 63.1472C420.217 62.1453 419.402 61.4297 416.997 60.3133C414.635 59.2255 411.53 57.4078 411.558 54.1446C411.587 49.7363 415.909 46.6448 422.021 46.6448C424.425 46.6448 426.357 47.1457 427.574 47.6037L426.73 52.5272L426.171 52.2696C425.026 51.8116 423.552 51.3679 421.534 51.3966C419.144 51.3966 418.013 52.4128 418.013 53.3574Z" fill="white"/>
<path d="M409.011 47.0456L405.132 69.7596H398.949L402.813 47.0456H409.011Z" fill="white"/>
<path d="M386.769 58.7389C384.708 53.4862 379.77 49.1209 372.285 47.3032L372.371 46.8452H381.974C383.277 46.8881 384.322 47.3032 384.679 48.6915L386.769 58.7389Z" fill="white"/>
<path d="M400.323 47.0599L390.562 69.7454H384.021L378.482 50.8098C382.461 53.3574 385.853 57.4079 387.055 60.2275L387.714 62.5747L393.782 47.0742H400.323V47.0599Z" fill="white"/>
<path d="M80.9233 196.726H42.2793C39.8033 196.726 37.7709 194.694 37.7709 192.218V163.607C37.7709 161.131 39.8033 159.099 42.2793 159.099H80.9233C83.3994 159.099 85.4318 161.131 85.4318 163.607V192.218C85.4318 194.694 83.3994 196.726 80.9233 196.726Z" fill="#F6C859"/>
<path d="M56.1052 191.703C55.9048 191.703 55.7044 191.588 55.6185 191.402C55.4754 191.13 55.5899 190.801 55.8618 190.658C56.6633 190.243 57.7511 189.484 58.3809 188.153C59.1824 186.464 58.9677 184.632 58.6385 184.475C58.5526 184.432 58.2234 184.604 58.023 184.704C57.5078 184.976 56.7779 185.334 55.9477 185.047C55.1319 184.761 54.7312 184.031 54.5451 183.688C53.2999 181.398 52.9135 175.444 54.2302 172.481C54.6739 171.493 55.2607 170.921 56.005 170.749C56.7635 170.577 57.379 170.892 57.8656 171.15C58.2664 171.364 58.4811 171.45 58.5956 171.379C59.1108 171.064 59.0965 169.175 58.3809 167.672C57.7511 166.341 56.6633 165.582 55.8618 165.167C55.5899 165.024 55.4897 164.695 55.6185 164.423C55.7617 164.151 56.0909 164.051 56.3628 164.18C57.3074 164.666 58.6099 165.582 59.3684 167.199C60.127 168.788 60.4848 171.522 59.1537 172.323C58.4811 172.724 57.8513 172.395 57.336 172.137C56.9496 171.937 56.5918 171.751 56.234 171.837C55.7473 171.951 55.4182 172.509 55.2178 172.953C54.0585 175.529 54.3877 181.169 55.4897 183.187C55.6758 183.53 55.9048 183.902 56.2912 184.031C56.6634 184.16 57.0069 184.002 57.5078 183.745C57.9944 183.502 58.5383 183.215 59.1108 183.502C60.3417 184.103 60.2701 186.765 59.3684 188.654C58.6099 190.257 57.3074 191.187 56.3628 191.674C56.2769 191.688 56.191 191.703 56.1052 191.703Z" fill="#7D662D"/>
<path d="M54.4593 173.483H44.5263C44.2258 173.483 43.9681 173.239 43.9681 172.925C43.9681 172.61 44.2115 172.366 44.5263 172.366H54.4593C54.7598 172.366 55.0175 172.61 55.0175 172.925C55.0175 173.239 54.7598 173.483 54.4593 173.483Z" fill="#7D662D"/>
<path d="M54.4593 183.43H44.5263C44.2258 183.43 43.9681 183.187 43.9681 182.872C43.9681 182.557 44.2115 182.314 44.5263 182.314H54.4593C54.7598 182.314 55.0175 182.557 55.0175 182.872C55.0175 183.187 54.7598 183.43 54.4593 183.43Z" fill="#7D662D"/>
<path d="M67.6985 191.703C67.6126 191.703 67.5267 191.688 67.4408 191.645C66.4962 191.159 65.1938 190.243 64.4352 188.625C63.5335 186.736 63.4619 184.074 64.6928 183.473C65.2653 183.201 65.8092 183.473 66.2958 183.716C66.7968 183.974 67.1403 184.131 67.5124 184.002C67.9274 183.859 68.1708 183.416 68.3139 183.158C69.416 181.14 69.7451 175.515 68.5858 172.924C68.3855 172.481 68.042 171.923 67.5696 171.808C67.2691 171.737 67.083 171.436 67.1546 171.15C67.2261 170.849 67.5267 170.677 67.813 170.735C68.5572 170.906 69.144 171.493 69.5877 172.481C70.9045 175.443 70.5323 181.397 69.2728 183.688C69.0868 184.031 68.686 184.761 67.8702 185.047C67.0401 185.333 66.3101 184.976 65.7949 184.704C65.5945 184.604 65.251 184.432 65.1794 184.475C64.8502 184.632 64.6356 186.464 65.4371 188.153C66.0668 189.484 67.1546 190.243 67.9561 190.658C68.228 190.801 68.3282 191.13 68.1994 191.402C68.0992 191.588 67.8988 191.703 67.6985 191.703Z" fill="#7D662D"/>
<path d="M65.4944 171.279C65.2654 171.279 65.0507 171.135 64.9648 170.906C63.7768 167.357 66.5535 164.623 67.4409 164.165C67.7128 164.022 68.042 164.137 68.1851 164.409C68.3282 164.68 68.2138 165.01 67.9418 165.153C67.5411 165.353 64.9934 167.543 66.0096 170.563C66.1098 170.849 65.9524 171.164 65.6661 171.264C65.6089 171.264 65.5516 171.279 65.4944 171.279Z" fill="#7D662D"/>
<path d="M79.2918 173.483H69.3588C69.0583 173.483 68.8007 173.239 68.8007 172.925C68.8007 172.61 69.044 172.366 69.3588 172.366H79.2918C79.5924 172.366 79.85 172.61 79.85 172.925C79.85 173.239 79.6067 173.483 79.2918 173.483Z" fill="#7D662D"/>
<path d="M79.2918 183.43H69.3588C69.0583 183.43 68.8007 183.187 68.8007 182.872C68.8007 182.557 69.044 182.314 69.3588 182.314H79.2918C79.5924 182.314 79.85 182.557 79.85 182.872C79.85 183.187 79.6067 183.43 79.2918 183.43Z" fill="#7D662D"/>
<path d="M43.063 254L38.7505 247.172V254H35.606V238.67H38.7505V245.33L43.1079 238.67H46.7466L41.7827 246.06L46.7466 254H43.063ZM48.4087 243.365H51.3398V254H48.4087V243.365ZM49.8911 238.693C50.3778 238.693 50.7708 238.861 51.0703 239.198C51.3548 239.52 51.4971 239.902 51.4971 240.344C51.4971 240.838 51.3136 241.246 50.9468 241.568C50.6698 241.815 50.3141 241.938 49.8799 241.938C49.3857 241.938 48.9852 241.774 48.6782 241.444C48.3937 241.122 48.2515 240.748 48.2515 240.321C48.2515 239.805 48.4349 239.385 48.8018 239.063C49.0788 238.816 49.4419 238.693 49.8911 238.693ZM61.5596 246.431H58.7969C58.8044 246.378 58.8081 246.315 58.8081 246.24C58.8081 246.015 58.7332 245.809 58.5835 245.622C58.3215 245.308 57.9508 245.15 57.4717 245.15C57.1123 245.15 56.8241 245.24 56.6069 245.42C56.3973 245.6 56.2925 245.832 56.2925 246.116C56.2925 246.408 56.3936 246.633 56.5957 246.79C56.8128 246.962 57.1198 247.112 57.5166 247.239L58.3926 247.509C59.5605 247.868 60.3766 248.272 60.8408 248.722C61.4323 249.291 61.728 250.024 61.728 250.923C61.728 252.046 61.2826 252.933 60.3916 253.584C59.6803 254.109 58.7445 254.371 57.584 254.371C56.0267 254.371 54.87 253.891 54.1138 252.933C53.672 252.387 53.4362 251.701 53.4062 250.878H56.2139C56.3411 251.769 56.8053 252.214 57.6064 252.214C57.9508 252.214 58.2241 252.125 58.4263 251.945C58.6584 251.735 58.7744 251.488 58.7744 251.204C58.7744 250.852 58.591 250.56 58.2241 250.328C58.022 250.193 57.5465 250.013 56.7979 249.789C55.6673 249.437 54.8438 249.002 54.3271 248.486C53.7581 247.924 53.4736 247.221 53.4736 246.375C53.4736 245.222 53.9416 244.334 54.8774 243.713C55.6112 243.234 56.5171 242.994 57.5952 242.994C59.1076 242.994 60.2306 243.485 60.9644 244.465C61.3387 244.974 61.5371 245.63 61.5596 246.431ZM63.9067 238.67H66.8379V244.499C67.6839 243.496 68.646 242.994 69.7241 242.994C70.368 242.994 70.9857 243.155 71.5771 243.477C72.2734 243.851 72.7376 244.357 72.9697 244.993C73.1494 245.457 73.2393 246.12 73.2393 246.981V254H70.3081V247.396C70.3081 246.708 70.1172 246.187 69.7354 245.835C69.4808 245.588 69.1439 245.465 68.7246 245.465C68.2305 245.465 67.7962 245.641 67.4219 245.993C67.1748 246.232 67.0101 246.494 66.9277 246.779C66.8678 247.033 66.8379 247.329 66.8379 247.666V254H63.9067V238.67ZM84.2227 244.712V243.365H87.1538V254H84.2227V252.54C83.2568 253.76 82.0252 254.371 80.5278 254.371C78.9032 254.371 77.5967 253.768 76.6084 252.562C75.7923 251.567 75.3843 250.316 75.3843 248.812C75.3843 247.688 75.6426 246.648 76.1592 245.689C76.5934 244.881 77.2111 244.233 78.0122 243.747C78.8208 243.252 79.7305 243.005 80.7412 243.005C81.5723 243.005 82.321 243.204 82.9873 243.601C83.3916 243.84 83.8034 244.211 84.2227 244.712ZM81.3477 245.476C80.4268 245.476 79.708 245.832 79.1914 246.543C78.7347 247.179 78.5063 247.921 78.5063 248.767C78.5063 249.777 78.8171 250.593 79.4385 251.215C79.9701 251.746 80.599 252.012 81.3252 252.012C82.2087 252.012 82.9386 251.645 83.5151 250.912C84.0168 250.275 84.2676 249.53 84.2676 248.677C84.2676 247.831 84.043 247.116 83.5938 246.532C83.0472 245.828 82.2985 245.476 81.3477 245.476ZM90.0513 254V243.365H92.9824V244.667C93.3268 244.121 93.6712 243.732 94.0156 243.5C94.5173 243.163 95.1274 242.994 95.8462 242.994C96.9318 242.994 97.8078 243.324 98.4741 243.982C98.8934 244.402 99.1592 244.881 99.2715 245.42C99.3763 245.944 99.4287 246.562 99.4287 247.273V254H96.4976V247.419C96.4976 246.865 96.4115 246.449 96.2393 246.172C95.9398 245.701 95.4756 245.465 94.8467 245.465C94.2253 245.465 93.7311 245.716 93.3643 246.217C93.1097 246.562 92.9824 247.003 92.9824 247.542V254H90.0513ZM116.667 254L112.467 247.902V254H109.323V238.67H114.04C115.964 238.67 117.412 239.075 118.386 239.883C118.768 240.183 119.071 240.55 119.295 240.984C119.7 241.74 119.902 242.575 119.902 243.488C119.902 244.948 119.438 246.109 118.509 246.97C117.933 247.501 117.184 247.883 116.263 248.115L120.486 254H116.667ZM112.467 241.276V246.06H113.905C114.721 246.06 115.368 245.888 115.848 245.543C116.424 245.117 116.712 244.488 116.712 243.657C116.712 242.96 116.503 242.395 116.083 241.961C115.649 241.504 115.009 241.276 114.163 241.276H112.467ZM130.739 244.712V243.365H133.67V254H130.739V252.54C129.773 253.76 128.542 254.371 127.044 254.371C125.42 254.371 124.113 253.768 123.125 252.562C122.309 251.567 121.901 250.316 121.901 248.812C121.901 247.688 122.159 246.648 122.676 245.689C123.11 244.881 123.728 244.233 124.529 243.747C125.337 243.252 126.247 243.005 127.258 243.005C128.089 243.005 128.838 243.204 129.504 243.601C129.908 243.84 130.32 244.211 130.739 244.712ZM127.864 245.476C126.943 245.476 126.225 245.832 125.708 246.543C125.251 247.179 125.023 247.921 125.023 248.767C125.023 249.777 125.334 250.593 125.955 251.215C126.487 251.746 127.116 252.012 127.842 252.012C128.725 252.012 129.455 251.645 130.032 250.912C130.533 250.275 130.784 249.53 130.784 248.677C130.784 247.831 130.56 247.116 130.11 246.532C129.564 245.828 128.815 245.476 127.864 245.476ZM136.568 254V243.365H139.499V244.712C139.791 244.188 140.117 243.803 140.476 243.556C141.03 243.181 141.678 242.994 142.419 242.994C143.13 242.994 143.767 243.174 144.328 243.533C144.747 243.81 145.077 244.222 145.316 244.769C145.653 244.2 146.035 243.788 146.462 243.533C147.046 243.174 147.731 242.994 148.517 242.994C149.61 242.994 150.467 243.327 151.089 243.994C151.486 244.428 151.729 244.907 151.819 245.431C151.901 245.888 151.942 246.427 151.942 247.048V254H149.011V247.599C149.011 246.962 148.921 246.487 148.742 246.172C148.48 245.701 148.034 245.465 147.405 245.465C146.836 245.465 146.398 245.678 146.091 246.105C145.844 246.472 145.721 246.97 145.721 247.599V254H142.79V247.677C142.79 246.202 142.25 245.465 141.172 245.465C140.618 245.465 140.192 245.671 139.892 246.083C139.63 246.434 139.499 246.966 139.499 247.677V254H136.568ZM162.926 244.712V243.365H165.857V254H162.926V252.54C161.96 253.76 160.728 254.371 159.231 254.371C157.606 254.371 156.3 253.768 155.312 252.562C154.495 251.567 154.087 250.316 154.087 248.812C154.087 247.688 154.346 246.648 154.862 245.689C155.297 244.881 155.914 244.233 156.715 243.747C157.524 243.252 158.434 243.005 159.444 243.005C160.275 243.005 161.024 243.204 161.69 243.601C162.095 243.84 162.507 244.211 162.926 244.712ZM160.051 245.476C159.13 245.476 158.411 245.832 157.895 246.543C157.438 247.179 157.209 247.921 157.209 248.767C157.209 249.777 157.52 250.593 158.142 251.215C158.673 251.746 159.302 252.012 160.028 252.012C160.912 252.012 161.642 251.645 162.218 250.912C162.72 250.275 162.971 249.53 162.971 248.677C162.971 247.831 162.746 247.116 162.297 246.532C161.75 245.828 161.002 245.476 160.051 245.476ZM168.754 254V243.365H171.686V244.667C172.03 244.121 172.374 243.732 172.719 243.5C173.22 243.163 173.831 242.994 174.549 242.994C175.635 242.994 176.511 243.324 177.177 243.982C177.597 244.402 177.862 244.881 177.975 245.42C178.079 245.944 178.132 246.562 178.132 247.273V254H175.201V247.419C175.201 246.865 175.115 246.449 174.942 246.172C174.643 245.701 174.179 245.465 173.55 245.465C172.928 245.465 172.434 245.716 172.067 246.217C171.813 246.562 171.686 247.003 171.686 247.542V254H168.754ZM180.973 243.365H183.904V254H180.973V243.365ZM182.456 238.693C182.942 238.693 183.335 238.861 183.635 239.198C183.919 239.52 184.062 239.902 184.062 240.344C184.062 240.838 183.878 241.246 183.511 241.568C183.234 241.815 182.879 241.938 182.444 241.938C181.95 241.938 181.55 241.774 181.243 241.444C180.958 241.122 180.816 240.748 180.816 240.321C180.816 239.805 180.999 239.385 181.366 239.063C181.643 238.816 182.006 238.693 182.456 238.693Z" fill="white"/>
<defs>
<linearGradient id="paint0_linear_41_754" x1="52.8024" y1="341.696" x2="430.352" y2="-35.8536" gradientUnits="userSpaceOnUse">
<stop stop-color="#1B1464"/>
<stop offset="1" stop-color="#83EFFF"/>
</linearGradient>
<linearGradient id="paint1_linear_41_754" x1="321.341" y1="155.312" x2="471.429" y2="5.22395" gradientUnits="userSpaceOnUse">
<stop stop-color="#83EFFF"/>
<stop offset="1" stop-color="#1B1464"/>
</linearGradient>
<linearGradient id="paint2_linear_41_754" x1="82.7247" y1="371.613" x2="421.647" y2="32.6907" gradientUnits="userSpaceOnUse">
<stop stop-color="#1B1464"/>
<stop offset="1" stop-color="#83EFFF"/>
</linearGradient>
<linearGradient id="paint3_linear_41_754" x1="-16.7326" y1="124.585" x2="128.343" y2="-20.4903" gradientUnits="userSpaceOnUse">
<stop stop-color="#1B1464"/>
<stop offset="1" stop-color="#83EFFF"/>
</linearGradient>
<linearGradient id="paint4_linear_41_754" x1="206.229" y1="356.64" x2="307.837" y2="255.032" gradientUnits="userSpaceOnUse">
<stop stop-color="#02B6FD"/>
<stop offset="1" stop-color="#83EFFF"/>
</linearGradient>
<linearGradient id="paint5_linear_41_754" x1="89.3671" y1="378.261" x2="338.618" y2="129.009" gradientUnits="userSpaceOnUse">
<stop stop-color="#1B1464"/>
<stop offset="1" stop-color="#83EFFF"/>
</linearGradient>
<linearGradient id="paint6_linear_41_754" x1="52.8024" y1="341.696" x2="430.352" y2="-35.8536" gradientUnits="userSpaceOnUse">
<stop stop-color="#02CAFD"/>
<stop offset="1" stop-color="#83F8A6"/>
</linearGradient>
</defs>
</svg>
