<svg width="484" height="307" viewBox="0 0 484 307" fill="none" xmlns="http://www.w3.org/2000/svg">
<path opacity="0.35" d="M483.121 29.3512V277.348C483.121 277.849 483.107 278.335 483.078 278.836C483.064 279.194 483.021 279.551 483.007 279.909C481.705 294.67 469.304 306.256 454.214 306.256H28.9078C18.0656 306.256 8.62514 300.292 3.69037 291.452C3.56163 291.266 3.4758 291.109 3.38998 290.937C1.21582 286.889 0 282.269 0 277.348V29.3512C0 28.7075 0.0143081 28.0638 0.0715228 27.4202C0.0858265 27.0626 0.128731 26.705 0.143035 26.3474C1.65923 11.8148 13.9604 0.457703 28.9078 0.457703H454.214C459.907 0.457703 465.256 2.13123 469.733 4.99197C473.481 7.38069 476.613 10.5704 478.93 14.3609C478.959 14.4324 479.016 14.4896 479.045 14.5611C481.634 18.8952 483.121 23.9444 483.121 29.3512Z" fill="url(#paint0_linear_41_211)"/>
<path d="M483.15 28.9078V276.905C483.15 277.549 483.136 278.192 483.078 278.836C483.064 279.194 483.021 279.551 483.007 279.909C481.491 294.441 469.175 305.799 454.242 305.799H28.9363C22.1993 305.799 16.0201 303.51 11.0996 299.619C10.8851 299.476 10.6705 299.29 10.456 299.119C4.07651 293.812 0.0285645 285.816 0.0285645 276.905V28.9078C0.0285645 28.4071 0.0428664 27.9065 0.0714738 27.4202C0.0857775 27.0197 0.128685 26.6335 0.157292 26.233C1.50184 11.5145 13.8602 0 28.9363 0H454.242C459.935 0 465.285 1.64492 469.762 4.53427C470.248 4.83464 470.734 5.16363 471.206 5.50692C471.492 5.73578 471.793 5.95033 472.079 6.2078C478.83 11.4572 483.15 19.6819 483.15 28.9078Z" fill="url(#paint1_linear_41_211)"/>
<mask id="mask0_41_211" style="mask-type:alpha" maskUnits="userSpaceOnUse" x="0" y="0" width="481" height="307">
<path d="M480.976 29.5369V277.778C480.976 278.422 480.962 279.066 480.905 279.711C480.89 280.069 480.848 280.427 480.833 280.785C479.325 295.331 467.074 306.7 452.219 306.7H29.1289C22.427 306.7 16.28 304.409 11.3851 300.514C11.1717 300.371 10.9583 300.185 10.7448 300.013C4.39862 294.701 0.371765 286.698 0.371765 277.778V29.5369C0.371765 29.0358 0.385993 28.5347 0.414451 28.0479C0.42868 27.647 0.471364 27.2604 0.499822 26.8595C1.83736 12.1265 14.1314 0.600754 29.1289 0.600754H452.219C457.882 0.600754 463.204 2.24729 467.657 5.13947C468.141 5.44015 468.625 5.76946 469.094 6.11308C469.379 6.34217 469.678 6.55693 469.962 6.81465C476.679 12.0693 480.976 20.302 480.976 29.5369Z" fill="url(#paint2_linear_41_211)"/>
</mask>
<g mask="url(#mask0_41_211)">
<path d="M202.397 74.7225L205.215 79.0708C206.288 80.73 208.505 81.1877 210.15 80.1149L395.011 -39.9645C396.67 -41.0373 397.127 -43.2544 396.055 -44.8993L393.237 -49.2476C392.164 -50.9069 389.947 -51.3646 388.302 -50.2918L203.441 69.7734C201.796 70.8605 201.324 73.0632 202.397 74.7225Z" fill="url(#paint3_linear_41_211)"/>
<path d="M259.74 67.5563L262.558 71.9046C263.631 73.5638 265.848 74.0216 267.493 72.9488L452.354 -47.145C454.013 -48.2178 454.471 -50.4348 453.398 -52.0798L450.58 -56.4281C449.508 -58.0873 447.29 -58.545 445.646 -57.4723L260.785 62.6072C259.14 63.68 258.668 65.8971 259.74 67.5563Z" fill="url(#paint4_linear_41_211)"/>
<path d="M234.652 108.765L237.47 113.114C238.542 114.773 240.759 115.23 242.404 114.158L427.265 -5.92175C428.924 -6.99453 429.382 -9.2116 428.309 -10.8565L425.491 -15.2048C424.419 -16.8641 422.202 -17.3218 420.557 -16.249L235.696 103.83C234.051 104.903 233.579 107.106 234.652 108.765Z" fill="url(#paint5_linear_41_211)"/>
<path d="M275.875 141.02L278.693 145.368C279.766 147.028 281.983 147.485 283.628 146.413L468.489 26.3331C470.148 25.2603 470.605 23.0432 469.533 21.3983L466.715 17.05C465.642 15.3907 463.425 14.933 461.78 16.0058L276.919 136.085C275.26 137.158 274.788 139.361 275.875 141.02Z" fill="url(#paint6_linear_41_211)"/>
<path d="M254.362 103.387L257.18 107.735C258.253 109.395 260.47 109.852 262.115 108.78L446.976 -11.2999C448.635 -12.3727 449.093 -14.5898 448.02 -16.2347L445.202 -20.583C444.13 -22.2423 441.912 -22.7 440.268 -21.6272L255.407 98.4523C253.762 99.5251 253.29 101.728 254.362 103.387Z" fill="url(#paint7_linear_41_211)"/>
<path d="M270.497 90.8427L273.315 95.191C274.387 96.8503 276.604 97.308 278.249 96.2352L463.11 -23.8443C464.769 -24.9171 465.227 -27.1341 464.154 -28.7791L461.337 -33.1274C460.264 -34.7866 458.047 -35.2443 456.402 -34.1715L271.541 85.9079C269.882 86.9807 269.424 89.1978 270.497 90.8427Z" fill="url(#paint8_linear_41_211)"/>
<path d="M168.354 164.306L171.172 168.655C172.245 170.314 174.462 170.772 176.107 169.699L360.968 49.6195C362.627 48.5467 363.085 46.3296 362.012 44.6847L359.194 40.3364C358.121 38.6772 355.904 38.2194 354.259 39.2922L169.398 159.372C167.753 160.444 167.281 162.662 168.354 164.306Z" fill="url(#paint9_linear_41_211)"/>
<path d="M293.783 146.398L296.601 150.747C297.674 152.406 299.891 152.863 301.536 151.791L486.397 31.7112C488.056 30.6385 488.514 28.4214 487.441 26.7765L484.623 22.4281C483.55 20.7689 481.333 20.3112 479.688 21.384L294.827 141.463C293.183 142.536 292.711 144.739 293.783 146.398Z" fill="url(#paint10_linear_41_211)"/>
<path d="M198.821 182.229L201.639 186.577C202.712 188.237 204.929 188.694 206.574 187.621L391.434 67.542C393.094 66.4692 393.551 64.2521 392.479 62.6072L389.661 58.2589C388.588 56.5997 386.371 56.142 384.726 57.2147L199.865 177.294C198.206 178.367 197.748 180.584 198.821 182.229Z" fill="url(#paint11_linear_41_211)"/>
<path d="M240.03 223.452L242.848 227.801C243.921 229.46 246.138 229.917 247.783 228.845L432.644 108.765C434.303 107.692 434.76 105.475 433.688 103.83L430.87 99.4821C429.797 97.8229 427.58 97.3652 425.935 98.438L241.074 218.517C239.429 219.576 238.957 221.793 240.03 223.452Z" fill="url(#paint12_linear_41_211)"/>
<path d="M290.207 135.642L293.025 139.99C294.098 141.649 296.315 142.107 297.96 141.034L482.821 20.9549C484.48 19.8821 484.938 17.665 483.865 16.0201L481.047 11.6718C479.974 10.0126 477.757 9.55484 476.112 10.6276L291.251 130.707C289.592 131.78 289.134 133.983 290.207 135.642Z" fill="url(#paint13_linear_41_211)"/>
<path d="M354.717 108.765L357.535 113.114C358.607 114.773 360.825 115.23 362.469 114.158L547.33 -5.92175C548.99 -6.99453 549.447 -9.2116 548.374 -10.8565L545.557 -15.2048C544.484 -16.8641 542.267 -17.3218 540.622 -16.249L355.761 103.83C354.102 104.903 353.644 107.106 354.717 108.765Z" fill="url(#paint14_linear_41_211)"/>
<path d="M275.875 151.762L278.693 156.11C279.766 157.77 281.983 158.227 283.628 157.155L468.489 37.0751C470.148 36.0024 470.606 33.7853 469.533 32.1404L466.715 27.792C465.642 26.1328 463.425 25.6751 461.78 26.7479L276.919 146.827C275.26 147.9 274.788 150.117 275.875 151.762Z" fill="url(#paint15_linear_41_211)"/>
<path d="M360.081 157.14L362.899 161.489C363.971 163.148 366.189 163.606 367.833 162.533L552.694 42.4533C554.354 41.3805 554.811 39.1635 553.739 37.5185L550.921 33.1702C549.848 31.511 547.631 31.0533 545.986 32.1261L361.125 152.206C359.48 153.278 359.008 155.495 360.081 157.14Z" fill="url(#paint16_linear_41_211)"/>
<path d="M247.196 141.02L250.014 145.368C251.087 147.028 253.304 147.485 254.949 146.413L439.81 26.3331C441.469 25.2603 441.927 23.0432 440.854 21.3983L438.036 17.05C436.963 15.3907 434.746 14.933 433.101 16.0058L248.241 136.085C246.596 137.158 246.124 139.361 247.196 141.02Z" fill="url(#paint17_linear_41_211)"/>
<path d="M311.706 128.476L314.524 132.824C315.597 134.483 317.814 134.941 319.458 133.868L504.319 13.7887C505.979 12.716 506.436 10.4989 505.364 8.85396L502.546 4.50563C501.473 2.84641 499.256 2.38869 497.611 3.46146L312.75 123.541C311.105 124.614 310.633 126.816 311.706 128.476Z" fill="url(#paint18_linear_41_211)"/>
<path d="M318.872 171.487L321.69 175.835C322.762 177.494 324.979 177.952 326.624 176.879L511.485 56.7999C513.145 55.7272 513.602 53.5101 512.529 51.8651L509.712 47.5168C508.639 45.8576 506.422 45.3999 504.777 46.4727L319.916 166.538C318.271 167.611 317.799 169.828 318.872 171.487Z" fill="url(#paint19_linear_41_211)"/>
<path d="M360.081 192.985L362.899 197.334C363.971 198.993 366.189 199.451 367.833 198.378L552.694 78.2984C554.354 77.2256 554.811 75.0085 553.739 73.3636L550.921 69.0153C549.848 67.3561 547.631 66.8983 545.986 67.9711L361.125 188.051C359.48 189.123 359.008 191.326 360.081 192.985Z" fill="url(#paint20_linear_41_211)"/>
<path d="M247.196 189.395L250.014 193.743C251.087 195.403 253.304 195.86 254.949 194.788L439.81 74.7081C441.469 73.6354 441.927 71.4183 440.854 69.7734L438.036 65.425C436.963 63.7658 434.746 63.3081 433.101 64.3809L248.241 184.46C246.596 185.533 246.124 187.75 247.196 189.395Z" fill="url(#paint21_linear_41_211)"/>
<path d="M214.941 167.897L217.759 172.245C218.832 173.904 221.049 174.362 222.694 173.289L407.555 53.2097C409.214 52.1369 409.672 49.9199 408.599 48.2749L405.781 43.9266C404.708 42.2674 402.491 41.8097 400.846 42.8824L215.985 162.962C214.341 164.035 213.869 166.237 214.941 167.897Z" fill="url(#paint22_linear_41_211)"/>
<path d="M-145.225 275.418L-142.407 279.766C-141.335 281.425 -139.117 281.883 -137.473 280.81L47.3884 160.731C49.0476 159.658 49.5053 157.441 48.4325 155.796L45.6147 151.447C44.5419 149.788 42.3248 149.331 40.6799 150.403L-144.181 270.468C-145.84 271.541 -146.312 273.758 -145.225 275.418Z" fill="url(#paint23_linear_41_211)"/>
<path d="M-87.896 268.237L-85.0782 272.585C-84.0054 274.245 -81.7883 274.702 -80.1434 273.63L104.717 153.55C106.377 152.477 106.834 150.26 105.762 148.615L102.944 144.267C101.871 142.608 99.654 142.15 98.009 143.223L-86.8375 263.302C-88.4968 264.375 -88.9688 266.592 -87.896 268.237Z" fill="url(#paint24_linear_41_211)"/>
<path d="M-112.97 309.46L-110.153 313.809C-109.08 315.468 -106.863 315.926 -105.218 314.853L79.643 194.773C81.3022 193.701 81.7599 191.484 80.6872 189.839L77.8693 185.49C76.7966 183.831 74.5795 183.373 72.9346 184.446L-111.926 304.526C-113.586 305.598 -114.058 307.801 -112.97 309.46Z" fill="url(#paint25_linear_41_211)"/>
<path d="M-71.7616 341.715L-68.9438 346.063C-67.871 347.723 -65.6539 348.18 -64.009 347.108L120.852 227.028C122.511 225.955 122.969 223.738 121.896 222.093L119.078 217.745C118.005 216.086 115.788 215.628 114.143 216.701L-70.7174 336.78C-72.3624 337.853 -72.8344 340.056 -71.7616 341.715Z" fill="url(#paint26_linear_41_211)"/>
<path d="M-93.26 304.082L-90.4422 308.43C-89.3694 310.09 -87.1524 310.547 -85.5074 309.475L99.3534 189.395C101.013 188.322 101.47 186.105 100.398 184.46L97.5798 180.112C96.507 178.453 94.2899 177.995 92.645 179.068L-92.2159 299.147C-93.8751 300.22 -94.3471 302.423 -93.26 304.082Z" fill="url(#paint27_linear_41_211)"/>
<path d="M-77.1397 291.538L-74.3218 295.886C-73.2491 297.545 -71.032 298.003 -69.387 296.93L115.474 176.851C117.133 175.778 117.591 173.561 116.518 171.916L113.7 167.568C112.627 165.909 110.41 165.451 108.765 166.524L-76.0955 286.603C-77.7404 287.676 -78.2124 289.879 -77.1397 291.538Z" fill="url(#paint28_linear_41_211)"/>
<path d="M-179.282 365.002L-176.464 369.35C-175.392 371.009 -173.175 371.467 -171.53 370.394L13.3312 250.315C14.9905 249.242 15.4482 247.025 14.3754 245.38L11.5576 241.031C10.4848 239.372 8.26773 238.915 6.6228 239.987L-178.224 360.067C-179.883 361.14 -180.355 363.357 -179.282 365.002Z" fill="url(#paint29_linear_41_211)"/>
<path d="M-53.8388 347.093L-51.021 351.442C-49.9482 353.101 -47.7311 353.559 -46.0862 352.486L138.775 232.406C140.434 231.334 140.892 229.117 139.819 227.472L137.001 223.123C135.928 221.464 133.711 221.006 132.066 222.079L-52.7946 342.144C-54.4539 343.231 -54.9116 345.434 -53.8388 347.093Z" fill="url(#paint30_linear_41_211)"/>
<path d="M-148.815 382.924L-145.998 387.272C-144.925 388.932 -142.708 389.389 -141.063 388.317L43.798 268.237C45.4572 267.164 45.9149 264.947 44.8421 263.302L42.0243 258.954C40.9515 257.295 38.7345 256.837 37.0896 257.91L-147.771 377.989C-149.416 379.062 -149.888 381.279 -148.815 382.924Z" fill="url(#paint31_linear_41_211)"/>
<path d="M-107.606 424.147L-104.789 428.496C-103.716 430.155 -101.499 430.613 -99.8539 429.54L85.007 309.46C86.6663 308.388 87.124 306.17 86.0512 304.526L83.2334 300.177C82.1606 298.518 79.9435 298.06 78.2986 299.133L-106.548 419.198C-108.207 420.271 -108.679 422.488 -107.606 424.147Z" fill="url(#paint32_linear_41_211)"/>
<path d="M-57.4291 336.337L-54.6113 340.685C-53.5385 342.345 -51.3214 342.802 -49.6765 341.729L135.184 221.65C136.844 220.577 137.301 218.36 136.229 216.715L133.411 212.367C132.338 210.708 130.121 210.25 128.476 211.323L-56.3849 331.402C-58.0298 332.475 -58.5019 334.678 -57.4291 336.337Z" fill="url(#paint33_linear_41_211)"/>
<path d="M7.08056 309.46L9.89839 313.809C10.9712 315.468 13.1882 315.926 14.8332 314.853L199.694 194.773C201.353 193.701 201.811 191.484 200.738 189.839L197.92 185.49C196.848 183.831 194.631 183.373 192.986 184.446L8.12473 304.526C6.4798 305.598 6.00779 307.801 7.08056 309.46Z" fill="url(#paint34_linear_41_211)"/>
<path d="M-71.7615 352.457L-68.9437 356.806C-67.8709 358.465 -65.6538 358.922 -64.0089 357.85L120.852 237.77C122.511 236.697 122.969 234.48 121.896 232.835L119.078 228.487C118.006 226.828 115.788 226.37 114.144 227.443L-70.7173 347.522C-72.3622 348.595 -72.8343 350.812 -71.7615 352.457Z" fill="url(#paint35_linear_41_211)"/>
<path d="M12.4589 357.835L15.2767 362.184C16.3495 363.843 18.5666 364.301 20.2115 363.228L205.072 243.148C206.732 242.076 207.189 239.859 206.117 238.214L203.299 233.865C202.226 232.206 200.009 231.748 198.364 232.821L13.5031 352.901C11.8582 353.973 11.3861 356.19 12.4589 357.835Z" fill="url(#paint36_linear_41_211)"/>
<path d="M-100.44 341.715L-97.6226 346.063C-96.5498 347.723 -94.3328 348.18 -92.6878 347.108L92.173 227.028C93.8323 225.955 94.29 223.738 93.2172 222.093L90.3994 217.745C89.3266 216.086 87.1095 215.628 85.4646 216.701L-99.382 336.78C-101.041 337.853 -101.513 340.056 -100.44 341.715Z" fill="url(#paint37_linear_41_211)"/>
<path d="M-35.9305 329.171L-33.1127 333.519C-32.0399 335.178 -29.8228 335.636 -28.1779 334.563L156.683 214.484C158.342 213.411 158.8 211.194 157.727 209.549L154.909 205.201C153.837 203.542 151.619 203.084 149.975 204.157L-34.8863 324.236C-36.5312 325.309 -37.0033 327.512 -35.9305 329.171Z" fill="url(#paint38_linear_41_211)"/>
<path d="M-28.7503 372.168L-25.9325 376.516C-24.8597 378.175 -22.6427 378.633 -20.9977 377.56L163.863 257.481C165.522 256.408 165.98 254.191 164.907 252.546L162.089 248.198C161.017 246.538 158.8 246.081 157.155 247.153L-27.7062 367.233C-29.3654 368.306 -29.8374 370.523 -28.7503 372.168Z" fill="url(#paint39_linear_41_211)"/>
<path d="M12.4589 393.68L15.2767 398.029C16.3495 399.688 18.5666 400.146 20.2115 399.073L205.072 278.993C206.732 277.921 207.189 275.704 206.117 274.059L203.299 269.71C202.226 268.051 200.009 267.593 198.364 268.666L13.5031 388.746C11.8582 389.818 11.3861 392.021 12.4589 393.68Z" fill="url(#paint40_linear_41_211)"/>
<path d="M-100.44 390.09L-97.6226 394.439C-96.5498 396.098 -94.3328 396.555 -92.6878 395.483L92.173 275.403C93.8323 274.33 94.29 272.113 93.2172 270.468L90.3994 266.12C89.3266 264.461 87.1095 264.003 85.4646 265.076L-99.382 385.155C-101.041 386.228 -101.513 388.445 -100.44 390.09Z" fill="url(#paint41_linear_41_211)"/>
<path d="M-132.695 368.592L-129.877 372.94C-128.804 374.599 -126.587 375.057 -124.942 373.984L59.9184 253.905C61.5776 252.832 62.0354 250.615 60.9626 248.97L58.1447 244.622C57.072 242.963 54.8549 242.505 53.21 243.578L-131.637 363.657C-133.296 364.73 -133.768 366.933 -132.695 368.592Z" fill="url(#paint42_linear_41_211)"/>
</g>
<g clip-path="url(#clip0_41_211)">
<path d="M45.082 125.474V127.92L41.6206 127.763L43.6374 130.552L41.4632 131.854L39.7468 128.735L38.0303 131.854L35.8991 130.552L37.8873 127.763L34.4544 127.92V125.474L37.8873 125.66L35.8991 122.842L38.0303 121.541L39.7468 124.659L41.4632 121.541L43.6374 122.842L41.6206 125.66L45.082 125.474Z" fill="white"/>
<path d="M62.9473 125.474V127.92L59.4859 127.763L61.5027 130.552L59.3285 131.854L57.6121 128.735L55.8956 131.854L53.7644 130.552L55.7526 127.763L52.3197 127.92V125.474L55.7526 125.66L53.7644 122.842L55.8956 121.541L57.6121 124.659L59.3285 121.541L61.5027 122.842L59.4859 125.66L62.9473 125.474Z" fill="white"/>
<path d="M80.827 125.474V127.92L77.3655 127.763L79.3823 130.552L77.2082 131.854L75.4917 128.735L73.7753 131.854L71.644 130.552L73.6322 127.763L70.1993 127.92V125.474L73.6322 125.66L71.644 122.842L73.7753 121.541L75.4917 124.659L77.2082 121.541L79.3823 122.842L77.3655 125.66L80.827 125.474Z" fill="white"/>
<path d="M98.6923 125.474V127.92L95.2308 127.763L97.2476 130.552L95.0734 131.854L93.357 128.735L91.6406 131.854L89.5093 130.552L91.4975 127.763L88.0646 127.92V125.474L91.4975 125.66L89.5093 122.842L91.6406 121.541L93.357 124.659L95.0734 121.541L97.2476 122.842L95.2308 125.66L98.6923 125.474Z" fill="white"/>
<path d="M128.959 125.474V127.92L125.497 127.763L127.514 130.552L125.34 131.854L123.624 128.735L121.907 131.854L119.776 130.552L121.764 127.763L118.331 127.92V125.474L121.764 125.66L119.776 122.842L121.907 121.541L123.624 124.659L125.34 121.541L127.514 122.842L125.497 125.66L128.959 125.474Z" fill="white"/>
<path d="M146.824 125.474V127.92L143.363 127.763L145.379 130.552L143.205 131.854L141.489 128.735L139.772 131.854L137.641 130.552L139.629 127.763L136.197 127.92V125.474L139.629 125.66L137.641 122.842L139.772 121.541L141.489 124.659L143.205 121.541L145.379 122.842L143.363 125.66L146.824 125.474Z" fill="white"/>
<path d="M164.704 125.474V127.92L161.242 127.763L163.259 130.552L161.085 131.854L159.369 128.735L157.652 131.854L155.521 130.552L157.509 127.763L154.076 127.92V125.474L157.509 125.66L155.521 122.842L157.652 121.541L159.369 124.659L161.085 121.541L163.259 122.842L161.242 125.66L164.704 125.474Z" fill="white"/>
<path d="M182.569 125.474V127.92L179.108 127.763L181.124 130.552L178.95 131.854L177.234 128.735L175.517 131.854L173.386 130.552L175.374 127.763L171.941 127.92V125.474L175.374 125.66L173.386 122.842L175.517 121.541L177.234 124.659L178.95 121.541L181.124 122.842L179.108 125.66L182.569 125.474Z" fill="white"/>
<path d="M212.836 125.474V127.92L209.374 127.763L211.391 130.552L209.217 131.854L207.5 128.735L205.784 131.854L203.653 130.552L205.641 127.763L202.208 127.92V125.474L205.641 125.66L203.653 122.842L205.784 121.541L207.5 124.659L209.217 121.541L211.391 122.842L209.374 125.66L212.836 125.474Z" fill="white"/>
<path d="M230.701 125.474V127.92L227.24 127.763L229.256 130.552L227.082 131.854L225.366 128.735L223.649 131.854L221.518 130.552L223.506 127.763L220.073 127.92V125.474L223.506 125.66L221.518 122.842L223.649 121.541L225.366 124.659L227.082 121.541L229.256 122.842L227.24 125.66L230.701 125.474Z" fill="white"/>
<path d="M248.581 125.474V127.92L245.119 127.763L247.136 130.552L244.962 131.854L243.245 128.735L241.529 131.854L239.398 130.552L241.386 127.763L237.953 127.92V125.474L241.386 125.66L239.398 122.842L241.529 121.541L243.245 124.659L244.962 121.541L247.136 122.842L245.119 125.66L248.581 125.474Z" fill="white"/>
<path d="M266.446 125.474V127.92L262.984 127.763L265.001 130.552L262.827 131.854L261.111 128.735L259.394 131.854L257.263 130.552L259.251 127.763L255.818 127.92V125.474L259.251 125.66L257.263 122.842L259.394 121.541L261.111 124.659L262.827 121.541L265.001 122.842L262.984 125.66L266.446 125.474Z" fill="white"/>
<path d="M285.227 148.718V145.828L294.639 136.23C297.156 133.713 298.415 131.553 298.415 129.751C298.415 128.249 297.957 127.076 297.042 126.246C296.126 125.403 295.01 124.988 293.694 124.988C291.177 124.988 289.346 126.175 288.202 128.564L285.227 126.804C286.071 125.074 287.229 123.772 288.717 122.885C290.204 121.998 291.849 121.555 293.652 121.555C295.883 121.555 297.828 122.284 299.487 123.758C301.147 125.231 301.962 127.219 301.962 129.708C301.962 132.397 300.374 135.344 297.199 138.519L290.39 145.299H302.448V148.732H285.227V148.718Z" fill="white"/>
<path d="M318.454 132.984C320.485 133.37 322.159 134.242 323.46 135.615C324.762 136.989 325.406 138.734 325.406 140.836C325.406 143.425 324.519 145.471 322.731 146.973C320.943 148.474 318.797 149.218 316.251 149.218C314.22 149.218 312.418 148.76 310.845 147.831C309.271 146.901 308.156 145.571 307.498 143.811L310.473 142.052C311.259 144.512 313.19 145.742 316.266 145.742C317.911 145.742 319.255 145.313 320.299 144.441C321.344 143.583 321.858 142.367 321.858 140.822C321.858 139.277 321.344 138.061 320.299 137.189C319.255 136.316 317.911 135.873 316.266 135.873H315.35L313.934 133.699L320.113 125.36H308.256V122.041H324.261L324.247 125.145L318.454 132.984Z" fill="white"/>
<path d="M351.725 140.336V143.654H348.492V148.718H344.945V143.654H331.342V140.336L340.911 122.041H344.716L335.147 140.336H344.945V132.783H348.492V140.336H351.725Z" fill="white"/>
<path d="M365.671 132.454C368.188 132.454 370.319 133.198 372.064 134.686C373.809 136.173 374.682 138.219 374.682 140.836C374.682 143.425 373.795 145.471 372.021 146.973C370.248 148.474 368.088 149.218 365.542 149.218C363.511 149.218 361.694 148.732 360.092 147.745C358.49 146.772 357.375 145.356 356.745 143.497L359.749 141.78C360.107 143.082 360.793 144.055 361.809 144.727C362.824 145.399 364.069 145.742 365.542 145.742C367.215 145.742 368.574 145.313 369.618 144.441C370.663 143.583 371.178 142.367 371.178 140.822C371.178 139.277 370.663 138.061 369.618 137.189C368.574 136.316 367.244 135.873 365.613 135.873H358.075L359.034 122.041H373.666V125.36H362.266L361.794 132.454H365.671Z" fill="white"/>
<path d="M36.3783 226.928C34.8192 226.928 33.5319 226.413 32.5163 225.383C31.5008 224.353 31.0001 223.095 31.0001 221.593C31.0001 220.091 31.5008 218.832 32.5163 217.802C33.5319 216.772 34.8192 216.257 36.3783 216.257C37.3224 216.257 38.1806 216.486 38.9673 216.93C39.754 217.387 40.369 217.988 40.8125 218.746L39.6252 219.433C39.3249 218.861 38.8958 218.417 38.3093 218.074C37.7229 217.731 37.0792 217.573 36.3783 217.573C35.1911 217.573 34.2185 217.96 33.4747 218.718C32.7309 219.476 32.3447 220.434 32.3447 221.578C32.3447 222.708 32.7166 223.667 33.4747 224.425C34.2185 225.183 35.1911 225.569 36.3783 225.569C37.0792 225.569 37.7229 225.397 38.3093 225.069C38.8958 224.725 39.3249 224.282 39.6252 223.724L40.8125 224.396C40.3833 225.154 39.7683 225.769 38.9816 226.227C38.1949 226.699 37.3224 226.928 36.3783 226.928Z" fill="white"/>
<path d="M48.2933 219.376H49.5663V226.728H48.2933V225.469C47.6496 226.442 46.7342 226.928 45.5183 226.928C44.4885 226.928 43.6159 226.556 42.8865 225.798C42.157 225.054 41.7994 224.139 41.7994 223.052C41.7994 221.965 42.157 221.063 42.8865 220.305C43.6159 219.562 44.4885 219.175 45.5183 219.175C46.7342 219.175 47.6639 219.662 48.2933 220.634V219.376ZM45.6757 225.684C46.4195 225.684 47.0488 225.426 47.5495 224.925C48.0501 224.425 48.2933 223.795 48.2933 223.052C48.2933 222.308 48.0501 221.679 47.5495 221.178C47.0488 220.677 46.4338 220.42 45.6757 220.42C44.9462 220.42 44.3168 220.677 43.8305 221.178C43.3442 221.679 43.0867 222.308 43.0867 223.052C43.0867 223.795 43.3299 224.425 43.8305 224.925C44.3168 225.44 44.9319 225.684 45.6757 225.684Z" fill="white"/>
<path d="M52.7846 220.62C53.1994 219.705 53.9718 219.247 55.0732 219.247V220.591C54.4439 220.563 53.9003 220.735 53.4569 221.092C53.0135 221.45 52.7846 222.036 52.7846 222.837V226.728H51.5116V219.376H52.7846V220.62Z" fill="white"/>
<path d="M62.0248 216.443H63.2978V226.728H62.0248V225.469C61.3812 226.442 60.4657 226.928 59.2499 226.928C58.22 226.928 57.3475 226.556 56.618 225.798C55.8885 225.054 55.5309 224.139 55.5309 223.052C55.5309 221.965 55.8885 221.063 56.618 220.305C57.3475 219.562 58.22 219.175 59.2499 219.175C60.4657 219.175 61.3955 219.662 62.0248 220.634V216.443ZM59.4072 225.684C60.151 225.684 60.7804 225.426 61.281 224.925C61.7817 224.425 62.0248 223.795 62.0248 223.052C62.0248 222.308 61.7817 221.679 61.281 221.178C60.7804 220.677 60.1653 220.42 59.4072 220.42C58.6778 220.42 58.0484 220.677 57.5621 221.178C57.0757 221.679 56.8183 222.308 56.8183 223.052C56.8183 223.795 57.0614 224.425 57.5621 224.925C58.0484 225.44 58.6635 225.684 59.4072 225.684Z" fill="white"/>
<path d="M75.4131 216.443H76.7719V226.728H75.4131V222.093H70.4211V226.728H69.0479V216.443H70.4211V220.806H75.4131V216.443Z" fill="white"/>
<path d="M85.0395 225.798C84.2814 226.542 83.3659 226.914 82.2932 226.914C81.2204 226.914 80.305 226.542 79.5469 225.798C78.7888 225.054 78.4169 224.139 78.4169 223.052C78.4169 221.965 78.7888 221.049 79.5469 220.305C80.305 219.562 81.2061 219.19 82.2932 219.19C83.3802 219.19 84.2814 219.562 85.0395 220.305C85.7976 221.049 86.1695 221.965 86.1695 223.052C86.1695 224.139 85.7976 225.054 85.0395 225.798ZM82.2932 225.669C83.0227 225.669 83.652 225.426 84.1383 224.925C84.639 224.425 84.8821 223.81 84.8821 223.066C84.8821 222.322 84.639 221.693 84.1383 221.192C83.6377 220.692 83.0227 220.448 82.2932 220.448C81.5637 220.448 80.9486 220.692 80.448 221.192C79.9474 221.693 79.7042 222.322 79.7042 223.066C79.7042 223.81 79.9474 224.439 80.448 224.925C80.9486 225.426 81.5637 225.669 82.2932 225.669Z" fill="white"/>
<path d="M87.6857 226.728V216H88.9587V226.728H87.6857Z" fill="white"/>
<path d="M97.0116 216.443H98.2847V226.728H97.0116V225.469C96.368 226.442 95.4525 226.928 94.2367 226.928C93.2069 226.928 92.3343 226.556 91.6048 225.798C90.8754 225.054 90.5178 224.139 90.5178 223.052C90.5178 221.965 90.8754 221.063 91.6048 220.305C92.3343 219.562 93.2069 219.175 94.2367 219.175C95.4525 219.175 96.3823 219.662 97.0116 220.634V216.443ZM94.3941 225.684C95.1379 225.684 95.7672 225.426 96.2678 224.925C96.7685 224.425 97.0116 223.795 97.0116 223.052C97.0116 222.308 96.7685 221.679 96.2678 221.178C95.7672 220.677 95.1522 220.42 94.3941 220.42C93.6646 220.42 93.0352 220.677 92.5489 221.178C92.0626 221.679 91.8051 222.308 91.8051 223.052C91.8051 223.795 92.0483 224.425 92.5489 224.925C93.0352 225.44 93.6503 225.684 94.3941 225.684Z" fill="white"/>
<path d="M101.117 223.638C101.246 224.296 101.546 224.811 102.018 225.169C102.49 225.526 103.076 225.712 103.777 225.712C104.75 225.712 105.451 225.355 105.894 224.639L106.981 225.254C106.266 226.356 105.193 226.914 103.749 226.914C102.576 226.914 101.632 226.556 100.902 225.812C100.173 225.069 99.8008 224.153 99.8008 223.037C99.8008 221.936 100.158 221.006 100.874 220.277C101.589 219.547 102.519 219.175 103.649 219.175C104.721 219.175 105.608 219.562 106.28 220.32C106.967 221.078 107.296 221.993 107.296 223.066C107.296 223.252 107.282 223.438 107.253 223.638H101.117ZM103.663 220.391C102.976 220.391 102.404 220.591 101.961 220.978C101.517 221.364 101.231 221.879 101.131 222.522H106.037C105.923 221.822 105.651 221.292 105.208 220.935C104.764 220.577 104.249 220.391 103.663 220.391Z" fill="white"/>
<path d="M110.071 220.62C110.486 219.705 111.258 219.247 112.36 219.247V220.591C111.73 220.563 111.187 220.735 110.743 221.092C110.3 221.45 110.071 222.036 110.071 222.837V226.728H108.798V219.376H110.071V220.62Z" fill="white"/>
<path d="M120.956 219.19C121.814 219.19 122.515 219.461 123.03 220.005C123.545 220.549 123.802 221.292 123.802 222.222V226.742H122.529V222.308C122.529 221.707 122.372 221.249 122.043 220.92C121.714 220.591 121.271 220.434 120.699 220.434C120.055 220.434 119.554 220.634 119.154 221.035C118.768 221.435 118.567 222.036 118.567 222.866V226.756H117.294V219.404H118.567V220.463C119.097 219.605 119.883 219.19 120.956 219.19Z" fill="white"/>
<path d="M131.669 219.376H132.943V226.728H131.669V225.469C131.026 226.442 130.11 226.928 128.895 226.928C127.865 226.928 126.992 226.556 126.263 225.798C125.533 225.054 125.176 224.139 125.176 223.052C125.176 221.965 125.533 221.063 126.263 220.305C126.992 219.562 127.865 219.175 128.895 219.175C130.11 219.175 131.04 219.662 131.669 220.634V219.376ZM129.052 225.684C129.796 225.684 130.425 225.426 130.926 224.925C131.426 224.425 131.669 223.795 131.669 223.052C131.669 222.308 131.426 221.679 130.926 221.178C130.425 220.677 129.81 220.42 129.052 220.42C128.322 220.42 127.693 220.677 127.207 221.178C126.72 221.679 126.463 222.308 126.463 223.052C126.463 223.795 126.706 224.425 127.207 224.925C127.707 225.44 128.322 225.684 129.052 225.684Z" fill="white"/>
<path d="M142.826 219.19C143.656 219.19 144.314 219.461 144.829 219.991C145.344 220.52 145.587 221.249 145.587 222.165V226.742H144.314V222.208C144.314 221.636 144.171 221.192 143.871 220.892C143.57 220.577 143.184 220.42 142.698 220.42C142.154 220.42 141.711 220.606 141.382 220.963C141.053 221.321 140.895 221.893 140.895 222.651V226.742H139.622V222.208C139.622 221.636 139.479 221.192 139.208 220.892C138.921 220.577 138.55 220.42 138.063 220.42C137.52 220.42 137.076 220.606 136.719 220.978C136.361 221.35 136.175 221.907 136.175 222.651V226.742H134.902V219.39H136.175V220.377C136.676 219.59 137.405 219.204 138.364 219.204C139.351 219.204 140.08 219.619 140.523 220.448C141.024 219.605 141.796 219.19 142.826 219.19Z" fill="white"/>
<path d="M148.276 223.638C148.405 224.296 148.705 224.811 149.177 225.169C149.649 225.526 150.236 225.712 150.937 225.712C151.909 225.712 152.61 225.355 153.054 224.639L154.141 225.254C153.425 226.356 152.353 226.914 150.908 226.914C149.735 226.914 148.791 226.556 148.062 225.812C147.332 225.069 146.96 224.153 146.96 223.037C146.96 221.936 147.318 221.006 148.033 220.277C148.748 219.547 149.678 219.175 150.808 219.175C151.881 219.175 152.767 219.562 153.44 220.32C154.126 221.078 154.455 221.993 154.455 223.066C154.455 223.252 154.441 223.438 154.412 223.638H148.276ZM150.808 220.391C150.121 220.391 149.549 220.591 149.106 220.978C148.662 221.364 148.376 221.879 148.276 222.522H153.182C153.068 221.822 152.796 221.292 152.353 220.935C151.909 220.577 151.394 220.391 150.808 220.391Z" fill="white"/>
<path d="M284.597 225.471H289.375V226.759H283.224V216.474H289.303V217.762H284.597V220.923H288.931V222.196H284.597V225.471Z" fill="white"/>
<path d="M297.27 226.773H295.769L293.709 223.998L291.649 226.773H290.147L292.965 222.982L290.319 219.421H291.835L293.723 221.967L295.625 219.421H297.127L294.481 222.982L297.27 226.773Z" fill="white"/>
<path d="M302.52 219.235C303.55 219.235 304.422 219.607 305.152 220.365C305.881 221.123 306.239 222.024 306.239 223.111C306.239 224.198 305.881 225.099 305.152 225.857C304.422 226.601 303.55 226.987 302.52 226.987C301.304 226.987 300.374 226.501 299.745 225.528V229.734H298.472V219.449H299.745V220.708C300.374 219.721 301.304 219.235 302.52 219.235ZM302.363 225.729C303.092 225.729 303.721 225.471 304.208 224.971C304.708 224.47 304.951 223.841 304.951 223.097C304.951 222.353 304.708 221.724 304.208 221.223C303.707 220.722 303.092 220.465 302.363 220.465C301.619 220.465 300.989 220.722 300.489 221.223C299.988 221.724 299.745 222.353 299.745 223.097C299.745 223.841 299.988 224.47 300.489 224.971C300.989 225.471 301.619 225.729 302.363 225.729Z" fill="white"/>
<path d="M308.413 218.076C308.17 218.076 307.955 217.99 307.798 217.833C307.626 217.661 307.555 217.461 307.555 217.232C307.555 216.989 307.641 216.789 307.798 216.617C307.97 216.446 308.17 216.36 308.413 216.36C308.642 216.36 308.842 216.446 309.014 216.617C309.185 216.789 309.257 216.989 309.257 217.232C309.257 217.461 309.171 217.661 309.014 217.833C308.856 218.005 308.656 218.076 308.413 218.076ZM307.769 226.773V219.421H309.042V226.773H307.769Z" fill="white"/>
<path d="M312.275 220.651C312.69 219.735 313.462 219.278 314.564 219.278V220.622C313.934 220.594 313.391 220.765 312.947 221.123C312.504 221.48 312.275 222.067 312.275 222.868V226.759H311.002V219.406H312.275V220.651Z" fill="white"/>
<path d="M321.115 219.421H322.488L319.484 227.231C319.169 228.06 318.726 228.704 318.168 229.133C317.61 229.562 316.952 229.762 316.223 229.719V228.532C317.124 228.604 317.782 228.103 318.197 227.03L318.34 226.759L315.136 219.435H316.509L318.955 225.071L321.115 219.421Z" fill="white"/>
<path d="M331.385 216.474C332.786 216.474 333.945 216.975 334.875 217.962C335.805 218.949 336.262 220.179 336.262 221.609C336.262 223.054 335.805 224.27 334.875 225.257C333.945 226.244 332.786 226.744 331.385 226.744H327.365V216.46H331.385V216.474ZM331.385 225.471C332.429 225.471 333.287 225.099 333.959 224.37C334.632 223.64 334.961 222.711 334.961 221.623C334.961 220.522 334.632 219.607 333.959 218.877C333.287 218.148 332.429 217.776 331.385 217.776H328.738V225.485H331.385V225.471Z" fill="white"/>
<path d="M343.872 219.421H345.145V226.773H343.872V225.514C343.228 226.487 342.313 226.973 341.097 226.973C340.067 226.973 339.194 226.601 338.465 225.843C337.736 225.099 337.378 224.184 337.378 223.097C337.378 222.01 337.736 221.109 338.465 220.35C339.194 219.607 340.067 219.22 341.097 219.22C342.313 219.22 343.242 219.707 343.872 220.679V219.421ZM341.254 225.729C341.998 225.729 342.627 225.471 343.128 224.971C343.629 224.47 343.872 223.841 343.872 223.097C343.872 222.353 343.629 221.724 343.128 221.223C342.627 220.722 342.012 220.465 341.254 220.465C340.525 220.465 339.895 220.722 339.409 221.223C338.923 221.724 338.665 222.353 338.665 223.097C338.665 223.841 338.908 224.47 339.409 224.971C339.91 225.471 340.525 225.729 341.254 225.729Z" fill="white"/>
<path d="M351.095 220.651H349.136V224.642C349.136 224.999 349.207 225.257 349.35 225.414C349.493 225.571 349.708 225.643 350.008 225.657C350.308 225.657 350.666 225.657 351.095 225.629V226.773C349.979 226.916 349.164 226.83 348.635 226.501C348.12 226.172 347.863 225.557 347.863 224.642V220.651H346.404V219.421H347.863V217.747L349.136 217.361V219.421H351.095V220.651Z" fill="white"/>
<path d="M353.141 223.683C353.269 224.341 353.57 224.856 354.042 225.214C354.514 225.571 355.1 225.757 355.801 225.757C356.774 225.757 357.475 225.4 357.918 224.684L359.005 225.3C358.29 226.401 357.217 226.959 355.772 226.959C354.6 226.959 353.656 226.601 352.926 225.857C352.197 225.114 351.825 224.198 351.825 223.082C351.825 221.981 352.182 221.051 352.897 220.322C353.613 219.592 354.542 219.22 355.672 219.22C356.745 219.22 357.632 219.607 358.304 220.365C358.991 221.123 359.32 222.038 359.32 223.111C359.32 223.297 359.306 223.483 359.277 223.683H353.141ZM355.672 220.436C354.986 220.436 354.414 220.637 353.97 221.023C353.527 221.409 353.241 221.924 353.141 222.568H358.047C357.932 221.867 357.661 221.337 357.217 220.98C356.788 220.622 356.273 220.436 355.672 220.436Z" fill="white"/>
<path d="M293.694 255.366C292.636 256.853 291.134 257.597 289.217 257.597C287.301 257.597 285.813 256.853 284.74 255.366C283.682 253.878 283.138 251.904 283.138 249.43C283.138 246.955 283.668 244.981 284.74 243.494C285.799 242.006 287.301 241.262 289.217 241.262C291.134 241.262 292.622 242.006 293.694 243.494C294.753 244.981 295.297 246.955 295.297 249.43C295.297 251.904 294.753 253.878 293.694 255.366ZM286.271 253.95C286.957 255.008 287.944 255.552 289.217 255.552C290.49 255.552 291.477 255.023 292.178 253.95C292.879 252.877 293.222 251.375 293.222 249.43C293.222 247.485 292.879 245.968 292.178 244.896C291.477 243.823 290.49 243.294 289.217 243.294C287.944 243.294 286.957 243.823 286.271 244.896C285.584 245.968 285.241 247.47 285.241 249.444C285.241 251.375 285.584 252.877 286.271 253.95Z" fill="white"/>
<path d="M296.813 257.297V255.58L302.363 249.916C303.85 248.429 304.594 247.156 304.594 246.097C304.594 245.21 304.322 244.524 303.779 244.023C303.235 243.522 302.577 243.279 301.805 243.279C300.317 243.279 299.244 243.98 298.572 245.396L296.813 244.366C297.313 243.351 298 242.578 298.872 242.049C299.745 241.52 300.718 241.262 301.79 241.262C303.106 241.262 304.251 241.692 305.238 242.564C306.21 243.437 306.697 244.61 306.697 246.069C306.697 247.656 305.767 249.387 303.893 251.261L299.874 255.266H306.983V257.297H296.813Z" fill="white"/>
<path d="M309.886 259.514L308.713 259.543L317.71 239.331L318.883 239.303L309.886 259.514Z" fill="white"/>
<path d="M326.836 247.999C328.038 248.228 329.025 248.743 329.783 249.559C330.555 250.374 330.927 251.404 330.927 252.648C330.927 254.179 330.398 255.38 329.354 256.267C328.309 257.154 327.036 257.597 325.534 257.597C324.333 257.597 323.275 257.326 322.345 256.782C321.415 256.238 320.757 255.437 320.371 254.408L322.13 253.378C322.602 254.837 323.732 255.552 325.549 255.552C326.521 255.552 327.322 255.294 327.937 254.794C328.553 254.293 328.853 253.578 328.853 252.662C328.853 251.747 328.553 251.032 327.937 250.517C327.322 250.002 326.521 249.745 325.549 249.745H325.005L324.176 248.457L327.823 243.537H320.829V241.577H330.269L330.255 243.408L326.836 247.999Z" fill="white"/>
<path d="M343.328 255.366C342.27 256.853 340.768 257.597 338.851 257.597C336.935 257.597 335.447 256.853 334.374 255.366C333.316 253.878 332.772 251.904 332.772 249.43C332.772 246.955 333.301 244.981 334.374 243.494C335.433 242.006 336.935 241.262 338.851 241.262C340.768 241.262 342.255 242.006 343.328 243.494C344.387 244.981 344.93 246.955 344.93 249.43C344.93 251.904 344.387 253.878 343.328 255.366ZM335.905 253.95C336.591 255.008 337.578 255.552 338.851 255.552C340.124 255.552 341.111 255.023 341.812 253.95C342.513 252.877 342.856 251.375 342.856 249.43C342.856 247.485 342.513 245.968 341.812 244.896C341.111 243.823 340.124 243.294 338.851 243.294C337.578 243.294 336.591 243.823 335.905 244.896C335.218 245.968 334.875 247.47 334.875 249.444C334.86 251.375 335.218 252.877 335.905 253.95Z" fill="white"/>
<path d="M77.0222 76.5412H38.3736C35.8991 76.5412 33.868 74.5101 33.868 72.0355V43.4138C33.868 40.9393 35.8991 38.9082 38.3736 38.9082H77.0222C79.4968 38.9082 81.5279 40.9393 81.5279 43.4138V72.0355C81.5422 74.5101 79.5111 76.5412 77.0222 76.5412Z" fill="#F6C859"/>
<path d="M52.2196 71.5206C52.0193 71.5206 51.8191 71.4062 51.7333 71.2202C51.5902 70.9484 51.7047 70.6194 51.9764 70.4764C52.7774 70.0616 53.8645 69.3035 54.4939 67.9733C55.2949 66.2854 55.0803 64.4546 54.7513 64.2972C54.6655 64.2543 54.3365 64.426 54.1363 64.5261C53.607 64.7978 52.8919 65.1554 52.0623 64.8694C51.2469 64.5833 50.8464 63.8538 50.6462 63.5105C49.4018 61.2219 49.0156 55.2573 50.3315 52.3107C50.7749 51.3238 51.3614 50.7516 52.1052 50.5657C52.8633 50.394 53.4783 50.7087 53.9646 50.9662C54.3651 51.1807 54.5797 51.2666 54.7084 51.195C55.2234 50.8804 55.2091 48.9923 54.4939 47.4904C53.8645 46.1601 52.7774 45.3877 51.9764 44.9872C51.7047 44.8442 51.6045 44.5152 51.7333 44.2434C51.8763 43.9717 52.2053 43.8715 52.4771 44.0003C53.4211 44.4866 54.7227 45.402 55.4808 47.0184C56.2389 48.6061 56.5965 51.3381 55.2663 52.1391C54.594 52.5396 53.9646 52.2106 53.4497 51.9531C53.0635 51.7386 52.7059 51.5669 52.3483 51.6385C51.862 51.7529 51.533 52.3107 51.3328 52.7541C50.1742 55.3431 50.5032 60.9645 51.6045 62.9813C51.7905 63.3246 52.0193 63.6965 52.4055 63.8252C52.7774 63.9539 53.1207 63.7966 53.6214 63.5391C54.1077 63.296 54.6512 63.0099 55.2234 63.296C56.4535 63.8967 56.382 66.5572 55.4808 68.4453C54.7227 70.0473 53.4211 70.977 52.4771 71.4634C52.3912 71.5063 52.3054 71.5206 52.2196 71.5206Z" fill="#7D662D"/>
<path d="M50.5604 53.312H40.6193C40.3189 53.312 40.0615 53.0688 40.0615 52.7541C40.0615 52.4538 40.3046 52.1963 40.6193 52.1963H50.5604C50.8607 52.1963 51.1182 52.4395 51.1182 52.7541C51.1182 53.0688 50.8607 53.312 50.5604 53.312Z" fill="#7D662D"/>
<path d="M50.5604 63.253H40.6193C40.3189 63.253 40.0615 63.0099 40.0615 62.6952C40.0615 62.3948 40.3046 62.1374 40.6193 62.1374H50.5604C50.8607 62.1374 51.1182 62.3805 51.1182 62.6952C51.1182 62.9956 50.8607 63.253 50.5604 63.253Z" fill="#7D662D"/>
<path d="M63.8056 71.5206C63.7197 71.5206 63.6339 71.5063 63.5481 71.4634C62.6041 70.977 61.3024 70.0616 60.5443 68.4453C59.6432 66.5572 59.5717 63.8967 60.8018 63.296C61.3739 63.0242 61.9175 63.296 62.4038 63.5391C62.9044 63.7966 63.2477 63.9539 63.6196 63.8252C64.0344 63.6822 64.2776 63.2387 64.4206 62.9813C65.522 60.9645 65.851 55.3431 64.6924 52.7541C64.4921 52.3107 64.1489 51.7529 63.6768 51.6385C63.3765 51.5669 63.1905 51.2666 63.262 50.9805C63.3335 50.6801 63.6339 50.4942 63.92 50.5657C64.6638 50.7373 65.2645 51.3238 65.6937 52.3107C67.0096 55.2716 66.6377 61.2219 65.379 63.5105C65.193 63.8538 64.7925 64.5833 63.9772 64.8694C63.1476 65.1554 62.4181 64.7978 61.9032 64.5261C61.7029 64.426 61.3596 64.2543 61.2881 64.2972C60.9591 64.4546 60.7446 66.2854 61.5456 67.9733C62.1749 69.3035 63.262 70.0759 64.063 70.4764C64.3348 70.6194 64.4349 70.9484 64.3062 71.2202C64.2061 71.4205 64.0058 71.5206 63.8056 71.5206Z" fill="#7D662D"/>
<path d="M61.6028 51.1092C61.3739 51.1092 61.1594 50.9662 61.0736 50.7373C59.8864 47.19 62.6613 44.458 63.5481 44.0003C63.8199 43.8572 64.1489 43.9717 64.2919 44.2434C64.4349 44.5152 64.3205 44.8442 64.0487 44.9872C63.6482 45.1875 61.1022 47.3759 62.1177 50.394C62.2179 50.6801 62.0605 50.9948 61.7744 51.0949C61.7172 51.0949 61.66 51.1092 61.6028 51.1092Z" fill="#7D662D"/>
<path d="M75.4059 53.312H65.4648C65.1645 53.312 64.907 53.0688 64.907 52.7541C64.907 52.4538 65.1501 52.1963 65.4648 52.1963H75.4059C75.7063 52.1963 75.9637 52.4395 75.9637 52.7541C75.9494 53.0688 75.7063 53.312 75.4059 53.312Z" fill="#7D662D"/>
<path d="M75.4059 63.253H65.4648C65.1645 63.253 64.907 63.0099 64.907 62.6952C64.907 62.3948 65.1501 62.1374 65.4648 62.1374H75.4059C75.7063 62.1374 75.9637 62.3805 75.9637 62.6952C75.9494 62.9956 75.7063 63.253 75.4059 63.253Z" fill="#7D662D"/>
<path d="M40.0631 252L35.7506 245.172V252H32.6061V236.67H35.7506V243.33L40.108 236.67H43.7467L38.7828 244.06L43.7467 252H40.0631ZM45.4088 241.365H48.34V252H45.4088V241.365ZM46.8912 236.693C47.3779 236.693 47.771 236.861 48.0704 237.198C48.3549 237.52 48.4972 237.902 48.4972 238.344C48.4972 238.838 48.3138 239.246 47.9469 239.568C47.6699 239.815 47.3142 239.938 46.88 239.938C46.3859 239.938 45.9853 239.774 45.6783 239.444C45.3938 239.122 45.2516 238.748 45.2516 238.321C45.2516 237.805 45.435 237.385 45.8019 237.063C46.0789 236.816 46.442 236.693 46.8912 236.693ZM58.5597 244.431H55.797C55.8045 244.378 55.8082 244.315 55.8082 244.24C55.8082 244.015 55.7334 243.809 55.5836 243.622C55.3216 243.308 54.951 243.15 54.4718 243.15C54.1124 243.15 53.8242 243.24 53.6071 243.42C53.3974 243.6 53.2926 243.832 53.2926 244.116C53.2926 244.408 53.3937 244.633 53.5958 244.79C53.8129 244.962 54.1199 245.112 54.5167 245.239L55.3927 245.509C56.5607 245.868 57.3767 246.272 57.8409 246.722C58.4324 247.291 58.7281 248.024 58.7281 248.923C58.7281 250.046 58.2827 250.933 57.3917 251.584C56.6805 252.109 55.7446 252.371 54.5841 252.371C53.0268 252.371 51.8701 251.891 51.1139 250.933C50.6722 250.387 50.4363 249.701 50.4064 248.878H53.214C53.3413 249.769 53.8055 250.214 54.6066 250.214C54.951 250.214 55.2242 250.125 55.4264 249.945C55.6585 249.735 55.7745 249.488 55.7745 249.204C55.7745 248.852 55.5911 248.56 55.2242 248.328C55.0221 248.193 54.5467 248.013 53.798 247.789C52.6674 247.437 51.8439 247.002 51.3273 246.486C50.7583 245.924 50.4738 245.221 50.4738 244.375C50.4738 243.222 50.9417 242.334 51.8776 241.713C52.6113 241.234 53.5172 240.994 54.5953 240.994C56.1077 240.994 57.2308 241.485 57.9645 242.465C58.3388 242.974 58.5372 243.63 58.5597 244.431ZM60.9069 236.67H63.838V242.499C64.684 241.496 65.6461 240.994 66.7242 240.994C67.3681 240.994 67.9858 241.155 68.5773 241.477C69.2736 241.851 69.7378 242.357 69.9698 242.993C70.1495 243.457 70.2394 244.12 70.2394 244.981V252H67.3082V245.396C67.3082 244.708 67.1173 244.187 66.7355 243.835C66.4809 243.588 66.144 243.465 65.7247 243.465C65.2306 243.465 64.7963 243.641 64.422 243.993C64.1749 244.232 64.0102 244.494 63.9279 244.779C63.868 245.033 63.838 245.329 63.838 245.666V252H60.9069V236.67ZM81.2228 242.712V241.365H84.1539V252H81.2228V250.54C80.257 251.76 79.0253 252.371 77.528 252.371C75.9033 252.371 74.5968 251.768 73.6085 250.562C72.7924 249.567 72.3844 248.316 72.3844 246.812C72.3844 245.688 72.6427 244.648 73.1593 243.689C73.5935 242.881 74.2112 242.233 75.0123 241.747C75.8209 241.252 76.7306 241.005 77.7413 241.005C78.5724 241.005 79.3211 241.204 79.9874 241.601C80.3917 241.84 80.8035 242.211 81.2228 242.712ZM78.3478 243.476C77.4269 243.476 76.7081 243.832 76.1915 244.543C75.7348 245.179 75.5065 245.921 75.5065 246.767C75.5065 247.777 75.8172 248.593 76.4386 249.215C76.9702 249.746 77.5991 250.012 78.3253 250.012C79.2088 250.012 79.9388 249.645 80.5153 248.912C81.0169 248.275 81.2677 247.53 81.2677 246.677C81.2677 245.831 81.0431 245.116 80.5939 244.532C80.0473 243.828 79.2986 243.476 78.3478 243.476ZM87.0514 252V241.365H89.9825V242.667C90.3269 242.121 90.6713 241.732 91.0157 241.5C91.5174 241.163 92.1276 240.994 92.8463 240.994C93.9319 240.994 94.8079 241.324 95.4742 241.982C95.8935 242.402 96.1593 242.881 96.2716 243.42C96.3764 243.944 96.4288 244.562 96.4288 245.273V252H93.4977V245.419C93.4977 244.865 93.4116 244.449 93.2394 244.172C92.9399 243.701 92.4757 243.465 91.8468 243.465C91.2254 243.465 90.7312 243.716 90.3644 244.217C90.1098 244.562 89.9825 245.003 89.9825 245.542V252H87.0514ZM113.668 252L109.467 245.902V252H106.323V236.67H111.04C112.964 236.67 114.413 237.075 115.386 237.883C115.768 238.183 116.071 238.55 116.296 238.984C116.7 239.74 116.902 240.575 116.902 241.488C116.902 242.948 116.438 244.109 115.509 244.97C114.933 245.501 114.184 245.883 113.263 246.115L117.486 252H113.668ZM109.467 239.276V244.06H110.905C111.721 244.06 112.369 243.888 112.848 243.543C113.424 243.117 113.713 242.488 113.713 241.657C113.713 240.96 113.503 240.395 113.084 239.961C112.649 239.504 112.009 239.276 111.163 239.276H109.467ZM127.739 242.712V241.365H130.671V252H127.739V250.54C126.774 251.76 125.542 252.371 124.045 252.371C122.42 252.371 121.113 251.768 120.125 250.562C119.309 249.567 118.901 248.316 118.901 246.812C118.901 245.688 119.159 244.648 119.676 243.689C120.11 242.881 120.728 242.233 121.529 241.747C122.338 241.252 123.247 241.005 124.258 241.005C125.089 241.005 125.838 241.204 126.504 241.601C126.908 241.84 127.32 242.211 127.739 242.712ZM124.864 243.476C123.943 243.476 123.225 243.832 122.708 244.543C122.251 245.179 122.023 245.921 122.023 246.767C122.023 247.777 122.334 248.593 122.955 249.215C123.487 249.746 124.116 250.012 124.842 250.012C125.725 250.012 126.455 249.645 127.032 248.912C127.533 248.275 127.784 247.53 127.784 246.677C127.784 245.831 127.56 245.116 127.11 244.532C126.564 243.828 125.815 243.476 124.864 243.476ZM133.568 252V241.365H136.499V242.712C136.791 242.188 137.117 241.803 137.476 241.556C138.03 241.181 138.678 240.994 139.419 240.994C140.13 240.994 140.767 241.174 141.328 241.533C141.748 241.81 142.077 242.222 142.317 242.769C142.653 242.2 143.035 241.788 143.462 241.533C144.046 241.174 144.731 240.994 145.517 240.994C146.61 240.994 147.468 241.327 148.089 241.994C148.486 242.428 148.729 242.907 148.819 243.431C148.901 243.888 148.943 244.427 148.943 245.048V252H146.011V245.599C146.011 244.962 145.922 244.487 145.742 244.172C145.48 243.701 145.034 243.465 144.405 243.465C143.836 243.465 143.398 243.678 143.091 244.105C142.844 244.472 142.721 244.97 142.721 245.599V252H139.79V245.677C139.79 244.202 139.251 243.465 138.172 243.465C137.618 243.465 137.192 243.671 136.892 244.083C136.63 244.434 136.499 244.966 136.499 245.677V252H133.568ZM159.926 242.712V241.365H162.857V252H159.926V250.54C158.96 251.76 157.728 252.371 156.231 252.371C154.606 252.371 153.3 251.768 152.312 250.562C151.496 249.567 151.088 248.316 151.088 246.812C151.088 245.688 151.346 244.648 151.862 243.689C152.297 242.881 152.914 242.233 153.715 241.747C154.524 241.252 155.434 241.005 156.444 241.005C157.276 241.005 158.024 241.204 158.691 241.601C159.095 241.84 159.507 242.211 159.926 242.712ZM157.051 243.476C156.13 243.476 155.411 243.832 154.895 244.543C154.438 245.179 154.21 245.921 154.21 246.767C154.21 247.777 154.52 248.593 155.142 249.215C155.673 249.746 156.302 250.012 157.028 250.012C157.912 250.012 158.642 249.645 159.218 248.912C159.72 248.275 159.971 247.53 159.971 246.677C159.971 245.831 159.746 245.116 159.297 244.532C158.75 243.828 158.002 243.476 157.051 243.476ZM165.755 252V241.365H168.686V242.667C169.03 242.121 169.374 241.732 169.719 241.5C170.22 241.163 170.831 240.994 171.549 240.994C172.635 240.994 173.511 241.324 174.177 241.982C174.597 242.402 174.862 242.881 174.975 243.42C175.08 243.944 175.132 244.562 175.132 245.273V252H172.201V245.419C172.201 244.865 172.115 244.449 171.943 244.172C171.643 243.701 171.179 243.465 170.55 243.465C169.929 243.465 169.434 243.716 169.068 244.217C168.813 244.562 168.686 245.003 168.686 245.542V252H165.755ZM177.973 241.365H180.904V252H177.973V241.365ZM179.456 236.693C179.942 236.693 180.335 236.861 180.635 237.198C180.919 237.52 181.062 237.902 181.062 238.344C181.062 238.838 180.878 239.246 180.511 239.568C180.234 239.815 179.879 239.938 179.444 239.938C178.95 239.938 178.55 239.774 178.243 239.444C177.958 239.122 177.816 238.748 177.816 238.321C177.816 237.805 177.999 237.385 178.366 237.063C178.643 236.816 179.006 236.693 179.456 236.693Z" fill="white"/>
<path d="M379.384 268L382.744 251.2H386.656L393.448 262.432L391.816 262.384L394.048 251.2H398.704L395.344 268H391.432L384.664 256.768L386.272 256.816L384.04 268H379.384ZM405.128 257.704H412.928L412.232 261.256H404.432L405.128 257.704ZM404.144 264.328H412.952L412.184 268H398.72L402.08 251.2H415.232L414.488 254.872H406.016L404.144 264.328ZM412.976 268L422.24 257.92L421.688 260.656L416.672 251.2H421.736L424.952 257.512H422.864L428.456 251.2H433.832L425.144 260.704L425.312 258.016L430.736 268H425.6L422.24 261.352L424.4 261.4L418.664 268H412.976ZM440.886 268.336C439.158 268.336 437.67 268.024 436.422 267.4C435.174 266.76 434.214 265.888 433.542 264.784C432.87 263.68 432.534 262.4 432.534 260.944C432.534 259.472 432.79 258.128 433.302 256.912C433.814 255.68 434.534 254.616 435.462 253.72C436.39 252.808 437.494 252.104 438.774 251.608C440.07 251.112 441.486 250.864 443.022 250.864C444.75 250.864 446.238 251.184 447.486 251.824C448.734 252.448 449.694 253.312 450.366 254.416C451.038 255.52 451.374 256.8 451.374 258.256C451.374 259.728 451.118 261.08 450.606 262.312C450.094 263.528 449.374 264.592 448.446 265.504C447.518 266.4 446.406 267.096 445.11 267.592C443.83 268.088 442.422 268.336 440.886 268.336ZM441.294 264.4C442.126 264.4 442.862 264.248 443.502 263.944C444.158 263.64 444.71 263.216 445.158 262.672C445.622 262.112 445.974 261.48 446.214 260.776C446.454 260.072 446.574 259.328 446.574 258.544C446.574 257.792 446.414 257.136 446.094 256.576C445.79 256.016 445.342 255.584 444.75 255.28C444.174 254.96 443.462 254.8 442.614 254.8C441.798 254.8 441.062 254.952 440.406 255.256C439.75 255.56 439.19 255.992 438.726 256.552C438.278 257.096 437.934 257.72 437.694 258.424C437.454 259.128 437.334 259.872 437.334 260.656C437.334 261.392 437.486 262.048 437.79 262.624C438.11 263.184 438.558 263.624 439.134 263.944C439.726 264.248 440.446 264.4 441.294 264.4Z" fill="white"/>
</g>
<defs>
<linearGradient id="paint0_linear_41_211" x1="52.7981" y1="342.115" x2="430.321" y2="-35.4081" gradientUnits="userSpaceOnUse">
<stop stop-color="#F7931E"/>
<stop offset="1" stop-color="#ED1E79"/>
</linearGradient>
<linearGradient id="paint1_linear_41_211" x1="52.8283" y1="341.663" x2="430.347" y2="-35.8558" gradientUnits="userSpaceOnUse">
<stop stop-color="#ED1C24"/>
<stop offset="1" stop-color="#4F339A"/>
</linearGradient>
<linearGradient id="paint2_linear_41_211" x1="52.8964" y1="342.6" x2="430.779" y2="-32.945" gradientUnits="userSpaceOnUse">
<stop stop-color="#ED1C24"/>
<stop offset="1" stop-color="#4F339A"/>
</linearGradient>
<linearGradient id="paint3_linear_41_211" x1="167.698" y1="106.349" x2="370.849" y2="-69.1929" gradientUnits="userSpaceOnUse">
<stop stop-color="#ED1E79"/>
<stop offset="1" stop-color="#662D91"/>
</linearGradient>
<linearGradient id="paint4_linear_41_211" x1="225.039" y1="99.1788" x2="428.19" y2="-76.3636" gradientUnits="userSpaceOnUse">
<stop stop-color="#ED1E79"/>
<stop offset="1" stop-color="#662D91"/>
</linearGradient>
<linearGradient id="paint5_linear_41_211" x1="199.949" y1="140.391" x2="403.101" y2="-35.1505" gradientUnits="userSpaceOnUse">
<stop stop-color="#ED1E79"/>
<stop offset="1" stop-color="#662D91"/>
</linearGradient>
<linearGradient id="paint6_linear_41_211" x1="241.161" y1="172.641" x2="444.312" y2="-2.90075" gradientUnits="userSpaceOnUse">
<stop stop-color="#ED1E79"/>
<stop offset="1" stop-color="#662D91"/>
</linearGradient>
<linearGradient id="paint7_linear_41_211" x1="219.661" y1="135.015" x2="422.812" y2="-40.5272" gradientUnits="userSpaceOnUse">
<stop stop-color="#ED1E79"/>
<stop offset="1" stop-color="#662D91"/>
</linearGradient>
<linearGradient id="paint8_linear_41_211" x1="235.788" y1="122.471" x2="438.939" y2="-53.0709" gradientUnits="userSpaceOnUse">
<stop stop-color="#ED1E79"/>
<stop offset="1" stop-color="#662D91"/>
</linearGradient>
<linearGradient id="paint9_linear_41_211" x1="133.646" y1="195.941" x2="336.797" y2="20.3989" gradientUnits="userSpaceOnUse">
<stop stop-color="#ED1E79"/>
<stop offset="1" stop-color="#662D91"/>
</linearGradient>
<linearGradient id="paint10_linear_41_211" x1="259.079" y1="178.016" x2="462.23" y2="2.47346" gradientUnits="userSpaceOnUse">
<stop stop-color="#ED1E79"/>
<stop offset="1" stop-color="#662D91"/>
</linearGradient>
<linearGradient id="paint11_linear_41_211" x1="164.107" y1="213.857" x2="367.258" y2="38.3151" gradientUnits="userSpaceOnUse">
<stop stop-color="#ED1E79"/>
<stop offset="1" stop-color="#662D91"/>
</linearGradient>
<linearGradient id="paint12_linear_41_211" x1="205.317" y1="255.066" x2="408.468" y2="79.5236" gradientUnits="userSpaceOnUse">
<stop stop-color="#ED1E79"/>
<stop offset="1" stop-color="#662D91"/>
</linearGradient>
<linearGradient id="paint13_linear_41_211" x1="255.496" y1="167.265" x2="458.647" y2="-8.27713" gradientUnits="userSpaceOnUse">
<stop stop-color="#ED1E79"/>
<stop offset="1" stop-color="#662D91"/>
</linearGradient>
<linearGradient id="paint14_linear_41_211" x1="320.006" y1="140.384" x2="523.158" y2="-35.1574" gradientUnits="userSpaceOnUse">
<stop stop-color="#ED1E79"/>
<stop offset="1" stop-color="#662D91"/>
</linearGradient>
<linearGradient id="paint15_linear_41_211" x1="241.16" y1="183.392" x2="444.311" y2="7.85012" gradientUnits="userSpaceOnUse">
<stop stop-color="#ED1E79"/>
<stop offset="1" stop-color="#662D91"/>
</linearGradient>
<linearGradient id="paint16_linear_41_211" x1="325.378" y1="188.762" x2="528.529" y2="13.2201" gradientUnits="userSpaceOnUse">
<stop stop-color="#ED1E79"/>
<stop offset="1" stop-color="#662D91"/>
</linearGradient>
<linearGradient id="paint17_linear_41_211" x1="212.491" y1="172.643" x2="415.642" y2="-2.89896" gradientUnits="userSpaceOnUse">
<stop stop-color="#ED1E79"/>
<stop offset="1" stop-color="#662D91"/>
</linearGradient>
<linearGradient id="paint18_linear_41_211" x1="276.999" y1="160.097" x2="480.15" y2="-15.4455" gradientUnits="userSpaceOnUse">
<stop stop-color="#ED1E79"/>
<stop offset="1" stop-color="#662D91"/>
</linearGradient>
<linearGradient id="paint19_linear_41_211" x1="284.164" y1="203.099" x2="487.315" y2="27.5571" gradientUnits="userSpaceOnUse">
<stop stop-color="#ED1E79"/>
<stop offset="1" stop-color="#662D91"/>
</linearGradient>
<linearGradient id="paint20_linear_41_211" x1="325.376" y1="224.598" x2="528.527" y2="49.0564" gradientUnits="userSpaceOnUse">
<stop stop-color="#ED1E79"/>
<stop offset="1" stop-color="#662D91"/>
</linearGradient>
<linearGradient id="paint21_linear_41_211" x1="212.488" y1="221.021" x2="415.638" y2="45.4791" gradientUnits="userSpaceOnUse">
<stop stop-color="#ED1E79"/>
<stop offset="1" stop-color="#662D91"/>
</linearGradient>
<linearGradient id="paint22_linear_41_211" x1="180.235" y1="199.522" x2="383.385" y2="23.9794" gradientUnits="userSpaceOnUse">
<stop stop-color="#ED1E79"/>
<stop offset="1" stop-color="#662D91"/>
</linearGradient>
<linearGradient id="paint23_linear_41_211" x1="-179.942" y1="307.051" x2="23.21" y2="131.509" gradientUnits="userSpaceOnUse">
<stop stop-color="#ED1E79"/>
<stop offset="1" stop-color="#662D91"/>
</linearGradient>
<linearGradient id="paint24_linear_41_211" x1="-122.601" y1="299.88" x2="80.5501" y2="124.338" gradientUnits="userSpaceOnUse">
<stop stop-color="#ED1E79"/>
<stop offset="1" stop-color="#662D91"/>
</linearGradient>
<linearGradient id="paint25_linear_41_211" x1="-147.69" y1="341.093" x2="55.4609" y2="165.551" gradientUnits="userSpaceOnUse">
<stop stop-color="#ED1E79"/>
<stop offset="1" stop-color="#662D91"/>
</linearGradient>
<linearGradient id="paint26_linear_41_211" x1="-106.479" y1="373.343" x2="96.6727" y2="197.801" gradientUnits="userSpaceOnUse">
<stop stop-color="#ED1E79"/>
<stop offset="1" stop-color="#662D91"/>
</linearGradient>
<linearGradient id="paint27_linear_41_211" x1="-127.979" y1="335.716" x2="75.172" y2="160.174" gradientUnits="userSpaceOnUse">
<stop stop-color="#ED1E79"/>
<stop offset="1" stop-color="#662D91"/>
</linearGradient>
<linearGradient id="paint28_linear_41_211" x1="-111.851" y1="323.173" x2="91.3001" y2="147.631" gradientUnits="userSpaceOnUse">
<stop stop-color="#ED1E79"/>
<stop offset="1" stop-color="#662D91"/>
</linearGradient>
<linearGradient id="paint29_linear_41_211" x1="-213.993" y1="396.642" x2="-10.8424" y2="221.1" gradientUnits="userSpaceOnUse">
<stop stop-color="#ED1E79"/>
<stop offset="1" stop-color="#662D91"/>
</linearGradient>
<linearGradient id="paint30_linear_41_211" x1="-88.5601" y1="378.717" x2="114.591" y2="203.175" gradientUnits="userSpaceOnUse">
<stop stop-color="#ED1E79"/>
<stop offset="1" stop-color="#662D91"/>
</linearGradient>
<linearGradient id="paint31_linear_41_211" x1="-183.533" y1="414.558" x2="19.6187" y2="239.016" gradientUnits="userSpaceOnUse">
<stop stop-color="#ED1E79"/>
<stop offset="1" stop-color="#662D91"/>
</linearGradient>
<linearGradient id="paint32_linear_41_211" x1="-142.322" y1="455.767" x2="60.8291" y2="280.225" gradientUnits="userSpaceOnUse">
<stop stop-color="#ED1E79"/>
<stop offset="1" stop-color="#662D91"/>
</linearGradient>
<linearGradient id="paint33_linear_41_211" x1="-92.1432" y1="367.966" x2="111.008" y2="192.424" gradientUnits="userSpaceOnUse">
<stop stop-color="#ED1E79"/>
<stop offset="1" stop-color="#662D91"/>
</linearGradient>
<linearGradient id="paint34_linear_41_211" x1="-27.6334" y1="341.086" x2="175.518" y2="165.544" gradientUnits="userSpaceOnUse">
<stop stop-color="#ED1E79"/>
<stop offset="1" stop-color="#662D91"/>
</linearGradient>
<linearGradient id="paint35_linear_41_211" x1="-106.48" y1="384.094" x2="96.6718" y2="208.551" gradientUnits="userSpaceOnUse">
<stop stop-color="#ED1E79"/>
<stop offset="1" stop-color="#662D91"/>
</linearGradient>
<linearGradient id="paint36_linear_41_211" x1="-22.2607" y1="389.464" x2="180.89" y2="213.922" gradientUnits="userSpaceOnUse">
<stop stop-color="#ED1E79"/>
<stop offset="1" stop-color="#662D91"/>
</linearGradient>
<linearGradient id="paint37_linear_41_211" x1="-135.149" y1="373.344" x2="68.0022" y2="197.802" gradientUnits="userSpaceOnUse">
<stop stop-color="#ED1E79"/>
<stop offset="1" stop-color="#662D91"/>
</linearGradient>
<linearGradient id="paint38_linear_41_211" x1="-70.6399" y1="360.798" x2="132.511" y2="185.256" gradientUnits="userSpaceOnUse">
<stop stop-color="#ED1E79"/>
<stop offset="1" stop-color="#662D91"/>
</linearGradient>
<linearGradient id="paint39_linear_41_211" x1="-63.4756" y1="403.801" x2="139.676" y2="228.259" gradientUnits="userSpaceOnUse">
<stop stop-color="#ED1E79"/>
<stop offset="1" stop-color="#662D91"/>
</linearGradient>
<linearGradient id="paint40_linear_41_211" x1="-22.2632" y1="425.3" x2="180.888" y2="249.758" gradientUnits="userSpaceOnUse">
<stop stop-color="#ED1E79"/>
<stop offset="1" stop-color="#662D91"/>
</linearGradient>
<linearGradient id="paint41_linear_41_211" x1="-135.152" y1="421.723" x2="67.9985" y2="246.18" gradientUnits="userSpaceOnUse">
<stop stop-color="#ED1E79"/>
<stop offset="1" stop-color="#662D91"/>
</linearGradient>
<linearGradient id="paint42_linear_41_211" x1="-167.405" y1="400.223" x2="35.7464" y2="224.681" gradientUnits="userSpaceOnUse">
<stop stop-color="#ED1E79"/>
<stop offset="1" stop-color="#662D91"/>
</linearGradient>
<clipPath id="clip0_41_211">
<rect width="420.958" height="229.817" fill="white" transform="translate(31.3219 38.9082)"/>
</clipPath>
</defs>
</svg>
