<svg width="48" height="48" viewBox="0 0 48 48" fill="none" xmlns="http://www.w3.org/2000/svg">
<g clip-path="url(#clip0_2_12)">
<rect width="48" height="48" rx="24" fill="#EB7EF2"/>
<path d="M9 25.518H17.2577C17.5275 30.4804 19.112 35.09 21.6665 39C14.9367 37.9468 9.67952 32.4105 9 25.518ZM9 22.4818C9.67952 15.5894 14.9367 10.0531 21.6665 9C19.112 12.9099 17.5275 17.5196 17.2577 22.4818H9ZM39 22.4818H30.7422C30.4724 17.5196 28.8879 12.9099 26.3334 9C33.0632 10.0531 38.3204 15.5894 39 22.4818ZM39 25.518C38.3204 32.4105 33.0632 37.9468 26.3334 39C28.8879 35.09 30.4724 30.4804 30.7422 25.518H39ZM20.2777 25.518H27.7222C27.4636 29.7426 26.1325 33.6751 23.9999 37.0426C21.8673 33.6751 20.5364 29.7426 20.2777 25.518ZM20.2777 22.4818C20.5364 18.2573 21.8673 14.3249 23.9999 10.9574C26.1325 14.3249 27.4636 18.2573 27.7222 22.4818H20.2777Z" fill="black"/>
</g>
<defs>
<clipPath id="clip0_2_12">
<rect width="48" height="48" rx="24" fill="white"/>
</clipPath>
</defs>
</svg>
