<svg width="48" height="48" viewBox="0 0 48 48" fill="none" xmlns="http://www.w3.org/2000/svg">
<g clip-path="url(#clip0_1_13)">
<rect width="48" height="48" fill="#EB7EF2"/>
<path d="M24 40.6667C14.7952 40.6667 7.33333 33.2047 7.33333 24C7.33333 14.7953 14.7952 7.33334 24 7.33334C33.2047 7.33334 40.6667 14.7953 40.6667 24C40.6667 33.2047 33.2047 40.6667 24 40.6667ZM20.1834 36.779C18.579 33.3765 17.5955 29.6237 17.3789 25.6667H10.7698C11.43 30.9608 15.194 35.2912 20.1834 36.779ZM20.7178 25.6667C20.9685 29.7313 22.1297 33.5495 24 36.92C25.8703 33.5495 27.0315 29.7313 27.2822 25.6667H20.7178ZM37.2302 25.6667H30.6212C30.4045 29.6237 29.421 33.3765 27.8167 36.779C32.806 35.2912 36.57 30.9608 37.2302 25.6667ZM10.7698 22.3333H17.3789C17.5955 18.3763 18.579 14.6235 20.1834 11.2209C15.194 12.7089 11.43 17.0392 10.7698 22.3333ZM20.7178 22.3333H27.2822C27.0315 18.2687 25.8703 14.4504 24 11.08C22.1297 14.4504 20.9685 18.2687 20.7178 22.3333ZM27.8167 11.2209C29.421 14.6235 30.4045 18.3763 30.6212 22.3333H37.2302C36.57 17.0392 32.806 12.7089 27.8167 11.2209Z" fill="white"/>
</g>
<defs>
<clipPath id="clip0_1_13">
<rect width="48" height="48" fill="white"/>
</clipPath>
</defs>
</svg>
