<?xml version="1.0" encoding="UTF-8"?>
<!DOCTYPE svg PUBLIC "-//W3C//DTD SVG 1.1//EN" "http://www.w3.org/Graphics/SVG/1.1/DTD/svg11.dtd">
<!-- Creator: CorelDRAW -->
<svg xmlns="http://www.w3.org/2000/svg" xml:space="preserve" width="14.865mm" height="20.5178mm" version="1.1" style="shape-rendering:geometricPrecision; text-rendering:geometricPrecision; image-rendering:optimizeQuality; fill-rule:evenodd; clip-rule:evenodd"
viewBox="0 0 1472.38 2032.28"
 xmlns:xlink="http://www.w3.org/1999/xlink"
 xmlns:xodm="http://www.corel.com/coreldraw/odm/2003">
 <defs>
  <style type="text/css">
   <![CDATA[
    .fil0 {fill:#2B2B2A;fill-rule:nonzero}
   ]]>
  </style>
 </defs>
 <g id="Layer_x0020_1">
  <metadata id="CorelCorpID_0Corel-Layer"/>
  <path class="fil0" d="M-0 425.01l294.5 -170.03c0,580.33 0,1161 0,1741.34 -101.45,-20.33 -199.85,-49.11 -294.5,-85.49 0,-495.17 0,-990.64 0,-1485.82zm1472.38 1485.82c-94.65,36.38 -193.06,65.16 -294.5,85.49 0,-580.33 0,-1161 0,-1741.34l294.5 170.03c0,495.18 0,990.65 0,1485.82zm-589 -1825.87c0,648.63 0,1297.46 0,1946.09 -22.4,0.82 -44.92,1.24 -67.55,1.24l-159.18 0c-22.72,0 -45.25,-0.42 -67.76,-1.24 0,-648.63 0,-1297.46 0,-1946.09l147.31 -84.96 147.19 84.96z"/>
 </g>
</svg>
